<svg width="155" height="155" viewBox="0 0 155 155" fill="none" xmlns="http://www.w3.org/2000/svg">
<path d="M77.5 155C120.302 155 155 120.302 155 77.5C155 34.6979 120.302 0 77.5 0C34.6979 0 0 34.6979 0 77.5C0 120.302 34.6979 155 77.5 155Z" fill="white"/>
<path d="M78.8203 105.491C78.5833 108.201 76.1365 110.212 73.388 109.978L71.2676 109.793C68.5191 109.559 66.4793 107.147 66.7163 104.437L67.624 94.3117C67.861 91.6022 70.3079 89.5913 73.0564 89.825L75.1768 90.0105C77.9252 90.2442 79.9651 92.6563 79.7281 95.3658L78.8203 105.491Z" fill="#FDD503"/>
<path d="M94.9615 67.3507C95.0952 66.3906 95.1335 65.5432 95.025 64.9381C94.4463 61.9786 84.971 59.5121 73.1215 57.7788C61.273 56.0559 56.0587 65.785 55.0297 68.732C54.0016 71.6893 56.4535 76.7425 57.7345 79.9831C59.0156 83.2237 60.0693 84.4528 60.0693 84.4528C61.7971 88.758 82.2103 86.8395 88.0898 85.2616C88.085 85.3245 88.0774 85.3565 88.0774 85.3565C88.0774 85.3565 88.5349 85.2739 89.2278 84.8785C89.4204 84.7884 89.5605 84.7029 89.6272 84.624C90.5823 83.976 91.8234 82.7606 92.9066 80.5173C95.0309 76.1491 97.3368 70.0767 97.281 68.3208C97.2602 67.635 96.2291 67.3416 94.9615 67.3507Z" fill="#1C191B"/>
<path d="M99.2169 79.5997C98.8961 82.202 96.4664 84.0551 93.8057 83.7406C91.144 83.4159 89.2451 81.0432 89.566 78.4409C89.8868 75.8386 92.3165 73.9855 94.9772 74.2999C97.638 74.6143 99.5378 76.9973 99.2169 79.5997Z" fill="#FDD503"/>
<path d="M92.1924 79.4156C92.1943 79.3217 92.2162 79.2155 92.2286 79.1206C92.2506 79.0144 92.2716 78.8979 92.304 78.7908C92.3116 78.7589 92.3202 78.7372 92.3278 78.7053C92.3593 78.5879 92.3393 78.7147 92.3183 78.7166C92.3393 78.7147 92.386 78.5334 92.3946 78.5118C92.4556 78.3708 92.5167 78.2299 92.5996 78.0974C92.6177 78.0645 92.693 77.964 92.5986 78.0871C92.6168 78.0542 92.6349 78.0213 92.6644 77.9978C92.7111 77.9311 92.7683 77.8635 92.8255 77.7959C92.8541 77.762 92.8827 77.7282 92.9123 77.7047C92.9218 77.6935 92.9418 77.6813 92.9504 77.6596C92.9876 77.6042 92.8522 77.7414 92.9304 77.6719C92.999 77.6136 93.0676 77.5554 93.1477 77.5065C93.1773 77.4831 93.2173 77.4586 93.2583 77.4445C93.3679 77.3722 93.2068 77.4596 93.2888 77.4314C93.3803 77.392 93.4718 77.3525 93.5633 77.3131C93.6147 77.2981 93.6767 77.2821 93.7386 77.2661C93.8311 77.237 93.7282 77.2671 93.7177 77.268C93.7596 77.2643 93.7901 77.2511 93.832 77.2474C93.9674 77.2248 94.0932 77.2136 94.2304 77.2118C94.2723 77.208 94.4639 77.2221 94.3572 77.2108C94.4315 77.2146 94.5163 77.2175 94.5916 77.2316C94.7622 77.2476 94.9347 77.2843 95.0967 77.3219C95.3664 77.3812 95.6333 77.1801 95.6838 76.9255C95.7325 76.6502 95.541 76.4068 95.2818 76.3466C94.2021 76.0992 93.0603 76.2117 92.2339 76.9942C91.7277 77.4667 91.4302 78.1394 91.2804 78.8093C91.2509 78.9475 91.2318 79.0846 91.2232 79.2209C91.205 79.483 91.3346 79.7424 91.6252 79.7998C91.853 79.8628 92.1856 79.6872 92.1924 79.4156Z" fill="#020202"/>
<path d="M51.4503 77.3979C51.1294 80.0003 53.0292 82.3833 55.6899 82.6977C58.3517 83.0224 60.7813 81.1694 61.1012 78.5567C61.422 75.9544 59.5223 73.5714 56.8615 73.257C54.2008 72.9425 51.7711 74.7956 51.4503 77.3979Z" fill="#FDD503"/>
<path d="M59.3043 79.01C59.3835 78.6069 59.3741 78.1597 59.3056 77.7594C59.1609 76.8761 58.7208 76.113 57.928 75.6524C57.3467 75.3084 56.651 75.2142 55.9839 75.2009C55.7085 75.1943 55.5035 75.494 55.5263 75.742C55.5529 76.0314 55.7997 76.1865 56.0752 76.1932C56.0647 76.1941 56.2343 76.1998 56.16 76.196C56.0856 76.1922 56.2448 76.1989 56.2343 76.1998C56.2982 76.2045 56.362 76.2092 56.4154 76.2149C56.5545 76.2337 56.7041 76.2516 56.8452 76.2911C56.8995 76.3071 56.9529 76.3127 56.9967 76.3297C57.1158 76.3607 56.9309 76.3043 56.9967 76.3297C57.0291 76.3372 57.051 76.3456 57.0844 76.3635C57.194 76.4058 57.2931 76.4491 57.3931 76.5026C57.4379 76.5299 57.4818 76.5468 57.5265 76.5741C57.437 76.5196 57.5046 76.5656 57.5494 76.5929C57.6285 76.6483 57.7085 76.7141 57.7895 76.7903C57.801 76.7997 57.8133 76.8194 57.8352 76.8279C57.9048 76.8946 57.7762 76.7602 57.8124 76.8091C57.8362 76.8382 57.8715 76.8767 57.8953 76.9059C57.9543 76.9735 58.0029 77.0421 58.042 77.122C58.0544 77.1417 58.0668 77.1615 58.0792 77.1812C58.1163 77.2404 58.0649 77.1408 58.0544 77.1417C58.0763 77.1502 58.0944 77.232 58.1068 77.2517C58.1458 77.3316 58.1735 77.402 58.202 77.4829C58.2296 77.5533 58.2468 77.6248 58.2639 77.6962C58.2963 77.8183 58.2439 77.5938 58.2639 77.6962C58.2677 77.7375 58.282 77.7779 58.2868 77.8296C58.3096 77.963 58.322 78.0974 58.3343 78.2318C58.34 78.2938 58.3343 78.3464 58.34 78.4084C58.3352 78.4714 58.3123 78.6819 58.3457 78.4704C58.3257 78.5973 58.3266 78.7223 58.3056 78.8388C58.194 79.4636 59.1822 79.6358 59.3043 79.01Z" fill="#020202"/>
<path d="M89.3916 86.4371C88.6869 92.1059 83.4062 96.1727 77.6663 95.4771L68.3994 94.3569C62.6491 93.6623 58.5237 88.4565 59.2293 82.7981L61.2994 66.1187C62.0041 60.45 67.2848 56.3832 73.0247 57.0788L82.2916 58.1989C88.0419 58.8936 92.1673 64.0993 91.4617 69.7578L89.3916 86.4371Z" fill="#FDD503"/>
<path d="M76.0076 70.5451L73.615 77.2825L77.2888 77.5794L76.0076 70.5451Z" fill="#FF6766"/>
<path d="M67.6563 73.2821C67.5227 74.2423 66.6334 74.9158 65.6594 74.784C64.6855 74.6523 64.0023 73.7754 64.136 72.8152C64.2696 71.8549 65.1589 71.1814 66.1329 71.3132C67.1059 71.4346 67.79 72.3218 67.6563 73.2821Z" fill="#0C0C0C"/>
<path d="M86.56 73.4474C86.4263 74.4076 85.537 75.0811 84.5631 74.9493C83.5891 74.8175 82.906 73.9407 83.0396 72.9804C83.1732 72.0202 84.0626 71.3467 85.0365 71.4785C86.0095 71.5999 86.6936 72.4871 86.56 73.4474Z" fill="#0C0C0C"/>
<path d="M69.191 81.0261C68.8738 82.7601 67.1965 83.9107 65.4376 83.5981C63.6787 83.2854 62.5115 81.6319 62.8286 79.898C63.1458 78.164 64.8231 77.0133 66.582 77.326C68.3409 77.6387 69.5081 79.2922 69.191 81.0261Z" fill="#FF999A"/>
<path d="M86.899 81.7067C86.5818 83.4406 84.9046 84.5913 83.1456 84.2786C81.3867 83.9659 80.2195 82.3124 80.5367 80.5785C80.8539 78.8445 82.5312 77.6939 84.2901 78.0066C86.049 78.3193 87.2162 79.9727 86.899 81.7067Z" fill="#FF999A"/>
<path d="M72.6528 83.4736C72.9251 84.2517 73.7494 84.8241 74.4755 85.1344C75.883 85.7276 77.566 85.7544 78.7356 84.6806C79.0864 84.3575 79.3877 83.9554 79.524 83.4847C79.6042 83.2066 79.3545 82.9058 79.0858 82.8569C78.7742 82.8014 78.5292 83.0109 78.4491 83.289C78.4338 83.3529 78.5206 83.1471 78.4567 83.2571C78.4386 83.2899 78.4214 83.3332 78.4033 83.366C78.3862 83.4093 78.3576 83.4431 78.3404 83.4863C78.3042 83.5521 78.3976 83.4187 78.3032 83.5417C78.1335 83.7653 78.0287 83.8893 77.8399 84.0208C77.3166 84.4219 76.6295 84.5354 75.9319 84.4206C75.2019 84.2983 74.5653 84.0426 74.0356 83.5689C74.0127 83.5501 73.9889 83.5209 73.966 83.5021C74.0127 83.5501 74.0127 83.5501 73.966 83.5021C73.9308 83.4636 73.8955 83.4251 73.8593 83.3762C73.8117 83.3179 73.7736 83.2484 73.7259 83.1901C73.6278 83.0426 73.7669 83.2907 73.7002 83.1403C73.6878 83.1206 73.6859 83.0999 73.6745 83.0905C73.4554 82.4327 72.4232 82.8168 72.6528 83.4736Z" fill="#0C0C0C"/>
<path d="M97.2305 50.4246C96.3019 47.7985 93.3323 36.6545 78.6346 37.6246C63.9369 38.5947 55.8533 46.6632 53.7058 59.4004C52.5824 66.034 54.0794 70.4744 55.7589 73.2209C56.589 73.1675 58.1109 73.2815 59.5754 74.4948C60.1403 71.6726 60.939 67.7147 64.2966 63.6531C68.7285 58.2867 74.2895 61.4051 81.3639 68.5666C88.4382 75.7281 97.8068 70.3684 97.8068 70.3684C104.451 71.5875 110.954 68.7451 110.045 60.1259C109.136 51.5067 97.2305 50.4246 97.2305 50.4246Z" fill="#1C191B"/>
<path d="M60.8416 102.972C60.8416 102.972 58.1411 109.351 66.4097 112.832C74.6782 116.313 85.0092 111.19 83.0016 105.336" stroke="#1C191B" stroke-miterlimit="10"/>
</svg>
