<svg width="155" height="155" viewBox="0 0 155 155" fill="none" xmlns="http://www.w3.org/2000/svg">
<path d="M77.5 155C120.302 155 155 120.302 155 77.5C155 34.6979 120.302 0 77.5 0C34.6979 0 0 34.6979 0 77.5C0 120.302 34.6979 155 77.5 155Z" fill="white"/>
<path d="M34.1824 97.3176C31.1173 92.1811 31.7059 84.9939 35.583 80.4867C38.6888 76.8525 43.4793 75.0253 46.3618 71.1678C48.4322 68.3863 49.2848 64.8333 49.6502 61.3412C50.0156 57.8492 49.975 54.3165 50.5028 50.8447C51.9034 41.5867 57.8712 33.5265 65.5848 28.6539C76.6883 21.6494 89.6187 28.6539 89.6187 28.6539C97.5556 33.1408 103.28 41.5867 104.701 50.8447C105.229 54.3165 105.188 57.8492 105.553 61.3412C105.919 64.8333 106.771 68.3863 108.842 71.1678C111.704 75.0253 116.495 76.8525 119.621 80.4867C123.477 84.9939 124.066 92.1811 121.021 97.3176H34.1824Z" fill="#231F20"/>
<path d="M76.932 119.691C86.7364 119.691 94.45 111.286 93.5771 101.5L91.3239 75.9795C91.3239 68.0208 84.8689 61.5646 76.9117 61.5646C68.9546 61.5646 62.4995 68.0208 62.4995 75.9795L60.2463 101.5C59.4141 111.266 67.1277 119.691 76.932 119.691Z" fill="#FECA38"/>
<path d="M93.3537 98.7997L91.3441 75.9591C91.3441 68.0005 84.889 61.5442 76.9318 61.5442C68.9747 61.5442 62.5196 68.0005 62.5196 75.9591V87.7144L93.3537 98.7997Z" fill="#231F20"/>
<path d="M101.494 75.6546H93.9831V60.6306H101.494C105.635 60.6306 109.004 64.0009 109.004 68.1426C109.004 72.3046 105.635 75.6546 101.494 75.6546Z" fill="#FECA38"/>
<path d="M76.9318 93.0134C89.8013 93.0134 100.235 82.5778 100.235 69.7058V50.9867C100.235 38.1148 89.8013 27.6792 76.9318 27.6792C64.0622 27.6792 53.6286 38.1148 53.6286 50.9867V69.7058C53.6286 82.5981 64.0622 93.0134 76.9318 93.0134Z" fill="#FECA38"/>
<path d="M53.0602 75.6546H60.5708V60.6306H53.0602C48.9192 60.6306 45.5496 64.0009 45.5496 68.1426C45.5496 72.3046 48.9192 75.6546 53.0602 75.6546Z" fill="#FECA38"/>
<path d="M104.641 67.2899C103.423 66.9651 102.164 67.6148 102.002 68.9345C101.84 70.1526 99.9312 70.1526 100.073 68.9345C100.398 66.3966 102.611 64.7521 105.149 65.4424C106.347 65.7469 105.839 67.6148 104.641 67.2899Z" fill="#231F20"/>
<path d="M48.9396 65.4424C51.4774 64.7521 53.6905 66.3966 54.0153 68.9345C54.1777 70.1526 52.249 70.1526 52.0865 68.9345C51.9241 67.6148 50.6653 66.9651 49.4472 67.2899C48.2493 67.6148 47.7417 65.7469 48.9396 65.4424Z" fill="#231F20"/>
<path d="M75.5722 73.5838C75.6128 73.5838 75.6737 73.6041 75.7143 73.6041H80.1606C80.6073 73.6041 80.9727 73.2387 80.9727 72.792C80.9727 72.3454 80.6073 71.9799 80.1606 71.9799H76.6482L77.6634 64.8536C77.7243 64.407 77.4198 63.9806 76.9731 63.94C76.5264 63.8791 76.1204 64.1836 76.0595 64.6303L74.9225 72.6905C74.8819 72.9138 74.9631 73.1574 75.1052 73.3402C75.2271 73.462 75.3895 73.5635 75.5722 73.5838Z" fill="#231F20"/>
<path d="M76.8714 79.431C76.9121 79.431 76.973 79.4513 77.0136 79.4513C79.186 79.4513 80.9726 77.685 80.9726 75.4923C80.9726 75.0456 80.6072 74.6802 80.1605 74.6802C79.7139 74.6802 79.3484 75.0456 79.3484 75.4923C79.3484 76.7713 78.3129 77.8068 77.0339 77.8068C76.5872 77.8068 76.2218 78.1722 76.2218 78.6189C76.2218 79.025 76.506 79.3701 76.8714 79.431Z" fill="#231F20"/>
<path d="M82.8398 58.4786C82.8601 58.4786 82.8804 58.4786 82.8804 58.4786L91.2857 59.5343C91.7324 59.5952 92.1385 59.2704 92.1994 58.8237C92.2603 58.3771 91.9354 57.9507 91.4888 57.9101L83.0834 56.8544C82.6368 56.7935 82.2307 57.1183 82.1698 57.565C82.1292 58.0116 82.4134 58.3974 82.8398 58.4786Z" fill="#231F20"/>
<path d="M59.8613 59.5343C59.9019 59.5343 59.9628 59.5546 60.0034 59.5546H68.4088C68.8554 59.5546 69.2209 59.1892 69.2209 58.7425C69.2209 58.2959 68.8554 57.9304 68.4088 57.9304H60.0034C59.5568 57.9304 59.1913 58.2959 59.1913 58.7425C59.2116 59.1486 59.4959 59.4734 59.8613 59.5343Z" fill="#231F20"/>
<path d="M70.9641 65.9096C70.9641 67.4729 69.6853 68.752 68.1223 68.752H62.1138C60.3681 68.752 58.9472 67.3308 58.9472 65.5848C58.9472 63.6357 60.6929 62.1333 62.6213 62.4582L68.5891 63.1078C69.9695 63.3312 70.9641 64.5087 70.9641 65.9096Z" fill="white"/>
<path d="M58.2574 65.6658C58.2574 67.7164 59.9222 69.4015 61.9931 69.4015C64.0437 69.4015 65.7288 67.7367 65.7288 65.6658C65.7288 63.6152 64.064 61.9301 61.9931 61.9301C59.9222 61.9301 58.2574 63.6152 58.2574 65.6658Z" fill="#231F20"/>
<path d="M82.6569 65.9094C82.6569 67.4727 83.936 68.7518 85.4993 68.7518H91.5089C93.2549 68.7518 94.6761 67.3306 94.6761 65.5845C94.6761 63.6355 92.9301 62.1331 91.0013 62.4579L85.0323 63.1076C83.672 63.3309 82.6569 64.5085 82.6569 65.9094Z" fill="white"/>
<path d="M89.6207 66.3765C89.6207 68.4271 87.9558 70.1122 85.885 70.1122C83.8344 70.1122 82.1493 68.4474 82.1493 66.3765C82.1493 64.3259 83.8141 62.6407 85.885 62.6407C87.9558 62.6407 89.6207 64.3056 89.6207 66.3765Z" fill="#231F20"/>
<path d="M76.9323 26.8875C53.0811 26.8875 51.6399 54.4383 51.6399 54.4383C56.877 54.4586 64.4688 51.3319 68.894 48.5099C73.3191 45.6878 75.9986 40.9776 76.5467 35.3334C77.724 40.5106 80.7891 45.2614 85.0316 48.449C89.2741 51.6365 101.413 55.2098 101.413 55.2098C101.413 55.2098 102.61 26.8875 76.9323 26.8875Z" fill="#231F20"/>
<path d="M90.6136 77.4209C84.0976 77.4209 78.7996 72.1219 78.7996 65.6047C78.7996 59.0876 84.0976 53.7886 90.6136 53.7886C97.1295 53.7886 102.428 59.0876 102.428 65.6047C102.428 72.1219 97.1295 77.4209 90.6136 77.4209ZM90.6136 55.8188C85.2141 55.8188 80.8295 60.2042 80.8295 65.6047C80.8295 71.0053 85.2141 75.3906 90.6136 75.3906C96.0131 75.3906 100.398 71.0053 100.398 65.6047C100.398 60.2042 96.0131 55.8188 90.6136 55.8188Z" fill="white"/>
<path d="M63.2913 77.4209C56.7753 77.4209 51.4773 72.1219 51.4773 65.6047C51.4773 59.0876 56.7753 53.7886 63.2913 53.7886C69.8072 53.7886 75.1052 59.0876 75.1052 65.6047C75.1052 72.1219 69.8072 77.4209 63.2913 77.4209ZM63.2913 55.8188C57.8917 55.8188 53.5072 60.2042 53.5072 65.6047C53.5072 71.0053 57.8917 75.3906 63.2913 75.3906C68.6908 75.3906 73.0753 71.0053 73.0753 65.6047C73.0753 60.2042 68.6908 55.8188 63.2913 55.8188Z" fill="white"/>
<path d="M74.0902 64.9347C73.6841 64.9347 73.2984 64.6911 73.136 64.285C72.9329 63.7571 73.1969 63.1684 73.7247 62.9856C76.3641 61.9705 80.0389 62.9044 80.2013 62.945C80.7495 63.0872 81.0743 63.6353 80.9322 64.1835C80.7901 64.7317 80.2419 65.0565 79.6937 64.9144C79.6531 64.9144 76.4859 64.1023 74.4556 64.8738C74.3338 64.9144 74.212 64.9347 74.0902 64.9347Z" fill="white"/>
<path d="M103.097 75.1066C104.377 77.4211 105.189 79.9995 105.453 82.6389C105.534 83.5322 105.574 84.4864 105.229 85.3188C104.884 86.1513 104.092 86.8618 103.199 86.8618C102.407 86.8618 101.697 86.3137 101.311 85.6234C100.925 84.9331 100.803 84.121 100.763 83.3495C100.6 80.5274 101.554 77.482 103.097 75.1066Z" fill="#FF90A5"/>
<path d="M101.493 75.147C101.514 76.0404 102.265 76.7307 103.138 76.7104C104.031 76.6901 104.722 75.9389 104.701 75.0658C104.681 74.1725 103.93 73.4822 103.057 73.5025C102.163 73.5228 101.473 74.274 101.493 75.147Z" fill="#FF90A5"/>
<path d="M51.6203 75.1066C52.8994 77.4211 53.7115 79.9995 53.9551 82.6389C54.0364 83.5322 54.077 84.4864 53.7318 85.3188C53.3867 86.1513 52.5949 86.8618 51.7015 86.8618C50.9097 86.8618 50.1991 86.3137 49.8133 85.6234C49.4276 84.9331 49.3058 84.121 49.2652 83.3495C49.1231 80.5274 50.0773 77.482 51.6203 75.1066Z" fill="#FF90A5"/>
<path d="M50.0153 75.147C50.0356 76.0404 50.7868 76.7307 51.6598 76.7104C52.5531 76.6901 53.2434 75.9389 53.2231 75.0658C53.2028 74.1725 52.4516 73.4822 51.5786 73.5025C50.6853 73.5228 49.995 74.274 50.0153 75.147Z" fill="#FF90A5"/>
</svg>
