<svg width="112" height="133" viewBox="0 0 112 133" fill="none" xmlns="http://www.w3.org/2000/svg">
<path d="M98.7854 114.475C98.9821 114.669 99.2987 114.666 99.4924 114.47L102.649 111.263C102.843 111.066 102.841 110.749 102.644 110.556C102.447 110.362 102.13 110.364 101.937 110.561L99.1306 113.412L96.2801 110.606C96.0833 110.412 95.7667 110.414 95.573 110.611C95.3792 110.808 95.3817 111.124 95.5785 111.318L98.7854 114.475ZM0.657742 27.2306C46.9235 27.5949 98.2103 59.8465 98.6361 114.123L99.6361 114.115C99.2045 59.0954 47.2566 26.5975 0.665614 26.2306L0.657742 27.2306Z" fill="#676767"/>
</svg>
