<svg width="450" height="420" viewBox="0 0 450 420" fill="none" xmlns="http://www.w3.org/2000/svg">
<path d="M65 70C71.0002 86.2152 83.7848 98.9998 100 105C83.7848 111 71.0002 123.785 65 140C58.9998 123.785 46.2152 111 30 105C46.2152 98.9998 58.9998 86.2152 65 70Z" fill="#FE7167"/>
<path d="M135 70C141 86.2152 153.785 98.9998 170 105C153.785 111 141 123.785 135 140C129 123.785 116.215 111 100 105C116.215 98.9998 129 86.2152 135 70Z" fill="#236967"/>
<path d="M135 0C141 16.2152 153.785 28.9998 170 35C153.785 41.0002 141 53.7848 135 70C129 53.7848 116.215 41.0002 100 35C116.215 28.9998 129 16.2152 135 0Z" fill="#FFCC1A"/>
<path fill-rule="evenodd" clip-rule="evenodd" d="M350.833 350H339.166V329.084L324.377 343.873L316.127 335.624L330.917 320.834H310V309.167H330.917L316.125 294.376L324.375 286.126L339.166 300.917V280H350.833V300.918L365.625 286.126L373.875 294.376L359.083 309.167H380V320.834H359.083L373.873 335.624L365.623 343.873L350.833 329.083V350Z" fill="#236967"/>
<path fill-rule="evenodd" clip-rule="evenodd" d="M350.833 420H339.166V399.084L324.377 413.873L316.127 405.624L330.917 390.834H310V379.167H330.917L316.125 364.376L324.375 356.126L339.166 370.917V350H350.833V370.918L365.625 356.126L373.875 364.376L359.083 379.167H380V390.834H359.083L373.873 405.624L365.623 413.873L350.833 399.083V420Z" fill="#FE7167"/>
<g clip-path="url(#clip0_3402_3532)">
<rect width="140" height="140" transform="matrix(-1 0 0 1 310 0)" fill="#FDE9D4"/>
<circle r="19.9598" transform="matrix(-1 0 0 1 290.04 144)" fill="#FE7167"/>
<circle r="19.9598" transform="matrix(-1 0 0 1 256.305 144)" fill="#FE7167"/>
<circle r="19.9598" transform="matrix(-1 0 0 1 222.57 144)" fill="#FE7167"/>
<circle r="19.9598" transform="matrix(-1 0 0 1 189.959 144)" fill="#FE7167"/>
<path d="M310 140C310 121.435 302.625 103.63 289.497 90.5023C276.37 77.3747 258.565 69.9998 240 69.9998C221.435 69.9998 203.63 77.3747 190.503 90.5023C177.375 103.63 170 121.435 170 140H182.892C182.892 124.854 188.908 110.328 199.618 99.618C210.328 88.9081 224.854 82.8913 240 82.8913C255.146 82.8913 269.672 88.9081 280.382 99.618C291.092 110.328 297.108 124.854 297.108 140H310Z" fill="#FE7167"/>
<circle r="20" transform="matrix(-1 0 0 1 240 33.9998)" fill="#FC8B4C"/>
</g>
<rect x="310" y="0.000244141" width="140" height="140" fill="#236967"/>
<path d="M380 78L413 140H347L380 78Z" fill="#FC8B4C"/>
<path d="M380 66C383.429 75.2658 390.734 82.5713 400 86C390.734 89.4287 383.429 96.7342 380 106C376.571 96.7342 369.266 89.4287 360 86C369.266 82.5713 376.571 75.2658 380 66Z" fill="#FDE9D4"/>
<path d="M380 0C386 16.2152 398.785 28.9998 415 35C398.785 41.0002 386 53.7848 380 70C374 53.7848 361.215 41.0002 345 35C361.215 28.9998 374 16.2152 380 0Z" fill="#FDE9D4"/>
<rect width="140" height="140" transform="matrix(1 0 0 -1 310 280)" fill="#FE7167"/>
<path d="M380 185L350 235H410L380 185Z" fill="#FDE9D4"/>
<rect width="26" height="45" transform="matrix(1 0 0 -1 367 280)" fill="black"/>
<circle r="10" transform="matrix(1 0 0 -1 380 160)" fill="black"/>
<circle r="10" transform="matrix(1 0 0 -1 410 160)" fill="black"/>
<circle r="10" transform="matrix(1 0 0 -1 350 160)" fill="black"/>
<circle cx="415" cy="315" r="35" fill="#FFCC1A"/>
<circle cx="415" cy="385" r="30" stroke="#038192" stroke-width="10"/>
<circle cx="35" cy="255" r="25" fill="#FC8B4C"/>
<circle cx="9" cy="299" r="5" fill="#FE7167"/>
<circle cx="16" cy="206" r="6" fill="#236967"/>
<circle cx="27" cy="329" r="3" fill="#038192"/>
<circle cx="3" cy="172" r="3" fill="#FFCC1A"/>
<defs>
<clipPath id="clip0_3402_3532">
<rect width="140" height="140" fill="white" transform="matrix(-1 0 0 1 310 0)"/>
</clipPath>
</defs>
</svg>
