<svg width="232" height="380" viewBox="0 0 232 380" fill="none" xmlns="http://www.w3.org/2000/svg">
<path d="M180.328 342.773C177.349 349.141 170.217 352.43 164.022 355.313C153.371 360.293 142.127 363.699 138.146 375.558L225.238 375.571L225.04 342.773H180.328Z" fill="#B60D00"/>
<path d="M225.248 379.873H138.155V375.562H225.248V379.873Z" fill="#231F20"/>
<path d="M161.266 361.76C161.095 361.76 160.923 361.668 160.844 361.511L158.564 357.095C158.445 356.859 158.537 356.584 158.775 356.466C159.012 356.348 159.289 356.44 159.407 356.676L161.688 361.092C161.806 361.328 161.714 361.603 161.477 361.721C161.411 361.747 161.345 361.76 161.266 361.76Z" fill="#231F20"/>
<path d="M166.249 360.24C166.091 360.24 165.932 360.162 165.84 360.017L162.927 355.248C162.795 355.025 162.861 354.737 163.085 354.606C163.309 354.475 163.599 354.54 163.731 354.763L166.644 359.533C166.776 359.755 166.71 360.044 166.486 360.175C166.42 360.227 166.328 360.24 166.249 360.24Z" fill="#231F20"/>
<path d="M170.81 357.855C170.665 357.855 170.506 357.79 170.414 357.646L167.395 353.23C167.251 353.02 167.303 352.719 167.527 352.575C167.738 352.43 168.041 352.483 168.186 352.706L171.205 357.122C171.35 357.331 171.297 357.633 171.073 357.777C170.994 357.829 170.902 357.855 170.81 357.855Z" fill="#231F20"/>
<path d="M175.608 355.248C175.463 355.248 175.318 355.182 175.226 355.051L172.194 350.792C172.049 350.583 172.088 350.281 172.312 350.137C172.523 349.993 172.826 350.032 172.971 350.255L176.003 354.514C176.148 354.724 176.109 355.025 175.885 355.169C175.806 355.208 175.713 355.248 175.608 355.248Z" fill="#231F20"/>
<path d="M204.502 376.501C204.265 376.501 204.054 376.318 204.028 376.082C203.54 371.103 204.753 367.054 207.626 364.04C213.664 357.724 224.789 358.157 225.264 358.17C225.527 358.183 225.725 358.406 225.712 358.655C225.699 358.917 225.514 359.113 225.224 359.1C225.119 359.087 214.046 358.668 208.312 364.682C205.623 367.486 204.502 371.299 204.964 375.99C204.99 376.252 204.806 376.475 204.542 376.501C204.529 376.501 204.516 376.501 204.502 376.501Z" fill="#231F20"/>
<path d="M215.325 352.09C215.325 349.037 212.82 346.547 209.749 346.547C206.677 346.547 204.173 349.037 204.173 352.09C204.173 355.143 206.677 357.633 209.749 357.633C212.82 357.633 215.325 355.143 215.325 352.09ZM214.323 352.09C214.323 354.606 212.267 356.637 209.749 356.637C207.231 356.637 205.175 354.593 205.175 352.09C205.175 349.574 207.231 347.543 209.749 347.543C212.267 347.543 214.323 349.574 214.323 352.09Z" fill="#231F20"/>
<path d="M152.83 376.069C152.553 376.069 152.329 375.846 152.329 375.571V360.476C152.329 360.201 152.553 359.978 152.83 359.978C153.106 359.978 153.331 360.201 153.331 360.476V375.571C153.317 375.846 153.093 376.069 152.83 376.069Z" fill="#231F20"/>
<path d="M95.7655 218.749H140.887L134.032 286.756H89.135L95.7655 218.749Z" fill="#FFBFB1"/>
<path d="M83.6645 342.773L89.135 286.756H134.032L128.39 342.773H83.6645Z" fill="white"/>
<path d="M164.35 217.661H207.903L217.368 286.756H173.169L164.35 217.661Z" fill="#FFBFB1"/>
<path d="M180.327 342.773L173.169 286.756H217.368L225.053 342.773H180.327Z" fill="white"/>
<path d="M26.205 87.1378C27.7209 77.5854 36.7505 71.0599 46.36 72.5668L95.7918 80.6516L104.083 68.282L132.516 89.0509L118.847 109.414C115.551 114.328 110.015 117.21 104.189 117.21C103.279 117.21 102.356 117.145 101.434 117.001L40.85 107.173C31.2405 105.666 24.6759 96.6903 26.205 87.1378Z" fill="#FFBFB1"/>
<path d="M120.073 44.4468C125.477 36.4013 136.418 34.2261 144.512 39.5855C152.606 44.9579 154.794 55.8337 149.402 63.8793L132.516 89.051L104.083 68.282L120.073 44.4468Z" fill="#B60D00"/>
<path d="M83.6655 342.773C80.6864 349.141 73.555 352.43 67.3596 355.313C56.7086 360.293 45.4646 363.699 41.4836 375.558L128.576 375.571L128.378 342.773H83.6655Z" fill="#B60D00"/>
<path d="M128.582 379.873H41.4899V375.562H128.582V379.873Z" fill="#231F20"/>
<path d="M64.6037 361.76C64.4324 361.76 64.261 361.668 64.1819 361.511L61.9015 357.095C61.7828 356.859 61.8751 356.584 62.1124 356.466C62.3496 356.348 62.6265 356.44 62.7451 356.676L65.0255 361.092C65.1442 361.328 65.0519 361.603 64.8146 361.721C64.7487 361.747 64.6828 361.76 64.6037 361.76Z" fill="#231F20"/>
<path d="M69.5865 360.24C69.4283 360.24 69.2702 360.162 69.1779 360.017L66.2647 355.248C66.1329 355.025 66.1988 354.737 66.4229 354.606C66.647 354.475 66.937 354.54 67.0688 354.763L69.982 359.533C70.1138 359.755 70.0479 360.044 69.8238 360.175C69.7579 360.227 69.6656 360.24 69.5865 360.24Z" fill="#231F20"/>
<path d="M74.1475 357.855C74.0025 357.855 73.8443 357.79 73.752 357.646L70.7334 353.23C70.5884 353.02 70.6411 352.719 70.8652 352.575C71.0761 352.43 71.3793 352.483 71.5243 352.706L74.5429 357.122C74.6879 357.331 74.6352 357.633 74.4111 357.777C74.332 357.829 74.2397 357.855 74.1475 357.855Z" fill="#231F20"/>
<path d="M78.9456 355.248C78.8006 355.248 78.6556 355.182 78.5633 355.051L75.5315 350.792C75.3865 350.583 75.4261 350.281 75.6502 350.137C75.8611 349.993 76.1642 350.032 76.3092 350.255L79.3411 354.514C79.4861 354.724 79.4465 355.025 79.2224 355.169C79.1433 355.208 79.0379 355.248 78.9456 355.248Z" fill="#231F20"/>
<path d="M107.827 376.501C107.59 376.501 107.379 376.318 107.352 376.082C106.865 371.103 108.077 367.054 110.951 364.04C116.988 357.724 128.114 358.157 128.588 358.17C128.852 358.183 129.05 358.406 129.036 358.655C129.023 358.917 128.839 359.113 128.549 359.1C128.443 359.087 117.371 358.668 111.637 364.682C108.947 367.486 107.827 371.299 108.288 375.99C108.315 376.252 108.13 376.475 107.867 376.501C107.867 376.501 107.853 376.501 107.827 376.501Z" fill="#231F20"/>
<path d="M118.649 352.09C118.649 349.037 116.145 346.547 113.073 346.547C110.002 346.547 107.497 349.037 107.497 352.09C107.497 355.143 110.002 357.633 113.073 357.633C116.158 357.633 118.649 355.143 118.649 352.09ZM117.661 352.09C117.661 354.606 115.604 356.637 113.087 356.637C110.556 356.637 108.512 354.593 108.512 352.09C108.512 349.574 110.569 347.543 113.087 347.543C115.604 347.53 117.661 349.574 117.661 352.09Z" fill="#231F20"/>
<path d="M56.1543 376.069C55.8774 376.069 55.6534 375.846 55.6534 375.571V360.476C55.6534 360.201 55.8774 359.978 56.1543 359.978C56.4311 359.978 56.6552 360.201 56.6552 360.476V375.571C56.6552 375.846 56.4311 376.069 56.1543 376.069Z" fill="#231F20"/>
<path d="M5.37778 106.452C6.53778 108.837 9.26642 110.121 11.9292 109.401C28.5119 104.867 48.9965 96.6641 49.8533 96.3234C52.7269 95.1703 54.1242 91.9075 52.9642 89.051C51.8174 86.2075 48.5219 84.8055 45.6483 85.9586C45.4374 86.0372 24.9001 94.2662 8.95007 98.6296C5.95779 99.442 4.19141 102.521 5.02187 105.496C5.10096 105.836 5.2196 106.151 5.37778 106.452Z" fill="#FFBFB1"/>
<path d="M2.95238 95.013C3.92783 97.0047 6.05011 98.3151 8.40966 98.1578C18.296 97.4633 28.4724 95.524 37.0669 92.6675C51.1715 87.9895 51.6988 84.4254 51.9888 82.5123C52.4106 79.7082 50.7892 77.0351 48.0738 76.013C45.2265 74.9385 42.0365 76.3144 40.8765 79.0923C36.566 81.4116 23.7006 85.8799 7.61874 87.0068C4.52101 87.2164 2.18784 89.8895 2.39874 92.9688C2.45147 93.7026 2.6492 94.3971 2.95238 95.013Z" fill="#FFBFB1"/>
<path d="M3.25556 82.853C3.99374 84.373 5.41738 85.5392 7.21011 85.9061C16.9119 87.8586 27.1937 88.5137 36.1837 87.7537C50.631 86.5482 52.226 82.9317 52.9115 81.3986C54.0715 78.791 53.241 75.7641 50.8815 74.0475C48.3769 72.2261 44.8574 72.7634 43.0251 75.2399C42.9856 75.2923 42.946 75.3448 42.9065 75.4103C38.5828 76.6027 25.8888 78.2537 9.43784 74.9517C6.39284 74.3358 3.42693 76.3013 2.80738 79.3282C2.55693 80.5599 2.74147 81.7917 3.25556 82.853Z" fill="#FFBFB1"/>
<path d="M21.1169 72.5668C21.8551 74.0868 23.2919 75.2662 25.0846 75.6199C38.6619 78.2931 42.3924 82.342 42.4319 82.3813C42.3001 82.2372 42.2474 82.1455 42.2474 82.1455L51.3956 75.6462C50.5256 74.4275 45.266 68.2034 27.2597 64.6524C24.2147 64.0496 21.2487 66.0151 20.6556 69.042C20.4051 70.2868 20.6028 71.5055 21.1169 72.5668Z" fill="#FFBFB1"/>
<path d="M15.7519 114.865C15.9496 115.271 16.2001 115.651 16.4901 116.005C18.4805 118.376 22.0264 118.704 24.4123 116.725C35.1423 107.854 52.4237 104.395 52.5951 104.356C55.6401 103.766 57.6305 100.818 57.0242 97.7909C56.4178 94.764 53.4651 92.7854 50.4201 93.3882C49.6028 93.5454 30.1201 97.4502 17.2151 108.13C15.1982 109.82 14.6578 112.611 15.7519 114.865Z" fill="#FFBFB1"/>
<path d="M17.7292 107.33C22.2374 105.823 26.7324 104.317 31.2406 102.797C31.9919 102.548 32.5456 103.661 31.781 103.923C27.2728 105.43 22.7778 106.937 18.2696 108.457C17.5183 108.706 16.9646 107.592 17.7292 107.33Z" fill="#231F20"/>
<path d="M10.6638 98.0138C15.3169 97.2145 19.9701 96.4283 24.6233 95.629C25.4142 95.4979 25.6515 96.7166 24.8474 96.8476C20.1942 97.6469 15.541 98.4331 10.8878 99.2324C10.0969 99.3766 9.85967 98.1448 10.6638 98.0138Z" fill="#231F20"/>
<path d="M9.88605 85.7227C13.722 85.4606 17.5447 85.1985 21.3806 84.9365C22.1715 84.884 22.4088 86.1027 21.6047 86.1551C17.7688 86.4172 13.946 86.6792 10.1101 86.9413C9.31923 87.0068 9.08196 85.7751 9.88605 85.7227Z" fill="#231F20"/>
<path d="M27.8528 67.5482C28.2482 68.3606 29.0259 68.9765 30.0014 69.1337L31.2932 69.3434C31.715 69.4089 32.1237 69.3041 32.4664 69.0682C32.8091 68.8193 33.0332 68.4655 33.0991 68.0462L33.3891 66.2379C33.4418 65.8972 33.2178 65.5827 32.875 65.5303C32.5323 65.4779 32.2159 65.7138 32.1632 66.0413L31.8732 67.8496C31.86 67.9413 31.8205 68.0068 31.7414 68.0593C31.6755 68.1117 31.5832 68.1248 31.5041 68.1117L30.2123 67.902C29.3159 67.7579 28.7096 66.9324 28.8546 66.0413C28.8941 65.7924 28.9864 65.5696 29.1314 65.3731C29.3291 65.0848 29.25 64.7048 28.9732 64.5082C28.6832 64.3117 28.301 64.3772 28.1032 64.6655C27.8528 65.0193 27.6946 65.4255 27.6155 65.8579C27.4969 66.4475 27.6023 67.0372 27.8528 67.5482Z" fill="#231F20"/>
<path d="M182.014 97.8435C173.499 95.9828 164.601 98.0138 157.746 103.373C150.892 108.732 148.981 116.857 148.796 125.518L159.486 221.147L219.226 222.051L200.798 130.589C195.433 113.528 188.355 101.041 173.815 96.5986L182.014 97.8435Z" fill="#C291F3"/>
<path d="M131.818 97.1752C140.333 95.3145 143.141 98.0138 149.995 103.373C156.85 108.732 155.229 116.857 155.426 125.518L149.336 221.606L87.25 222.51L106.93 130.576C111.597 116.188 117.291 101.617 131.818 97.1752Z" fill="#C291F3"/>
<path d="M200.785 130.576L186.259 49.3477C184.782 41.3677 177.783 35.5759 169.623 35.5759H135.285C126.861 35.5759 119.717 41.7345 118.53 50.029L106.917 130.563H200.785V130.576Z" fill="#B60D00"/>
<path d="M124.133 131.31C123.645 138.556 122.841 146.667 117.094 151.869C112.796 155.748 106.324 156.547 101.763 152.681C101.275 152.275 101.974 151.581 102.462 151.987C107.893 156.586 115.235 153.612 118.847 148.331C122.261 143.339 122.749 137.154 123.144 131.31C123.184 130.681 124.172 130.681 124.133 131.31Z" fill="#231F20"/>
<path d="M148.441 13.3525C148.309 15.0559 148.309 15.9338 148.85 17.5456C149.39 19.1573 149.68 20.3366 150.076 22.0007C150.458 23.6649 150.55 25.4338 149.944 27.0325C149.337 28.6311 147.94 29.9938 146.24 30.2166L144.144 11.6621L148.441 13.3525Z" fill="#231F20"/>
<path d="M139.977 48.6008C144.591 48.6008 148.809 44.6173 148.414 40.0442L146.687 22.1187C146.687 18.3973 143.721 17.1394 139.977 17.1394C136.234 17.1394 133.202 20.1532 133.202 23.8746L131.093 40.2146C130.684 44.7746 135.364 48.6008 139.977 48.6008Z" fill="#FFBFB1"/>
<path d="M131.686 35.5891L143.616 27.9891C143.616 24.2677 143.721 17.1394 139.977 17.1394C136.234 17.1394 133.202 20.1532 133.202 23.8746L132.516 28.8932L131.686 35.5891Z" fill="#231F20"/>
<path d="M147.728 22.4986L144.222 22.931L143.352 15.9731L146.858 15.5407C148.796 15.3048 150.562 16.6676 150.8 18.5938C151.037 20.5069 149.666 22.2628 147.728 22.4986Z" fill="#FFBFB1"/>
<path d="M137.288 31.9725C143.299 31.2256 147.557 25.7876 146.806 19.8125L145.712 11.1249C144.96 5.1497 139.49 0.917283 133.479 1.66418C127.468 2.41108 123.21 7.84901 123.962 13.8242L125.056 22.5118C125.807 28.4869 131.291 32.7194 137.288 31.9725Z" fill="#FFBFB1"/>
<path d="M148.717 18.4366C148.137 18.358 147.583 18.7249 147.583 19.3538C147.583 19.9173 146.687 20.0483 146.687 19.4587C146.687 18.2663 147.623 17.3752 148.849 17.5456C149.429 17.6242 149.297 18.5152 148.717 18.4366Z" fill="#231F20"/>
<path d="M133.4 23.3111C133.426 23.3111 133.452 23.3111 133.466 23.3111L135.535 23.0491C135.746 23.0229 135.891 22.8263 135.865 22.6298C135.838 22.4201 135.641 22.276 135.443 22.3022L133.808 22.4987L133.861 19.1311C133.861 18.9215 133.69 18.738 133.479 18.738C133.268 18.738 133.097 18.9084 133.083 19.118L133.017 22.918C133.017 23.0229 133.057 23.1408 133.149 23.2063C133.228 23.2718 133.321 23.298 133.4 23.3111Z" fill="#231F20"/>
<path d="M135.469 25.8007C135.496 25.8007 135.522 25.8007 135.535 25.8007C136.55 25.6697 137.275 24.7525 137.143 23.7435C137.117 23.5338 136.919 23.3897 136.722 23.4159C136.511 23.4421 136.366 23.6387 136.392 23.8352C136.471 24.4249 136.036 24.9752 135.443 25.0407C135.232 25.0669 135.087 25.2635 135.113 25.4732C135.127 25.6566 135.285 25.7876 135.469 25.8007Z" fill="#231F20"/>
<path d="M136.287 15.829C136.3 15.829 136.3 15.829 136.313 15.829H140.294C140.505 15.829 140.676 15.6587 140.676 15.449C140.676 15.2394 140.505 15.0559 140.294 15.069H136.313C136.102 15.069 135.931 15.2394 135.931 15.449C135.918 15.6456 136.089 15.8159 136.287 15.829Z" fill="#231F20"/>
<path d="M126.479 17.5456C126.506 17.5456 126.532 17.5456 126.545 17.5456L130.473 17.0608C130.684 17.0346 130.829 16.838 130.803 16.6415C130.777 16.4318 130.579 16.2877 130.381 16.3139L126.453 16.7987C126.242 16.8249 126.097 17.0215 126.123 17.218C126.15 17.4015 126.308 17.5325 126.479 17.5456Z" fill="#231F20"/>
<path d="M132.042 19.8518C132.134 20.5856 131.607 21.2408 130.882 21.3325L128.074 21.6863C127.257 21.7911 126.506 21.2146 126.413 20.4022C126.295 19.498 127.033 18.6987 127.956 18.738L130.776 18.6987C131.409 18.7118 131.95 19.2098 132.042 19.8518Z" fill="white"/>
<path d="M126.479 20.8477C126.598 21.8042 127.481 22.4725 128.43 22.3546C129.392 22.2367 130.078 21.3587 129.946 20.4153C129.827 19.4587 128.944 18.7905 127.995 18.9084C127.046 19.0263 126.361 19.8911 126.479 20.8477Z" fill="#231F20"/>
<path d="M135.944 19.38C136.036 20.1138 136.708 20.6249 137.433 20.5331L140.241 20.1793C141.058 20.0745 141.638 19.3407 141.533 18.5283C141.414 17.6242 140.518 17.0345 139.635 17.2835L136.893 17.9255C136.26 18.109 135.865 18.7249 135.944 19.38Z" fill="white"/>
<path d="M139.608 19.5504C139.727 20.5069 139.042 21.3718 138.092 21.4897C137.13 21.6076 136.26 20.9262 136.142 19.9828C136.023 19.0262 136.708 18.1614 137.657 18.0435C138.607 17.9125 139.49 18.5938 139.608 19.5504Z" fill="#231F20"/>
<path d="M146.476 15.5801C145.395 15.5932 143.958 15.1084 143.22 14.3222C142.482 13.536 142.1 12.4353 142.179 11.3739L146.476 11.6622V15.5801Z" fill="#231F20"/>
<path d="M14.6579 118.324C14.9083 120.958 17.0306 123.12 19.7724 123.356C36.9088 124.837 58.9751 124.221 59.911 124.194C63.0088 124.103 65.4606 121.534 65.3683 118.442C65.2892 115.376 62.6924 112.925 59.5815 113.017C59.3574 113.03 37.212 113.646 20.7479 112.218C17.6501 111.956 14.9215 114.223 14.6579 117.302C14.6315 117.643 14.6315 117.983 14.6579 118.324Z" fill="#FFBFB1"/>
<path d="M16.3845 106.754C16.5955 108.968 18.1245 110.921 20.405 111.589C29.9223 114.354 40.1382 116.044 49.1941 116.345C64.05 116.83 65.79 113.672 66.7259 111.982C68.0968 109.505 67.5168 106.439 65.3286 104.539C63.035 102.547 59.5682 102.731 57.4986 104.945C52.6477 105.627 39.0309 105.378 23.5423 100.87C20.5632 100.005 17.4391 101.696 16.5691 104.657C16.3845 105.352 16.3186 106.072 16.3845 106.754Z" fill="#FFBFB1"/>
<path d="M20.9323 95.4455C21.0905 97.1227 22.0133 98.7082 23.5687 99.6648C31.9787 104.841 41.4037 109.008 50.0905 111.405C64.0632 115.258 66.8182 112.428 68.0046 111.222C70.0082 109.178 70.2851 106.046 68.6769 103.622C66.9632 101.041 63.4832 100.333 60.8864 102.037C60.8337 102.076 60.7678 102.115 60.7151 102.154C56.2464 101.774 43.7633 98.9441 29.5005 90.1517C26.8642 88.5269 23.3973 89.3393 21.7628 91.96C21.0773 93.0606 20.8137 94.2793 20.9323 95.4455Z" fill="#FFBFB1"/>
<path d="M41.2587 91.9731C41.4169 93.6634 42.3528 95.2489 43.9082 96.2055C55.6928 103.399 57.7887 108.483 57.815 108.536C57.7491 108.352 57.7228 108.248 57.7228 108.248L68.5714 105.312C68.176 103.871 65.421 96.2186 49.7873 86.6662C47.1378 85.0544 43.6841 85.8799 42.0496 88.5006C41.4037 89.6013 41.1532 90.8068 41.2587 91.9731Z" fill="#FFBFB1"/>
<path d="M21.4596 129.79C21.4992 130.235 21.6046 130.681 21.7496 131.113C22.7778 134.022 25.9942 135.555 28.9205 134.52C42.076 129.908 59.5023 132.633 59.6737 132.659C62.7451 133.157 65.6319 131.087 66.1196 128.034C66.6073 124.981 64.5378 122.111 61.4664 121.626C60.636 121.495 41.0083 118.429 25.1769 123.972C22.6987 124.863 21.2092 127.3 21.4596 129.79Z" fill="#FFBFB1"/>
<path d="M25.9415 123.408C30.6869 123.552 35.4456 123.683 40.191 123.828C40.9819 123.854 41.1137 125.085 40.3096 125.072C35.5642 124.928 30.8056 124.797 26.0601 124.653C25.2692 124.627 25.1374 123.382 25.9415 123.408Z" fill="#231F20"/>
<path d="M22.5668 112.231C27.2068 113.096 31.8468 113.961 36.4868 114.826C37.2777 114.97 37.0668 116.201 36.2759 116.057C31.6359 115.192 26.9959 114.328 22.3559 113.463C21.565 113.306 21.7759 112.087 22.5668 112.231Z" fill="#231F20"/>
<path d="M26.1392 100.438C29.8169 101.512 33.5078 102.6 37.1855 103.674C37.9501 103.897 37.7391 105.129 36.9746 104.906C33.2969 103.832 29.606 102.744 25.9283 101.67C25.1637 101.447 25.3746 100.215 26.1392 100.438Z" fill="#231F20"/>
<path d="M54.8755 101.329C50.8419 100.661 46.9005 99.6648 43.0383 98.3282C42.2737 98.0662 42.801 96.9393 43.5655 97.2013C47.3224 98.4986 51.1583 99.4551 55.0864 100.097C55.8774 100.241 55.6664 101.46 54.8755 101.329Z" fill="#231F20"/>
<path d="M24.2015 129.698C24.2146 129.868 24.2542 130.039 24.2937 130.209C24.7287 131.729 26.3237 132.62 27.8528 132.201L29.1051 131.847C29.9487 131.611 30.4365 130.746 30.1992 129.908L29.4874 127.405C29.2501 126.566 28.3801 126.081 27.5365 126.317L26.2842 126.671C25.546 126.881 24.9264 127.365 24.5442 128.034C24.2674 128.545 24.1355 129.121 24.2015 129.698ZM28.9996 130.301C29.0128 130.458 28.9206 130.602 28.7624 130.641L27.5101 130.995C26.6401 131.231 25.7437 130.733 25.4933 129.868C25.3746 129.449 25.4274 129.016 25.6383 128.636C25.8492 128.256 26.2051 127.981 26.6269 127.863L27.8792 127.51C27.9583 127.483 28.0505 127.496 28.1296 127.536C28.2087 127.575 28.2615 127.654 28.2878 127.732L28.9996 130.235C28.9996 130.261 28.9996 130.274 28.9996 130.301Z" fill="#231F20"/>
<path d="M17.7555 118.128C17.8082 118.704 18.0323 119.241 18.4146 119.687C18.9155 120.276 19.6009 120.63 20.3787 120.696L21.6836 120.814C22.1055 120.853 22.5141 120.722 22.8305 120.46C23.16 120.185 23.3577 119.818 23.3841 119.399L23.6214 116.804C23.7005 115.939 23.0546 115.179 22.1846 115.101L20.8796 114.983C20.115 114.917 19.3637 115.153 18.7705 115.638C18.1773 116.136 17.8214 116.817 17.7555 117.59C17.7423 117.774 17.7423 117.957 17.7555 118.128ZM22.3691 116.634C22.3691 116.647 22.3691 116.673 22.3691 116.699L22.1318 119.294C22.1187 119.385 22.0791 119.464 22.0132 119.516C21.9473 119.569 21.855 119.595 21.7759 119.595L20.4709 119.477C20.0359 119.438 19.6405 119.241 19.3637 118.901C19.0868 118.573 18.955 118.141 18.9946 117.721C19.0341 117.289 19.2318 116.896 19.5746 116.621C19.9041 116.345 20.3391 116.214 20.7609 116.254L22.0659 116.372C22.2373 116.359 22.3559 116.49 22.3691 116.634Z" fill="#231F20"/>
<path d="M18.9945 106.4C19.0472 106.976 19.2713 107.514 19.6536 107.959C20.1545 108.549 20.84 108.903 21.6177 108.968L22.9227 109.086C23.3445 109.125 23.7532 108.994 24.0695 108.732C24.3991 108.457 24.5968 108.09 24.6232 107.671L24.8604 105.09C24.9395 104.225 24.2936 103.465 23.4236 103.386L22.1186 103.268C21.3541 103.203 20.6027 103.439 20.0095 103.923C19.4163 104.421 19.0604 105.103 18.9945 105.876C18.9813 106.046 18.9813 106.23 18.9945 106.4ZM23.6082 104.919C23.6082 104.945 23.6082 104.959 23.6082 104.985L23.3709 107.566C23.3577 107.658 23.3182 107.736 23.2523 107.789C23.1864 107.841 23.0941 107.868 23.015 107.868L21.71 107.75C21.275 107.71 20.8795 107.514 20.6027 107.173C20.3259 106.845 20.1941 106.413 20.2336 105.994C20.2732 105.561 20.4709 105.168 20.8136 104.893C21.1432 104.618 21.5782 104.487 22 104.526L23.305 104.644C23.4764 104.631 23.595 104.762 23.6082 104.919Z" fill="#231F20"/>
<path d="M23.8323 95.0654C23.9378 96.1923 24.7287 97.2013 25.8755 97.542L27.1277 97.9089C27.5364 98.0268 27.9582 97.9875 28.3273 97.7909C28.6964 97.5944 28.9732 97.2668 29.0918 96.8606L29.8432 94.371C30.0936 93.5454 29.6191 92.6675 28.7755 92.4185L27.5232 92.0516C26.785 91.8289 26.0073 91.9075 25.3219 92.2744C24.6496 92.6413 24.1487 93.2441 23.9246 93.9779C23.8323 94.3447 23.8059 94.7116 23.8323 95.0654ZM28.6568 93.8861C28.6568 93.9254 28.6568 93.9647 28.6436 94.0041L27.8923 96.4937C27.8659 96.5723 27.8132 96.651 27.7341 96.6903C27.655 96.7296 27.5759 96.7427 27.4837 96.7165L26.2314 96.3496C25.3746 96.1006 24.8737 95.1965 25.1373 94.3316C25.2559 93.9123 25.5459 93.5716 25.9282 93.362C26.3105 93.1523 26.7587 93.113 27.1673 93.231L28.4196 93.5979C28.5514 93.6503 28.6437 93.7682 28.6568 93.8861Z" fill="#231F20"/>
<path d="M49.3391 89.6013C49.4314 90.5054 49.9455 91.3571 50.8023 91.8288L51.936 92.4709C52.305 92.6806 52.7269 92.733 53.1355 92.6151C53.5441 92.4971 53.8737 92.2351 54.0846 91.8682L54.9942 90.2695C55.1655 89.9682 55.0601 89.5882 54.7569 89.4178C54.4537 89.2475 54.0714 89.3523 53.9001 89.6537L52.9905 91.2523C52.951 91.3309 52.8851 91.3833 52.7928 91.4095C52.7137 91.4357 52.6214 91.4226 52.5423 91.3833L51.4087 90.7413C50.6178 90.2957 50.341 89.313 50.7891 88.5268C50.9078 88.3171 51.0791 88.1337 51.2769 87.9895C51.5669 87.793 51.6328 87.3999 51.4351 87.1247C51.2373 86.8364 50.8419 86.7709 50.565 86.9675C50.196 87.2164 49.906 87.544 49.695 87.924C49.3919 88.4482 49.2864 89.0378 49.3391 89.6013Z" fill="#231F20"/>
<path d="M40.5205 113.122C41.5751 103.504 50.3014 96.5593 59.9637 97.6207L122.195 104.33L132.609 83.9669L163.652 100.569L148.084 130.995C145.052 136.918 138.962 140.574 132.385 140.574C131.752 140.574 131.106 140.534 130.46 140.469L56.1278 132.437C46.4523 131.388 39.466 122.74 40.5205 113.122Z" fill="#FFBFB1"/>
<path d="M151.92 46.2159C156.336 37.5938 166.947 34.1607 175.621 38.5372C184.295 42.9269 187.748 53.4621 183.345 62.0972L163.665 100.569L132.622 83.9669L151.92 46.2159Z" fill="#B60D00"/>
<path d="M137.13 1.40207C137.13 2.17517 136.497 2.80414 135.72 2.80414C134.942 2.80414 134.309 2.17517 134.309 1.40207C134.309 0.628966 134.942 0 135.72 0C136.484 0 137.13 0.628966 137.13 1.40207Z" fill="#B60D00"/>
<path d="M123.698 13.3524C131.805 12.9724 140.333 13.1821 148.44 13.3524C148.44 13.3524 148.691 1.91313 135.996 1.4152C123.302 0.930371 123.698 13.3524 123.698 13.3524Z" fill="#C291F3"/>
<path d="M148.44 13.3524H111.61C110.832 13.3524 110.476 12.3958 111.056 11.8848C113.337 9.91927 116.355 9.02824 119.334 9.42134L148.44 13.3524Z" fill="#B60D00"/>
<mask id="mask0_316_24744" style="mask-type:alpha" maskUnits="userSpaceOnUse" x="173" y="286" width="53" height="57">
<path d="M180.327 342.773L173.169 286.756H217.367L225.052 342.773H180.327Z" fill="white"/>
</mask>
<g mask="url(#mask0_316_24744)">
<path d="M210.382 279.313C214.046 302.231 217.724 325.149 221.388 348.067C221.494 348.683 220.532 348.958 220.439 348.329C216.775 325.411 213.097 302.493 209.433 279.575C209.327 278.959 210.276 278.697 210.382 279.313Z" fill="#231F20"/>
<path d="M197.912 276.076C201.682 299.584 205.438 323.105 209.208 346.612C209.314 347.228 208.352 347.503 208.259 346.874C204.489 323.367 200.732 299.846 196.962 276.338C196.857 275.723 197.806 275.461 197.912 276.076Z" fill="#231F20"/>
<path d="M187.037 278.186C190.635 301.589 194.221 324.978 197.819 348.381C197.912 348.997 196.962 349.272 196.87 348.643C193.272 325.241 189.686 301.851 186.087 278.448C185.982 277.832 186.944 277.57 187.037 278.186Z" fill="#231F20"/>
<path d="M177.308 277.609C180.551 302.716 183.794 327.809 187.05 352.915C187.129 353.544 186.14 353.531 186.061 352.915C182.818 327.809 179.576 302.716 176.32 277.609C176.241 276.994 177.229 276.994 177.308 277.609Z" fill="#231F20"/>
<path d="M227.412 297.12C203.527 295.561 179.589 295.207 155.677 296.059C155.044 296.085 155.044 295.103 155.677 295.076C179.589 294.225 203.527 294.578 227.412 296.138C228.045 296.177 228.045 297.173 227.412 297.12Z" fill="#231F20"/>
<path d="M231.565 309.647C208.167 308.337 184.717 308.206 161.306 309.241C160.673 309.267 160.673 308.285 161.306 308.258C184.717 307.223 208.167 307.354 231.565 308.665C232.197 308.704 232.211 309.687 231.565 309.647Z" fill="#231F20"/>
<path d="M226.911 322.515C204.964 322.056 183.016 321.611 161.068 321.152C160.436 321.139 160.436 320.156 161.068 320.17C183.016 320.628 204.964 321.074 226.911 321.532C227.544 321.545 227.557 322.528 226.911 322.515Z" fill="#231F20"/>
<path d="M231.815 335.487C209.867 334.872 187.919 334.256 165.971 333.64C165.339 333.627 165.339 332.644 165.971 332.657C187.919 333.273 209.867 333.889 231.815 334.505C232.447 334.518 232.447 335.501 231.815 335.487Z" fill="#231F20"/>
</g>
<mask id="mask1_316_24744" style="mask-type:alpha" maskUnits="userSpaceOnUse" x="83" y="286" width="52" height="57">
<path d="M83.6641 342.773L89.1346 286.756H134.032L128.39 342.773H83.6641Z" fill="white"/>
</mask>
<g mask="url(#mask1_316_24744)">
<path d="M98.0325 279.575C94.4338 302.388 93.2607 325.503 89.662 348.329C89.5698 348.958 88.6075 348.683 88.7129 348.067C92.3248 325.254 93.4847 302.139 97.0834 279.313C97.1756 278.697 98.1379 278.959 98.0325 279.575Z" fill="#231F20"/>
<path d="M110.502 276.338C106.732 299.846 102.976 323.367 99.2056 346.874C99.1001 347.503 98.151 347.228 98.2565 346.612C102.026 323.105 105.783 299.584 109.553 276.076C109.646 275.461 110.608 275.723 110.502 276.338Z" fill="#231F20"/>
<path d="M121.377 278.448C117.779 301.851 114.193 325.241 110.595 348.643C110.502 349.272 109.54 348.997 109.646 348.381C113.244 324.979 116.83 301.589 120.428 278.186C120.521 277.57 121.47 277.832 121.377 278.448Z" fill="#231F20"/>
<path d="M131.132 277.61C127.889 302.716 124.647 327.809 121.391 352.915C121.312 353.531 120.323 353.544 120.402 352.915C123.645 327.809 126.888 302.716 130.143 277.61C130.223 276.994 131.224 276.981 131.132 277.61Z" fill="#231F20"/>
<path d="M80.0524 296.138C103.938 294.578 127.876 294.225 151.788 295.076C152.421 295.103 152.421 296.085 151.788 296.059C127.876 295.207 103.938 295.561 80.0524 297.12C79.4197 297.173 79.4197 296.177 80.0524 296.138Z" fill="#231F20"/>
<path d="M75.8871 308.665C99.2848 307.354 122.735 307.223 146.146 308.258C146.779 308.285 146.779 309.267 146.146 309.241C122.735 308.206 99.2848 308.337 75.8871 309.647C75.2543 309.687 75.2543 308.704 75.8871 308.665Z" fill="#231F20"/>
<path d="M80.5402 321.532C102.488 321.074 124.436 320.628 146.397 320.17C147.029 320.156 147.029 321.139 146.397 321.152C124.449 321.611 102.501 322.056 80.5402 322.515C79.9074 322.528 79.9074 321.545 80.5402 321.532Z" fill="#231F20"/>
<path d="M75.6498 334.505C97.5975 333.889 119.545 333.273 141.493 332.657C142.126 332.644 142.126 333.627 141.493 333.64C119.545 334.256 97.5975 334.872 75.6498 335.487C75.0171 335.501 75.0171 334.518 75.6498 334.505Z" fill="#231F20"/>
</g>
<path d="M151.3 147.06C152.315 155.119 153.33 163.177 154.345 171.223C154.425 171.852 153.436 171.839 153.357 171.223C152.342 163.164 151.327 155.106 150.312 147.06C150.233 146.431 151.221 146.431 151.3 147.06Z" fill="#231F20"/>
<path d="M203.936 155.027C189.884 156.495 184.123 141.557 183.016 130.248C182.95 129.619 183.939 129.619 184.005 130.248C185.059 141.072 190.411 155.459 203.936 154.044C204.568 153.979 204.555 154.961 203.936 155.027Z" fill="#231F20"/>
<path d="M216.735 214.87C197.608 214.87 178.482 214.87 159.355 214.87C158.722 214.87 158.722 213.888 159.355 213.888C178.482 213.888 197.608 213.888 216.735 213.888C217.381 213.888 217.381 214.87 216.735 214.87Z" fill="#231F20"/>
<path d="M148.677 214.503C129.063 214.503 109.435 214.503 89.8206 214.503C89.1879 214.503 89.1879 213.521 89.8206 213.521C109.435 213.521 129.063 213.521 148.677 213.521C149.323 213.521 149.323 214.503 148.677 214.503Z" fill="#231F20"/>
<path d="M180.551 50.3565C185.876 57.8517 184.057 67.3255 179.43 74.6503C174.079 83.1151 168.265 91.6979 164.087 100.818C163.823 101.394 162.966 100.897 163.23 100.32C165.102 96.2448 167.488 92.4317 169.795 88.5924C171.983 84.9496 173.92 81.1758 176.28 77.6379C181.645 69.5924 186.061 59.791 179.707 50.8544C179.325 50.3434 180.182 49.8455 180.551 50.3565Z" fill="white"/>
<path d="M166.381 93.9256C156.178 88.6055 145.988 83.2855 135.799 77.9524C135.232 77.6642 135.733 76.8124 136.3 77.1007C146.502 82.4207 156.692 87.7407 166.881 93.0738C167.435 93.3621 166.934 94.2138 166.381 93.9256Z" fill="white"/>
<path d="M147.188 57.6158C142.205 66.2641 137.209 74.8993 132.227 83.5476C131.91 84.0979 131.053 83.6 131.37 83.0496C136.352 74.4013 141.348 65.7662 146.331 57.1179C146.647 56.5806 147.504 57.0655 147.188 57.6158Z" fill="white"/>
<path d="M151.498 35.9689C152.975 44.1717 147.583 52.7675 138.58 52.4793C130.486 52.2172 125.293 43.6606 129.129 36.4931C129.432 35.9296 130.276 36.4275 129.986 36.991C126.255 43.9489 131.857 51.7586 139.516 51.4965C147.399 51.2213 151.841 43.3986 150.549 36.231C150.444 35.6151 151.393 35.3399 151.498 35.9689Z" fill="white"/>
<path d="M114.787 76.1048L117.608 56.5807L110.767 73.1566L114.787 76.1048Z" fill="#231F20"/>
<path d="M115.406 103.74C118.768 104.002 122.129 104.264 125.491 104.526C126.123 104.579 126.123 105.561 125.491 105.509C122.129 105.247 118.768 104.985 115.406 104.723C114.774 104.67 114.774 103.688 115.406 103.74Z" fill="#231F20"/>
<path d="M93.7091 80.4421C96.8332 80.8483 99.9573 81.2414 103.081 81.6476C103.701 81.7263 103.714 82.709 103.081 82.6304C99.9573 82.2242 96.8332 81.8311 93.7091 81.4249C93.0896 81.3463 93.0764 80.3504 93.7091 80.4421Z" fill="#231F20"/>
</svg>
