<svg width="247" height="321" viewBox="0 0 247 321" fill="none" xmlns="http://www.w3.org/2000/svg">
<g clip-path="url(#clip0_316_64718)">
<path d="M173.964 279.214C174.973 278.909 176.923 278.367 177.941 278.655L189.357 316.811C189.397 316.947 189.567 317.469 189.595 317.609C189.532 317.996 190.45 318.633 189.984 318.909C187.704 319.497 184.339 319.362 182.226 318.849C179.786 318.257 177.698 317.177 175.814 315.832C172.64 313.562 170.259 310.741 168.319 307.619C167.787 306.765 167.304 305.891 166.859 305.002C166.463 305.121 165.846 305.316 165.335 305.474C165.097 305.548 164.883 305.614 164.725 305.663L164.682 305.676C164.673 305.673 164.664 305.67 164.654 305.664C164.444 305.584 164.312 305.441 164.227 305.262C162.64 301.948 160.222 299.075 158.163 296.012C156.232 293.14 154.191 290.328 152.225 287.474C151.966 287.098 151.61 286.742 151.744 286.22C151.805 286.117 151.885 286.03 151.989 285.955C152.1 285.883 152.215 285.822 152.335 285.768C152.35 285.76 152.364 285.753 152.38 285.747C152.754 285.58 153.157 285.481 153.551 285.362L153.727 285.31C160.472 283.273 167.217 281.249 173.964 279.214Z" fill="#75CEDE"/>
<path d="M152.38 285.744C152.38 285.746 152.383 285.746 152.383 285.748C155.904 291.005 159.426 296.263 162.946 301.521C163.646 302.563 164.77 304.135 165.335 305.471C165.097 305.544 164.883 305.61 164.725 305.659C164.697 305.654 164.675 305.654 164.654 305.661C163.243 306.083 157.907 307.633 157.302 307.71C155.217 300.828 152.851 293.159 150.837 286.254L152.333 285.763C152.35 285.756 152.364 285.749 152.38 285.744Z" fill="#22211E"/>
<path d="M246.187 199.663C244.251 204.02 240.423 207.492 235.904 208.986C231.706 210.371 227.143 210.076 222.784 209.348C221.366 209.111 219.957 208.83 218.554 208.512C218.561 208.52 218.57 208.529 218.579 208.54L217.182 211.32L215.298 215.066L194.946 202.175L193.525 201.276C193.539 201.247 193.554 201.217 193.568 201.187C193.805 200.71 194.044 200.236 194.282 199.759C197.752 192.82 201.255 185.896 205.026 179.119C205.415 178.422 205.863 177.676 206.612 177.399C207.359 177.126 208.185 177.406 208.925 177.701C211.305 178.65 213.616 179.77 215.925 180.892C220.709 183.213 225.491 185.537 230.274 187.86C235.058 190.18 239.839 192.504 244.623 194.827C245.094 195.055 245.784 195.231 246.15 195.598C246.459 195.91 246.626 196.362 246.694 196.788C246.854 197.755 246.578 198.785 246.187 199.663Z" fill="#75CEDE"/>
<path d="M215.3 215.066L194.948 202.175L193.527 201.276L193.521 201.271L187.584 197.511L169.736 227.197L168.137 224.627L148.625 193.264H83.2546C83.2546 193.264 72.6364 212.771 64.9269 239.016C64.6037 240.117 64.284 241.23 63.973 242.354C61.7889 250.211 59.9054 258.6 58.6596 267.2C54.6389 294.965 58.6439 306.96 64.8296 312.793C66.1241 314.013 67.5159 314.964 68.9494 315.731C70.3272 316.468 71.7399 317.036 73.1473 317.518C79.0306 319.534 159.472 319.015 159.472 319.015L158.55 286.636C161.177 287.693 167.02 288.275 169.736 287.932C175.166 287.247 176.012 287.321 180.524 283.975C182.257 282.69 183.965 281.181 185.638 279.493C196.352 268.689 205.71 250.541 211.856 236.702C212.744 234.706 213.564 232.802 214.313 231.019V231.018C217.609 223.157 219.499 217.723 219.499 217.723L215.3 215.066ZM108.244 274.149L108.341 273.644L114.85 240.11C114.85 240.11 117.25 242.854 120.753 247.243C124.256 251.635 128.864 257.672 133.282 264.257C134.311 265.789 135.489 267.179 136.733 268.59C138.257 270.318 140.147 273.142 141.794 274.764L108.244 274.149Z" fill="#C291F3"/>
<path d="M138.21 180.746C138.21 180.746 122.756 188.849 109.007 179.467C97.5632 171.661 71.8041 147.264 63.4742 139.294C61.9487 137.832 61.0087 136.923 60.8471 136.768C60.8314 136.752 60.8227 136.743 60.8227 136.743C58.0757 133.93 55.452 130.987 52.373 128.518C47.9822 125.001 42.2101 122.464 36.57 123.678C35.1383 123.987 33.7656 124.527 32.3286 124.821C30.8952 125.116 29.3331 125.14 28.063 124.466C26.7945 123.793 25.9501 122.258 26.4488 120.919C25.1265 120.682 23.9693 119.872 23.2326 118.791C22.6731 117.969 22.3534 116.994 22.3881 115.997C22.4055 115.523 22.4924 115.034 22.3586 114.582C22.19 114.016 21.7105 113.605 21.3595 113.126C20.2944 111.682 20.8608 109.133 22.6731 108.749C21.8199 107.903 21.667 106.368 22.3742 105.352C23.0866 104.324 24.8189 103.795 26.0005 103.46C28.8501 102.648 31.9082 102.753 34.7803 103.248C38.9835 103.969 43.0128 105.46 47.2542 105.941C49.5808 106.206 52.0377 106.141 54.1679 105.147C57.0436 103.798 58.8558 101.012 60.8922 98.6185C63.3526 95.7264 66.4263 93.2037 70.0665 91.9789C71.8631 91.3761 74.1671 91.2385 75.2965 92.6828C76.3234 94.0016 75.7935 95.9633 74.7996 97.3432C73.8075 98.7265 72.6363 99.9844 71.5486 101.286C66.2109 107.674 77.2339 116.335 81.8905 120.898L81.8923 120.896C81.8923 120.896 110.141 147.202 117.371 149.332C124.6 151.465 127.294 147.627 127.294 147.627L138.21 180.746Z" fill="black"/>
<path d="M159.695 163.842C158.466 167.636 156.102 170.965 152.979 173.425C152.667 173.669 148.627 175.898 148.627 176.035C148.627 176.065 148.627 193.264 148.627 193.264H83.2549C83.2549 193.264 83.4808 191.076 83.7623 186.565C83.7779 186.337 83.7918 186.102 83.8074 185.861C84.2627 178.326 84.8343 164.925 84.8343 145.142C84.8343 135.637 87.8229 125.217 94.7331 118.415C98.0275 115.171 101.939 113.42 106.081 112.769C106.324 112.73 106.568 112.696 106.814 112.666C111.311 112.1 116.053 112.784 120.56 114.227C130.21 117.318 139.913 122.07 147.449 128.943C147.84 129.299 148.227 129.665 148.606 130.034C157.042 138.285 163.561 151.935 159.695 163.842Z" fill="#B60D00"/>
<path d="M145.32 146.12C145.16 151.876 140.794 159.284 132.344 168.138C130.115 170.472 127.88 172.605 125.924 174.385L125.684 173.664C133.112 166.862 144.387 155.083 144.636 146.1C144.75 141.994 142.537 139.065 137.871 137.151C133.679 135.429 128.144 134.722 122.795 134.037C118.15 133.443 113.763 132.884 110.588 131.699C108.571 130.947 107.075 129.522 106.149 127.466C104.747 124.361 104.621 119.887 105.777 114.166C105.872 113.688 105.975 113.222 106.079 112.769C106.322 112.73 106.566 112.695 106.812 112.666C105.761 117.121 104.941 123.136 106.769 127.185C107.619 129.069 108.984 130.372 110.826 131.058C113.926 132.215 118.275 132.771 122.878 133.36C133.527 134.72 145.593 136.261 145.32 146.12Z" fill="#FCF0E2"/>
<path d="M95.3119 181.955C93.7846 183.326 91.7673 184.445 89.3 185.286C87.2758 185.973 85.2776 186.354 83.7642 186.567C83.7798 186.339 83.7937 186.103 83.8093 185.863C86.784 185.427 91.5571 184.316 94.7646 181.516C94.947 181.664 95.1312 181.811 95.3119 181.955Z" fill="#FCF0E2"/>
<path d="M130.261 187.544C130.261 187.544 128.365 188.539 125.307 189.428C119.641 191.076 109.991 192.361 101.058 186.265C99.4091 185.14 97.4613 183.67 95.3119 181.953C95.1312 181.809 94.947 181.664 94.7629 181.514C81.9867 171.234 62.5522 152.815 55.5255 146.09C53.9999 144.628 53.0599 143.719 52.8983 143.564C52.8827 143.548 52.874 143.539 52.874 143.539C50.1269 140.726 47.5032 137.783 44.4243 135.315C40.0335 131.797 34.2614 129.26 28.6213 130.475C27.1895 130.783 25.8169 131.323 24.3799 131.618C22.9464 131.912 21.3844 131.936 20.1142 131.262C18.8458 130.59 18.0014 129.055 18.5 127.715C17.1778 127.478 16.0206 126.668 15.2838 125.588C14.7243 124.765 14.4046 123.79 14.4394 122.793C14.4568 122.319 14.5436 121.83 14.4098 121.379C14.2413 120.812 13.7617 120.401 13.4108 119.922C12.3456 118.478 12.9121 115.929 14.7243 115.546C13.8712 114.699 13.7183 113.164 14.4255 112.148C15.1379 111.12 16.8702 110.591 18.0518 110.256C20.9013 109.444 23.9594 109.549 26.8316 110.044C31.0347 110.765 35.0641 112.256 39.3055 112.737C41.632 113.002 44.0889 112.938 46.2192 111.943C49.0948 110.594 50.9071 107.809 52.9435 105.415C55.4039 102.523 58.4776 99.9999 62.1178 98.7752C63.9144 98.1724 66.2184 98.0347 67.3478 99.479C68.3747 100.798 67.8447 102.76 66.8509 104.139C65.8587 105.523 64.6876 106.781 63.5999 108.082C58.2621 114.471 69.2852 123.131 73.9418 127.694L73.9435 127.692C73.9435 127.692 87.6111 140.421 98.3683 148.886L98.37 148.892C99.4247 149.721 100.452 150.51 101.435 151.24C104.839 153.777 107.716 155.625 109.424 156.129C116.653 158.261 119.58 155.13 119.58 155.13L125.688 173.661L125.928 174.382L130.261 187.544Z" fill="#FFBFB1"/>
<path d="M155.028 99.8832C155.03 100.415 154.958 100.948 154.805 101.455C154.194 103.488 152.481 105.075 150.503 105.836C148.528 106.598 146.324 106.599 144.248 106.18C143.553 111.185 142.728 116.218 141.285 121.046C139.723 126.257 134.49 129.551 129.185 128.415C129.031 128.38 128.879 128.346 128.73 128.307C121.98 126.588 118.883 118.743 122.435 112.734C123.227 111.392 124.035 110.065 124.841 108.735C124.952 108.556 122.701 105.707 122.487 105.385C115.419 94.7332 124.984 84.3392 134.38 79.7136C134.556 81.252 135.456 82.806 136.382 83.9298C138.453 86.4455 141.23 87.1232 144.123 87.5814C144.142 87.5832 144.163 87.5884 144.184 87.5919C144.644 87.6738 145.11 87.7417 145.576 87.801C145.576 87.801 145.576 87.801 145.577 87.801C146.222 87.8846 146.868 87.9508 147.511 88.0118L147.4 96.7246C148.54 94.9458 151.252 94.5729 152.993 95.7663C153 95.7681 153.005 95.7733 153.012 95.7785C154.319 96.6827 155.017 98.2838 155.028 99.8832Z" fill="#FFBFB1"/>
<path d="M127.017 93.4598C127.568 93.4598 128.014 93.0121 128.014 92.4598C128.014 91.9075 127.568 91.4597 127.017 91.4597C126.466 91.4597 126.02 91.9075 126.02 92.4598C126.02 93.0121 126.466 93.4598 127.017 93.4598Z" fill="#22211E"/>
<path d="M139.225 103.85C140.119 103.85 140.844 103.123 140.844 102.227C140.844 101.33 140.119 100.603 139.225 100.603C138.33 100.603 137.605 101.33 137.605 102.227C137.605 103.123 138.33 103.85 139.225 103.85Z" fill="#FF90A5"/>
<path d="M137.998 98.1898C138.549 98.1898 138.995 97.742 138.995 97.1897C138.995 96.6374 138.549 96.1897 137.998 96.1897C137.447 96.1897 137 96.6374 137 97.1897C137 97.742 137.447 98.1898 137.998 98.1898Z" fill="#22211E"/>
<path d="M130.268 89.2976C130.186 89.2976 130.104 89.2871 130.021 89.2645L126.77 88.3969C126.259 88.261 125.957 87.7366 126.092 87.2244C126.228 86.7122 126.753 86.409 127.262 86.5449L130.513 87.4125C131.024 87.5484 131.326 88.0728 131.19 88.585C131.077 89.0153 130.69 89.2976 130.268 89.2976Z" fill="#22211E"/>
<path d="M141.275 94.843C141.046 94.843 140.816 94.7611 140.634 94.5956L137.96 92.1687C137.569 91.8133 137.537 91.207 137.892 90.815C138.246 90.423 138.851 90.3916 139.242 90.7471L141.916 93.174C142.307 93.5294 142.338 94.1357 141.984 94.5277C141.796 94.7367 141.536 94.843 141.275 94.843Z" fill="#22211E"/>
<path d="M130.949 97.9826C130.906 97.9826 130.862 97.9721 130.822 97.9495C130.51 97.7735 130.285 97.4843 130.188 97.1393C130.093 96.7926 130.138 96.4302 130.315 96.1166L133.293 90.8638C133.364 90.7384 133.523 90.6948 133.648 90.7663C133.773 90.8377 133.816 90.998 133.745 91.1217L130.767 96.3745C130.659 96.5661 130.631 96.7874 130.69 96.9982C130.749 97.209 130.887 97.385 131.078 97.493C131.203 97.5644 131.248 97.723 131.177 97.8484C131.128 97.9355 131.04 97.9826 130.949 97.9826Z" fill="#22211E"/>
<path d="M132.034 103.112C130.459 103.112 129.337 102.002 129.29 101.955C129.189 101.852 129.189 101.687 129.29 101.585C129.392 101.484 129.556 101.484 129.658 101.585C129.669 101.596 130.68 102.589 132.035 102.589C132.056 102.589 132.075 102.589 132.096 102.589C132.98 102.57 133.825 102.129 134.605 101.279C134.702 101.173 134.867 101.166 134.973 101.263C135.079 101.361 135.086 101.526 134.989 101.633C134.106 102.592 133.135 103.091 132.101 103.112C132.079 103.11 132.056 103.112 132.034 103.112Z" fill="#22211E"/>
<path d="M145.576 101.19C145.489 101.19 145.404 101.146 145.355 101.068C145.278 100.946 145.315 100.784 145.437 100.707C145.558 100.631 148.437 98.8501 150.96 100.5C151.08 100.578 151.115 100.74 151.037 100.862C150.958 100.984 150.797 101.017 150.675 100.939C148.436 99.4738 145.741 101.134 145.715 101.152C145.671 101.176 145.622 101.19 145.576 101.19Z" fill="#22211E"/>
<path d="M152.993 95.7647C151.252 94.5713 148.54 94.9441 147.4 96.7229L147.511 88.0101C146.869 87.9509 146.224 87.8847 145.578 87.7993C145.576 87.7993 145.576 87.7993 145.576 87.7993C145.11 87.7296 144.644 87.6634 144.184 87.5903C144.161 87.5885 144.142 87.5833 144.123 87.5798C141.228 87.1199 138.454 86.4439 136.382 83.9281C135.456 82.8044 134.555 81.2504 134.381 79.712C134.358 79.5151 134.35 79.3165 134.351 79.1214C134.367 78.3008 134.615 77.5046 135.208 76.7921C137.58 73.954 141.892 76.1927 144.424 77.6074C150.695 81.1145 152.794 87.6791 152.976 94.7385C152.981 95.0312 152.988 95.4023 152.993 95.7647Z" fill="#22211E"/>
<path d="M52.1194 6.61406C51.487 6.62625 50.8215 6.69594 50.123 6.83183C47.2335 7.39108 44.6619 9.15594 42.768 11.4138C40.874 13.6717 39.6091 16.4018 38.6986 19.2085C37.6839 22.334 37.0775 25.6512 37.4754 28.9143C37.8733 32.1775 39.3571 35.3901 41.9374 37.4198C40.8845 38.1742 39.9149 39.0435 39.0479 40.0052C38.921 40.1464 38.789 40.3101 38.7942 40.5C38.8046 40.8293 39.1938 40.9896 39.5135 41.068C41.2163 41.4879 42.9191 41.9077 44.6202 42.3276C44.9729 42.4147 45.3795 42.4931 45.6749 42.2823C46.1145 41.9704 45.9911 41.2736 45.7009 40.8171C45.4125 40.3606 44.9938 39.939 44.9642 39.4007C44.9208 38.5923 45.7409 38.0435 46.455 37.6672C51.4209 35.0591 56.5988 32.2106 59.5648 27.4404C63.9713 20.3531 61.921 6.43287 52.1194 6.61406Z" fill="#008B86"/>
<path d="M14.3714 5.35976C14.1786 5.35802 13.984 5.35976 13.7859 5.36673C10.7208 5.46778 7.77394 6.84412 5.47863 8.88251C3.50651 10.6334 1.95662 12.9122 1.2894 15.4663C0.575268 18.1998 0.89498 21.1389 1.84542 23.801C2.79412 26.4631 4.34575 28.8709 6.08852 31.0922C7.62625 33.0504 9.35163 34.9059 11.4732 36.2056C13.5947 37.5035 16.1594 38.2074 18.5989 37.73C18.5937 38.7823 18.5885 39.8346 18.5832 40.8869C18.5815 41.1395 18.6024 41.4339 18.8126 41.5716C18.969 41.6744 19.174 41.6465 19.3565 41.6134C21.5458 41.2092 23.6447 40.312 25.45 39.0053C25.6273 38.8764 25.8132 38.73 25.8792 38.521C26.0825 37.8711 25.1338 37.5645 24.5517 37.2108C23.7907 36.7474 23.4988 35.7508 23.5943 34.8623C23.6899 33.9738 24.0965 33.1567 24.4527 32.3379C28.171 23.7714 26.6976 5.51307 14.3714 5.35976Z" fill="#C291F3"/>
<path d="M33.3978 0.781214C29.0036 0.861356 24.9307 3.77781 22.8596 7.66817C20.7797 11.5777 20.5625 16.3043 21.6224 20.6058C22.9725 26.0885 26.3625 31.0399 30.9792 34.2752C30.4805 34.885 29.9714 35.5174 29.7524 36.2752C29.5335 37.0331 29.6847 37.9547 30.3172 38.4234C30.762 38.7527 31.3475 38.8014 31.8983 38.838C32.8992 38.9042 33.9452 38.9652 34.8661 38.5662C35.787 38.1673 36.5289 37.1585 36.2735 36.1847C36.0858 35.4686 35.4047 34.831 35.6063 34.1184C35.6897 33.8205 35.9173 33.5905 36.1345 33.371C39.8945 29.5625 43.1507 25.085 44.6242 19.9333C46.9959 11.6387 43.6372 0.662744 33.4656 0.781214C33.443 0.779472 33.4204 0.779472 33.3978 0.781214Z" fill="#FF90A5"/>
<path d="M23.6061 35.756L18.543 37.578L18.651 37.8797L23.7141 36.0577L23.6061 35.756Z" fill="#19174D"/>
<path d="M35.6011 33.9522L30.9751 34.1095L30.9859 34.4299L35.612 34.2725L35.6011 33.9522Z" fill="#19174D"/>
<path d="M41.9843 37.2614L41.8921 37.5684L45.306 38.5998L45.3983 38.2928L41.9843 37.2614Z" fill="#19174D"/>
<path d="M44.4588 63.8196H19.9351V84.4212H44.4588V63.8196Z" fill="#B60D00"/>
<path d="M44.4587 74.3825H19.9349C19.7907 74.3825 19.6743 74.2658 19.6743 74.1212C19.6743 73.9766 19.7907 73.8599 19.9349 73.8599H44.4587C44.603 73.8599 44.7194 73.9766 44.7194 74.1212C44.7194 74.2658 44.603 74.3825 44.4587 74.3825Z" fill="#22211E"/>
<path d="M29.1197 64.0809C29.0067 64.0809 28.9025 64.006 28.8694 63.8927L22.0079 40.028C21.9679 39.8886 22.0478 39.744 22.1868 39.7039C22.3241 39.6639 22.47 39.744 22.51 39.8834L29.3716 63.7481C29.4116 63.8875 29.3316 64.0321 29.1926 64.0722C29.1683 64.0792 29.144 64.0809 29.1197 64.0809Z" fill="#22211E"/>
<path d="M34.9686 64.0808C34.9408 64.0808 34.913 64.0774 34.8869 64.0669C34.7497 64.0216 34.6767 63.8735 34.7219 63.7359L42.089 41.5576C42.1342 41.4199 42.2819 41.3468 42.4192 41.3921C42.5564 41.4374 42.6294 41.5854 42.5842 41.7231L35.2171 63.9014C35.1806 64.0129 35.0781 64.0808 34.9686 64.0808Z" fill="#22211E"/>
<path d="M32.1972 84.6842C32.0529 84.6842 31.9365 84.5675 31.9365 84.4229V63.8195L33.0329 38.1393C33.0399 37.9947 33.1528 37.8832 33.304 37.8902C33.4482 37.8972 33.5594 38.0191 33.5524 38.162L32.456 63.8299V84.4211C32.4578 84.5675 32.3414 84.6842 32.1972 84.6842Z" fill="#22211E"/>
<path d="M100.209 212.435C103.618 210.125 105.558 207.031 104.543 205.525C103.528 204.019 99.9416 204.671 96.5332 206.981C93.1248 209.291 91.1847 212.385 92.1999 213.89C93.215 215.396 96.8009 214.744 100.209 212.435Z" fill="#C291F3"/>
<path d="M141.483 227.093C141.833 222.983 140.652 219.526 138.845 219.372C137.039 219.217 135.292 222.424 134.942 226.534C134.593 230.644 135.774 234.101 137.58 234.255C139.387 234.41 141.134 231.203 141.483 227.093Z" fill="#C291F3"/>
<path d="M133.531 197.649C133.18 201.757 131.434 204.965 129.627 204.81C127.821 204.656 126.64 201.198 126.989 197.09C127.109 195.672 127.397 194.365 127.792 193.264H133.288C133.567 194.518 133.668 196.034 133.531 197.649Z" fill="#C291F3"/>
<path d="M214.315 231.019V231.021C213.566 232.803 212.746 234.708 211.858 236.704C211.137 236.577 210.383 236.385 209.618 236.129C205.714 234.826 203.014 232.375 203.586 230.648C204.159 228.923 207.785 228.58 211.69 229.882C212.649 230.202 213.533 230.591 214.315 231.019Z" fill="#C291F3"/>
<path d="M185.638 279.496C183.965 281.186 182.257 282.695 180.525 283.979C180.083 283.209 179.682 282.34 179.348 281.397C177.967 277.51 178.231 273.867 179.937 273.256C181.645 272.646 184.149 275.301 185.53 279.186C185.569 279.291 185.605 279.394 185.638 279.496Z" fill="#C291F3"/>
<path d="M176.921 242.049C177.828 240.475 175.674 237.527 172.112 235.465C168.549 233.402 164.926 233.006 164.02 234.58C163.114 236.154 165.267 239.102 168.83 241.165C172.392 243.227 176.015 243.623 176.921 242.049Z" fill="#C291F3"/>
<path d="M139.376 266.093C138.29 267.386 137.751 267.738 136.627 268.425C135.381 267.013 134.18 265.583 133.025 264.144C133.511 263.172 133.529 262.832 134.358 261.846C137.009 258.694 140.283 257.09 141.669 258.261C143.054 259.437 142.027 262.942 139.376 266.093Z" fill="#C291F3"/>
<path d="M90.8096 281.667C92.6223 281.667 94.0918 278.323 94.0918 274.198C94.0918 270.073 92.6223 266.729 90.8096 266.729C88.9969 266.729 87.5273 270.073 87.5273 274.198C87.5273 278.323 88.9969 281.667 90.8096 281.667Z" fill="#C291F3"/>
<path d="M76.0147 248.26C74.9791 249.752 71.4032 249.048 68.0289 246.687C66.1054 245.342 64.665 243.751 63.9717 242.354C64.2827 241.23 64.6024 240.117 64.9256 239.016C66.5172 238.65 69.2104 239.486 71.782 241.284C75.158 243.647 77.0537 246.767 76.0147 248.26Z" fill="#C291F3"/>
<path d="M72.4157 312.68C71.3072 313.997 70.0892 315.043 68.9493 315.732C67.5158 314.966 66.1241 314.013 64.8296 312.795C65.2831 311.447 66.164 309.903 67.3977 308.436C70.0492 305.284 73.3227 303.68 74.7093 304.851C76.0941 306.021 75.0672 309.528 72.4157 312.68Z" fill="#C291F3"/>
<path d="M139.356 301.076C139.669 299.285 136.638 297.257 132.585 296.545C128.533 295.833 124.995 296.707 124.682 298.498C124.369 300.288 127.4 302.316 131.452 303.028C135.505 303.74 139.043 302.866 139.356 301.076Z" fill="#C291F3"/>
<path d="M31.6882 319.05C25.8414 313.041 22.6738 306.931 22.0049 300.368C21.2178 292.633 23.8119 284.181 29.9368 274.531C36.5117 264.172 38.2509 253.037 38.5533 245.52C38.8799 237.373 37.6376 231.62 37.6254 231.563L38.4734 231.375C38.4855 231.432 39.7522 237.297 39.4221 245.555C39.1162 253.178 37.3492 264.475 30.67 274.998C24.6529 284.477 22.1022 292.746 22.8684 300.279C23.5165 306.638 26.6042 312.579 32.3085 318.442L31.6882 319.05Z" fill="#008B86"/>
<path d="M226.316 319.072L225.454 318.963C227.08 306.072 224.905 301.922 222.603 297.528C221.16 294.775 219.668 291.929 219.068 286.869C218.257 280.024 220.799 274.123 223.073 270.379C225.532 266.332 228.145 263.931 228.255 263.832L228.839 264.477C228.813 264.501 226.194 266.909 223.802 270.857C221.604 274.479 219.148 280.179 219.93 286.768C220.512 291.669 221.965 294.443 223.371 297.126C225.739 301.641 227.977 305.91 226.316 319.072Z" fill="#008B86"/>
<path d="M227.841 265.661C227.841 265.661 242.013 258.564 235.832 253.379C229.652 248.196 224.894 259.372 227.841 265.661Z" fill="#008B86"/>
<path d="M227.72 266.015L227.607 265.773C225.678 261.654 226.924 255.187 230.121 252.715C231.909 251.333 233.998 251.499 236.001 253.178C237.236 254.215 237.784 255.407 237.629 256.724C237.405 258.647 235.7 260.78 232.564 263.06C230.257 264.738 227.982 265.884 227.96 265.895L227.72 266.015ZM232.679 252.307C231.902 252.307 231.15 252.581 230.439 253.13C227.527 255.379 226.325 261.433 227.968 265.302C229.397 264.548 236.66 260.529 237.111 256.665C237.243 255.534 236.757 254.496 235.666 253.581C234.654 252.732 233.647 252.307 232.679 252.307Z" fill="#008B86"/>
<path d="M39.0375 233.434C39.0375 233.434 39.4701 217.557 31.9969 220.58C24.5254 223.604 32.1168 233.077 39.0375 233.434Z" fill="#008B86"/>
<path d="M39.2912 233.709L39.0253 233.695C34.4938 233.462 29.3906 229.314 28.7234 225.321C28.3498 223.089 29.4792 221.319 31.9013 220.34C33.3939 219.735 34.7023 219.813 35.7882 220.57C37.3746 221.674 38.4467 224.186 38.9767 228.033C39.3659 230.864 39.3016 233.417 39.3016 233.441L39.2912 233.709ZM33.7692 220.463C33.2497 220.463 32.6902 220.583 32.096 220.824C29.8927 221.716 28.9041 223.24 29.2377 225.235C29.8458 228.869 34.6032 232.786 38.7821 233.155C38.7907 231.537 38.6761 223.219 35.4894 220.998C34.9768 220.641 34.4017 220.463 33.7692 220.463Z" fill="#008B86"/>
<path d="M24.0809 305.645C24.0809 305.645 28.2823 286.347 35.5609 294.455C42.8378 302.563 24.4458 307.079 24.4458 307.079L24.0809 305.645Z" fill="#008B86"/>
<path d="M24.2565 307.394L23.8135 305.649L23.8274 305.588C23.8343 305.558 24.4911 302.568 25.7074 299.469C27.3616 295.253 29.2138 292.845 31.2137 292.314C32.701 291.917 34.2301 292.58 35.7557 294.279C37.3177 296.019 37.8494 297.746 37.3386 299.411C35.7713 304.513 24.9689 307.218 24.5102 307.332L24.2565 307.394ZM24.3504 305.642L24.6353 306.76C26.2791 306.319 35.4863 303.666 36.8399 299.258C37.2934 297.781 36.7982 296.223 35.3682 294.629C33.9851 293.087 32.6315 292.479 31.3475 292.821C27.0992 293.95 24.5554 304.737 24.3504 305.642Z" fill="#008B86"/>
<path d="M37.3627 257.94C37.3627 257.94 48.5751 241.699 52.2257 251.975C55.8762 262.25 37.1542 259.405 37.1542 259.405L37.3627 257.94Z" fill="#008B86"/>
<path d="M42.4434 260.036C39.6407 260.036 37.3245 259.694 37.1143 259.663L36.8589 259.625L37.1126 257.842L37.1473 257.792C37.1647 257.767 38.9075 255.253 41.208 252.853C44.339 249.584 46.9645 248.065 49.0165 248.339C50.5421 248.541 51.7045 249.736 52.469 251.889C53.2527 254.095 53.0893 255.895 51.9825 257.24C50.1147 259.513 45.908 260.036 42.4434 260.036ZM37.4496 259.182C39.1368 259.402 48.6586 260.464 51.5846 256.905C52.5663 255.712 52.6984 254.083 51.9808 252.064C51.2875 250.111 50.2676 249.03 48.9505 248.856C44.5892 248.274 38.1464 257.281 37.6112 258.039L37.4496 259.182Z" fill="#008B86"/>
<path d="M218.412 283.554C218.412 283.554 205.297 277.85 206.664 287.08C208.034 296.31 219.347 285.113 219.347 285.113L218.412 283.554Z" fill="#008B86"/>
<path d="M209.87 290.988C209.493 290.988 209.133 290.936 208.794 290.822C207.51 290.392 206.707 289.146 206.407 287.118C206.085 284.946 206.523 283.381 207.71 282.468C210.874 280.035 218.205 283.179 218.516 283.313L218.592 283.347L219.677 285.153L219.531 285.298C219.273 285.55 213.732 290.988 209.87 290.988ZM211.041 282.07C209.873 282.07 208.798 282.289 208.026 282.881C207.001 283.671 206.629 285.07 206.923 287.04C207.192 288.859 207.879 289.963 208.959 290.326C212.174 291.403 218.015 286.021 219.016 285.068L218.233 283.761C217.664 283.524 214.05 282.07 211.041 282.07Z" fill="#008B86"/>
<path d="M29.4623 275.13C29.4623 275.13 25.3147 261.412 19.1812 268.431C13.0476 275.451 28.5066 277.97 28.5066 277.97L29.4623 275.13Z" fill="#008B86"/>
<path d="M28.6822 278.263L28.465 278.228C28.4424 278.224 26.1176 277.839 23.652 276.981C20.2933 275.81 18.2829 274.355 17.6748 272.658C17.1865 271.294 17.6261 269.813 18.9849 268.259C20.4288 266.607 21.9005 265.93 23.3635 266.247C25.0159 266.604 26.5902 268.205 28.0393 271.003C29.1027 273.055 29.7056 275.034 29.7126 275.054L29.7369 275.134L28.6822 278.263ZM22.6702 266.695C21.5912 266.695 20.4844 267.334 19.3759 268.604C18.1509 270.005 17.7443 271.31 18.163 272.482C19.3776 275.869 26.9446 277.418 28.3295 277.674L29.1861 275.129C28.9272 274.315 26.6527 267.494 23.2506 266.759C23.0595 266.715 22.8649 266.695 22.6702 266.695Z" fill="#008B86"/>
<path d="M226.46 304.284C226.46 304.284 239.469 309.253 239.886 299.901C240.303 290.549 225.234 302.687 225.234 302.687L226.46 304.284Z" fill="#008B86"/>
<path d="M233.336 305.868C232.479 305.868 231.549 305.786 230.547 305.619C228.245 305.239 226.445 304.556 226.37 304.528L226.3 304.502L224.872 302.643L225.072 302.483C225.477 302.157 235.025 294.525 238.715 296.401C239.746 296.925 240.229 298.107 240.147 299.911C240.048 302.141 239.236 303.774 237.739 304.76C236.618 305.499 235.144 305.868 233.336 305.868ZM226.622 304.065C226.973 304.192 228.632 304.774 230.641 305.105C232.695 305.443 235.542 305.582 237.454 304.323C238.804 303.432 239.535 301.941 239.627 299.887C239.699 298.305 239.311 297.289 238.481 296.866C237.099 296.164 234.413 296.969 230.71 299.197C228.335 300.626 226.24 302.229 225.598 302.73L226.622 304.065Z" fill="#008B86"/>
<path d="M65.2225 138.374C65.2225 138.374 65.2207 138.376 65.2225 138.374C65.2902 138.409 65.3615 138.442 65.431 138.477L65.2225 138.374Z" fill="#F2886B"/>
<path d="M64.0255 137.811C63.9925 137.797 63.9595 137.785 63.9282 137.771L64.0255 137.811Z" fill="#F2886B"/>
<path d="M55.5232 146.092C55.5145 146.099 55.5076 146.104 55.4989 146.109C54.9324 145.588 54.3816 145.055 53.8343 144.512C53.73 144.407 53.6223 144.299 53.518 144.195C53.3113 143.987 53.1045 143.775 52.896 143.564C53.0593 143.721 53.9994 144.632 55.5232 146.092Z" fill="#F2886B"/>
<path d="M31.7104 161.104C31.7243 161.103 31.7382 161.103 31.7538 161.101C31.7816 161.099 31.8059 161.117 31.8094 161.143C31.8111 161.169 31.792 161.195 31.7642 161.199C31.7503 161.2 31.7364 161.2 31.7208 161.202C31.693 161.204 31.6686 161.186 31.6652 161.16C31.6634 161.138 31.6791 161.113 31.7034 161.106C31.7051 161.104 31.7086 161.104 31.7104 161.104Z" fill="#E8C4DA"/>
<path d="M193.57 201.188C193.556 201.217 193.541 201.247 193.527 201.276L193.521 201.271L193.565 201.188C193.568 201.188 193.568 201.188 193.57 201.188Z" fill="#FFBFB1"/>
<path d="M130.261 187.544C130.261 187.544 128.365 188.539 125.307 189.428L119.579 155.132L130.261 187.544Z" fill="#22211E"/>
<path d="M101.433 137.074V151.242C100.45 150.512 99.4231 149.721 98.3684 148.893L98.3667 148.888L101.433 137.074Z" fill="#22211E"/>
<path d="M169.738 227.199L161.417 238.311L168.139 224.627L169.738 227.199Z" fill="#22211E"/>
<path d="M148.627 193.525H83.2548C83.1106 193.525 82.9941 193.409 82.9941 193.264C82.9941 193.119 83.1106 193.003 83.2548 193.003H148.627C148.771 193.003 148.887 193.119 148.887 193.264C148.887 193.409 148.771 193.525 148.627 193.525Z" fill="#22211E"/>
<path d="M112.755 156.852C111.91 156.852 111.173 156.787 110.538 156.69C106.366 156.043 97.2053 149.172 83.3084 136.264C72.9821 126.671 63.7488 117.143 63.6567 117.047C63.5559 116.945 63.5594 116.779 63.6619 116.678C63.7644 116.577 63.9295 116.581 64.0303 116.683C64.3986 117.063 100.882 154.667 110.616 156.174C120.329 157.678 132.855 148.156 132.98 148.061C133.094 147.973 133.258 147.994 133.345 148.109C133.432 148.224 133.411 148.388 133.296 148.475C133.265 148.5 130.069 150.942 125.699 153.16C119.993 156.057 115.721 156.852 112.755 156.852Z" fill="#22211E"/>
<path d="M33.4149 110.227C33.4045 110.227 33.3958 110.227 33.3853 110.225L24.3223 109.199C23.2433 109.077 22.3832 108.349 22.0774 107.298C21.7768 106.265 22.1052 105.207 22.9322 104.535C23.9591 103.702 25.2901 103.392 25.3457 103.38C25.4847 103.347 25.6254 103.436 25.6567 103.577C25.688 103.718 25.6011 103.857 25.4604 103.89C25.4482 103.894 24.1885 104.188 23.2589 104.943C22.5969 105.479 22.3363 106.326 22.576 107.152C22.8228 107.997 23.5126 108.582 24.3796 108.68L33.4427 109.706C33.5852 109.721 33.6894 109.85 33.672 109.995C33.6599 110.127 33.5469 110.227 33.4149 110.227Z" fill="#22211E"/>
<path d="M31.3368 119.724C31.3333 119.724 31.3298 119.724 31.3264 119.724C17.1984 119.204 14.6111 115.844 14.5086 115.701C14.4235 115.584 14.4495 115.42 14.566 115.337C14.6824 115.253 14.844 115.277 14.9291 115.394C14.9639 115.439 17.591 118.696 31.3455 119.203C31.4897 119.208 31.6009 119.33 31.5957 119.473C31.5922 119.614 31.4758 119.724 31.3368 119.724Z" fill="#22211E"/>
<path d="M31.3371 125.652C19.4888 125.652 14.3265 121.454 14.1128 121.274C14.0016 121.182 13.9877 121.018 14.0798 120.907C14.1719 120.795 14.3352 120.781 14.4464 120.872C14.4968 120.914 19.6973 125.128 31.3371 125.128C31.4813 125.128 31.5978 125.245 31.5978 125.389C31.5978 125.534 31.4813 125.652 31.3371 125.652Z" fill="#22211E"/>
<path d="M27.8235 130.604C27.8009 130.604 27.7766 130.6 27.7523 130.593L18.4251 127.968C18.2861 127.929 18.2062 127.785 18.2444 127.645C18.2826 127.506 18.4286 127.426 18.5659 127.464L27.893 130.09C28.032 130.128 28.112 130.273 28.0737 130.412C28.0424 130.529 27.9365 130.604 27.8235 130.604Z" fill="#22211E"/>
<path d="M253.326 319.278H15.7719C15.6276 319.278 15.5112 319.161 15.5112 319.017C15.5112 318.872 15.6276 318.755 15.7719 318.755H253.326C253.471 318.755 253.587 318.872 253.587 319.017C253.587 319.161 253.471 319.278 253.326 319.278Z" fill="#22211E"/>
<path d="M183.408 319.337C183.401 319.337 183.394 319.337 183.387 319.337C178.437 318.947 173.7 315.447 169.69 309.215C166.677 304.534 165.106 299.903 165.091 299.857C165.045 299.72 165.118 299.572 165.254 299.526C165.389 299.481 165.539 299.554 165.584 299.69C165.6 299.736 167.155 304.312 170.135 308.94C172.866 313.182 177.391 318.339 183.43 318.816C183.575 318.827 183.681 318.954 183.67 319.097C183.656 319.234 183.542 319.337 183.408 319.337Z" fill="#22211E"/>
<path d="M228.973 210.228C228.05 210.228 227.124 210.174 226.207 210.066C218.412 209.144 211.83 204.003 211.764 203.952C211.651 203.863 211.632 203.698 211.721 203.585C211.809 203.471 211.974 203.452 212.087 203.541C212.152 203.592 218.624 208.642 226.268 209.547C234.79 210.554 244.739 206.977 246.441 196.743C246.465 196.6 246.599 196.506 246.741 196.529C246.884 196.553 246.979 196.687 246.955 196.83C246.121 201.842 243.311 205.703 238.83 207.992C235.975 209.451 232.493 210.228 228.973 210.228Z" fill="#22211E"/>
<path d="M217.182 211.32L215.298 215.066L194.946 202.175L193.525 201.276C193.539 201.247 193.554 201.217 193.568 201.187C193.805 200.71 194.044 200.236 194.282 199.759L217.182 211.32Z" fill="#22211E"/>
<path d="M130.261 187.806C130.162 187.806 130.068 187.75 130.024 187.654C129.963 187.523 130.021 187.368 130.151 187.307C130.419 187.184 156.866 174.727 159.443 163.782C159.476 163.641 159.615 163.556 159.756 163.587C159.896 163.62 159.983 163.761 159.95 163.901C158.842 168.612 153.519 174.067 144.131 180.11C137.167 184.595 130.438 187.748 130.372 187.779C130.334 187.799 130.297 187.806 130.261 187.806Z" fill="#22211E"/>
<path d="M88.6919 127.346C88.6276 127.346 88.5616 127.321 88.5112 127.272L73.3285 112.654C73.2242 112.554 73.2207 112.389 73.3215 112.284C73.4223 112.18 73.5856 112.176 73.6899 112.277L88.8726 126.896C88.9768 126.995 88.9803 127.161 88.8795 127.265C88.8274 127.319 88.7597 127.346 88.6919 127.346Z" fill="#22211E"/>
<path d="M108.244 274.149H108.357L103.477 285.479L111.659 235.499L114.852 240.11L108.244 274.149Z" fill="#22211E"/>
<path d="M167.114 288.324C165.273 288.324 163.373 288.16 161.382 287.901C155.509 287.134 148.639 282.479 140.963 274.064C135.361 267.923 131.364 261.921 131.191 261.658C120.586 247.926 100.326 221.805 99.376 221.019C99.2631 220.949 99.2197 220.801 99.2805 220.679C99.3448 220.55 99.5011 220.498 99.6297 220.563C100.387 220.942 126.402 254.602 131.608 261.346L131.62 261.362C131.66 261.423 135.679 267.499 141.352 273.717C150.804 284.078 157.499 286.867 161.45 287.383C175.25 289.183 182.448 285.911 197.885 263.008C197.965 262.888 198.128 262.856 198.246 262.938C198.366 263.018 198.397 263.182 198.316 263.301C190.446 274.977 184.785 281.425 179.385 284.86C175.316 287.449 171.368 288.324 167.114 288.324Z" fill="#22211E"/>
<path d="M135.397 110.647C135.397 110.647 130.038 116.669 121.55 114.408C123.244 111.281 124.711 108.831 124.765 108.741C124.767 108.739 124.767 108.739 124.767 108.739C124.767 108.739 129.053 112.269 135.397 110.647Z" fill="#22211E"/>
<path d="M126.018 127.449C125.969 127.449 125.919 127.435 125.875 127.405C121.776 124.703 120.751 121.285 120.614 118.893C120.465 116.305 121.278 114.384 121.311 114.302C121.368 114.169 121.521 114.108 121.653 114.166C121.785 114.223 121.846 114.377 121.79 114.509C121.782 114.528 120.989 116.415 121.135 118.884C121.332 122.178 123.022 124.898 126.16 126.968C126.28 127.048 126.313 127.208 126.235 127.33C126.186 127.407 126.103 127.449 126.018 127.449Z" fill="#22211E"/>
<path d="M141.284 121.307C141.267 121.307 141.249 121.305 141.232 121.302C141.091 121.274 140.999 121.136 141.027 120.995L143.991 106.127C144.019 105.986 144.156 105.894 144.297 105.922C144.438 105.95 144.53 106.087 144.502 106.228L141.538 121.096C141.515 121.222 141.406 121.307 141.284 121.307Z" fill="#22211E"/>
<path d="M221.833 40.3119C222.026 40.6917 222.351 40.96 222.657 41.2318C224.061 42.474 224.951 44.0995 225.955 45.6378C226.61 46.6413 226.822 47.7825 226.926 48.955C226.961 49.3505 226.765 49.5142 226.429 49.5578C226.17 49.5909 225.904 49.5822 225.642 49.5822C211.281 49.5839 196.92 49.5822 182.559 49.5857C182.106 49.5857 181.67 49.5351 181.228 49.408C180.151 49.0978 179.91 48.7024 180.195 47.5995C180.499 46.4166 181.069 45.3643 181.79 44.3921C181.95 44.1779 182.127 43.9879 182.134 43.704V43.7057C182.794 43.0837 183.604 42.6308 184.165 41.8938C185.611 40.3781 187.435 39.791 189.445 40.0192C190.656 40.1551 191.635 40.1168 192.288 38.9599C192.688 38.4861 193.098 38.0192 193.193 37.371C193.81 35.6898 195.033 34.4598 196.319 33.31C197.299 32.4319 198.406 31.7036 199.589 31.1078C199.876 30.9789 200.154 30.8221 200.479 30.8116C200.531 30.8116 200.583 30.8134 200.635 30.8134C201.869 30.6183 203.078 30.3238 204.352 30.3273C205.412 30.329 206.376 30.7141 207.399 30.8116C209.365 31.0939 211.983 33.4807 212.364 35.3344C212.491 35.5766 212.567 35.8518 212.812 36.0156C213.349 36.4094 213.559 36.9425 213.488 37.5958C213.901 39.1342 213.896 39.1045 215.399 38.8136C216.817 38.5401 218.214 38.7526 219.581 39.176C220.581 39.0627 221.199 39.7004 221.833 40.3119Z" fill="white"/>
</g>
<defs>
<clipPath id="clip0_316_64718">
<rect width="247" height="321" fill="white"/>
</clipPath>
</defs>
</svg>
