<svg width="300" height="150" viewBox="0 0 300 150" fill="none" xmlns="http://www.w3.org/2000/svg">
<rect y="0.000244141" width="150" height="150" fill="#B60D00"/>
<path d="M74.9997 83.5715L110.357 150H39.6426L74.9997 83.5715Z" fill="#6B356E"/>
<path d="M74.9999 70.7144C78.6734 80.642 86.5008 88.4694 96.4284 92.1429C86.5008 95.8165 78.6734 103.644 74.9999 113.571C71.3263 103.644 63.4989 95.8165 53.5713 92.1429C63.4989 88.4694 71.3263 80.642 74.9999 70.7144Z" fill="#FFEF93"/>
<path d="M75 0L75.554 1.4971C81.6311 17.9203 94.5797 30.8689 111.003 36.946L112.5 37.5L111.003 38.054C94.5797 44.1311 81.6311 57.0797 75.554 73.5029L75 75L74.446 73.5029C68.3689 57.0797 55.4203 44.1311 38.9971 38.054L37.5 37.5L38.9971 36.946C55.4203 30.8689 68.3689 17.9203 74.446 1.4971L75 0Z" fill="#FFEF93"/>
<rect x="150" width="150" height="150" fill="#6B356E"/>
<rect x="220.536" y="48.2141" width="8.92857" height="53.5714" fill="white"/>
<rect x="202.903" y="59.2163" width="8.92857" height="53.5714" transform="rotate(-45 202.903 59.2163)" fill="white"/>
<rect width="8.92857" height="53.5714" transform="matrix(-0.707107 -0.707107 -0.707107 0.707107 247.098 59.2163)" fill="white"/>
<rect x="198.215" y="79.4639" width="8.92857" height="53.5714" transform="rotate(-90 198.215 79.4639)" fill="white"/>
<circle r="5.35714" transform="matrix(-1 0 0 1 225 128.571)" fill="white"/>
<circle r="5.35714" transform="matrix(-1 0 0 1 278.572 75)" fill="white"/>
<circle r="5.35714" transform="matrix(-1 0 0 1 171.429 75)" fill="white"/>
<circle r="5.35714" transform="matrix(-1 0 0 1 225 21.4287)" fill="white"/>
</svg>
