<svg width="300" height="150" viewBox="0 0 300 150" fill="none" xmlns="http://www.w3.org/2000/svg">
<g clip-path="url(#clip0_465_745)">
<path d="M150 150L300 150V0L150 0L150 150Z" fill="#FDE9D4"/>
<mask id="path-2-inside-1_465_745" fill="white">
<path d="M300 160.714C300 140.823 292.098 121.746 278.033 107.681C263.968 93.6156 244.891 85.7139 225 85.7139C205.109 85.7139 186.032 93.6156 171.967 107.681C157.902 121.746 150 140.823 150 160.714H187.297C187.297 150.714 191.269 141.125 198.34 134.054C205.411 126.983 215.001 123.011 225 123.011C234.999 123.011 244.589 126.983 251.66 134.054C258.731 141.125 262.703 150.714 262.703 160.714H300Z"/>
</mask>
<path d="M300 160.714C300 140.823 292.098 121.746 278.033 107.681C263.968 93.6156 244.891 85.7139 225 85.7139C205.109 85.7139 186.032 93.6156 171.967 107.681C157.902 121.746 150 140.823 150 160.714H187.297C187.297 150.714 191.269 141.125 198.34 134.054C205.411 126.983 215.001 123.011 225 123.011C234.999 123.011 244.589 126.983 251.66 134.054C258.731 141.125 262.703 150.714 262.703 160.714H300Z" stroke="#FFCC1A" stroke-width="20" mask="url(#path-2-inside-1_465_745)"/>
<mask id="path-3-outside-2_465_745" maskUnits="userSpaceOnUse" x="199.429" y="19.6426" width="52" height="52" fill="black">
<rect fill="white" x="199.429" y="19.6426" width="52" height="52"/>
<path fill-rule="evenodd" clip-rule="evenodd" d="M228.929 69.6426H221.072V55.5555L211.111 65.5163L205.555 59.9605L215.515 50H201.429V42.1428H215.516L205.555 32.1813L211.11 26.6254L221.072 36.5866V22.4997H228.929V36.5867L238.89 26.6254L244.446 32.1813L234.484 42.1428H248.572V50H234.485L244.445 59.9605L238.89 65.5163L228.929 55.5555V69.6426Z"/>
</mask>
<path fill-rule="evenodd" clip-rule="evenodd" d="M228.929 69.6426H221.072V55.5555L211.111 65.5163L205.555 59.9605L215.515 50H201.429V42.1428H215.516L205.555 32.1813L211.11 26.6254L221.072 36.5866V22.4997H228.929V36.5867L238.89 26.6254L244.446 32.1813L234.484 42.1428H248.572V50H234.485L244.445 59.9605L238.89 65.5163L228.929 55.5555V69.6426Z" fill="#FC8B4C"/>
<path d="M221.072 69.6426V71.6426C219.967 71.6426 219.072 70.7471 219.072 69.6426H221.072ZM228.929 69.6426H230.929C230.929 70.7471 230.033 71.6426 228.929 71.6426V69.6426ZM221.072 55.5555L219.657 54.1413C220.229 53.5693 221.09 53.3982 221.837 53.7077C222.584 54.0173 223.072 54.7466 223.072 55.5555H221.072ZM211.111 65.5163L212.525 66.9305C211.744 67.7116 210.478 67.7116 209.697 66.9305L211.111 65.5163ZM205.555 59.9605L204.141 61.3747C203.36 60.5936 203.36 59.3273 204.141 58.5463L205.555 59.9605ZM215.515 50V48C216.324 48 217.054 48.4872 217.363 49.2346C217.673 49.9819 217.502 50.8422 216.93 51.4142L215.515 50ZM201.429 50V52C200.324 52 199.429 51.1045 199.429 50H201.429ZM201.429 42.1428H199.429C199.429 41.0382 200.324 40.1428 201.429 40.1428V42.1428ZM215.516 42.1428L216.93 40.7286C217.502 41.3006 217.673 42.1608 217.364 42.9082C217.054 43.6555 216.325 44.1428 215.516 44.1428V42.1428ZM205.555 32.1813L204.14 33.5955C203.359 32.8144 203.359 31.5481 204.14 30.7671L205.555 32.1813ZM211.11 26.6254L209.696 25.2112C210.071 24.8361 210.58 24.6254 211.11 24.6254C211.641 24.6254 212.149 24.8361 212.525 25.2112L211.11 26.6254ZM221.072 36.5866H223.072C223.072 37.3955 222.584 38.1248 221.837 38.4344C221.09 38.7439 220.229 38.5728 219.657 38.0008L221.072 36.5866ZM221.072 22.4997H219.072C219.072 21.3951 219.967 20.4997 221.072 20.4997V22.4997ZM228.929 22.4997V20.4997C230.033 20.4997 230.929 21.3951 230.929 22.4997H228.929ZM228.929 36.5867L230.343 38.0009C229.771 38.5729 228.911 38.744 228.163 38.4344C227.416 38.1249 226.929 37.3956 226.929 36.5867H228.929ZM238.89 26.6254L237.476 25.2112C237.851 24.8361 238.359 24.6254 238.89 24.6254C239.42 24.6254 239.929 24.8361 240.304 25.2112L238.89 26.6254ZM244.446 32.1813L245.86 30.7671C246.641 31.5481 246.641 32.8144 245.86 33.5955L244.446 32.1813ZM234.484 42.1428V44.1428C233.675 44.1428 232.946 43.6555 232.636 42.9082C232.327 42.1608 232.498 41.3006 233.07 40.7286L234.484 42.1428ZM248.572 42.1428V40.1428C249.676 40.1428 250.572 41.0382 250.572 42.1428H248.572ZM248.572 50H250.572C250.572 51.1045 249.676 52 248.572 52V50ZM234.485 50L233.071 51.4142C232.499 50.8422 232.328 49.9819 232.637 49.2346C232.947 48.4872 233.676 48 234.485 48V50ZM244.445 59.9605L245.86 58.5463C246.641 59.3273 246.641 60.5936 245.86 61.3747L244.445 59.9605ZM238.89 65.5163L240.304 66.9305C239.929 67.3056 239.42 67.5163 238.89 67.5163C238.359 67.5163 237.85 67.3056 237.475 66.9305L238.89 65.5163ZM228.929 55.5555H226.929C226.929 54.7465 227.416 54.0173 228.163 53.7077C228.911 53.3981 229.771 53.5692 230.343 54.1412L228.929 55.5555ZM221.072 67.6426H228.929V71.6426H221.072V67.6426ZM223.072 55.5555V69.6426H219.072V55.5555H223.072ZM209.697 64.1021L219.657 54.1413L222.486 56.9697L212.525 66.9305L209.697 64.1021ZM206.969 58.5463L212.525 64.1021L209.697 66.9305L204.141 61.3747L206.969 58.5463ZM216.93 51.4142L206.969 61.3747L204.141 58.5463L214.101 48.5857L216.93 51.4142ZM201.429 48H215.515V52H201.429V48ZM203.429 42.1428V50H199.429V42.1428H203.429ZM215.516 44.1428H201.429V40.1428H215.516V44.1428ZM206.969 30.7671L216.93 40.7286L214.102 43.557L204.14 33.5955L206.969 30.7671ZM212.525 28.0396L206.969 33.5955L204.14 30.7671L209.696 25.2112L212.525 28.0396ZM219.657 38.0008L209.696 28.0396L212.525 25.2112L222.486 35.1724L219.657 38.0008ZM223.072 22.4997V36.5866H219.072V22.4997H223.072ZM228.929 24.4997H221.072V20.4997H228.929V24.4997ZM226.929 36.5867V22.4997H230.929V36.5867H226.929ZM240.304 28.0396L230.343 38.0009L227.514 35.1724L237.476 25.2112L240.304 28.0396ZM243.032 33.5955L237.476 28.0396L240.304 25.2112L245.86 30.7671L243.032 33.5955ZM233.07 40.7286L243.032 30.7671L245.86 33.5955L235.898 43.557L233.07 40.7286ZM248.572 44.1428H234.484V40.1428H248.572V44.1428ZM246.572 50V42.1428H250.572V50H246.572ZM234.485 48H248.572V52H234.485V48ZM243.031 61.3747L233.071 51.4142L235.899 48.5857L245.86 58.5463L243.031 61.3747ZM237.475 64.1021L243.031 58.5463L245.86 61.3747L240.304 66.9305L237.475 64.1021ZM230.343 54.1412L240.304 64.1021L237.475 66.9305L227.514 56.9697L230.343 54.1412ZM226.929 69.6426V55.5555H230.929V69.6426H226.929Z" fill="#236967" mask="url(#path-3-outside-2_465_745)"/>
</g>
<rect width="150" height="150" fill="#FFCC1A"/>
<circle cx="75.7614" cy="76.0713" r="53.5714" transform="rotate(-45 75.7614 76.0713)" fill="#236967"/>
<mask id="path-7-inside-3_465_745" fill="white">
<path d="M37.881 38.1909C27.8344 48.2374 22.1903 61.8635 22.1903 76.0716C22.1903 90.2796 27.8344 103.906 37.881 113.952C47.9276 123.999 61.5537 129.643 75.7617 129.643C89.9697 129.643 103.596 123.999 113.642 113.952L75.7617 76.0716L37.881 38.1909Z"/>
</mask>
<path d="M37.881 38.1909C27.8344 48.2374 22.1903 61.8635 22.1903 76.0716C22.1903 90.2796 27.8344 103.906 37.881 113.952C47.9276 123.999 61.5537 129.643 75.7617 129.643C89.9697 129.643 103.596 123.999 113.642 113.952L75.7617 76.0716L37.881 38.1909Z" fill="#FE7167" stroke="black" stroke-width="20" mask="url(#path-7-inside-3_465_745)"/>
<defs>
<clipPath id="clip0_465_745">
<rect width="150" height="150" fill="white" transform="matrix(1 0 0 -1 150 150)"/>
</clipPath>
</defs>
</svg>
