<svg width="300" height="150" viewBox="0 0 300 150" fill="none" xmlns="http://www.w3.org/2000/svg">
<g clip-path="url(#clip0_466_2118)">
<path d="M0 150L150 150L150 0L0 0L0 150Z" fill="#236967"/>
<mask id="path-2-inside-1_466_2118" fill="white">
<path d="M150 160.714C150 140.823 142.098 121.746 128.033 107.681C113.968 93.6156 94.8912 85.7139 75 85.7139C55.1088 85.7139 36.0322 93.6156 21.967 107.681C7.90177 121.746 3.00349e-06 140.823 0 160.714H37.2972C37.2972 150.714 41.2695 141.125 48.3401 134.054C55.4107 126.983 65.0006 123.011 75 123.011C84.9994 123.011 94.5893 126.983 101.66 134.054C108.731 141.125 112.703 150.714 112.703 160.714H150Z"/>
</mask>
<path d="M150 160.714C150 140.823 142.098 121.746 128.033 107.681C113.968 93.6156 94.8912 85.7139 75 85.7139C55.1088 85.7139 36.0322 93.6156 21.967 107.681C7.90177 121.746 3.00349e-06 140.823 0 160.714H37.2972C37.2972 150.714 41.2695 141.125 48.3401 134.054C55.4107 126.983 65.0006 123.011 75 123.011C84.9994 123.011 94.5893 126.983 101.66 134.054C108.731 141.125 112.703 150.714 112.703 160.714H150Z" stroke="#FDE9D4" stroke-width="20" mask="url(#path-2-inside-1_466_2118)"/>
<rect x="2.23214" y="-2.23214" width="4.46428" height="49.1072" transform="matrix(1 0 0 -1 71.6074 57.6783)" stroke="#FDE9D4" stroke-width="4.46428"/>
<rect x="3.15673" width="4.46429" height="49.1071" transform="matrix(0.707107 0.707107 0.707107 -0.707107 54.8992 48.9085)" stroke="#FDE9D4" stroke-width="4.46429"/>
<rect x="95.0122" y="51.1406" width="4.46429" height="49.1072" transform="rotate(135 95.0122 51.1406)" stroke="#FDE9D4" stroke-width="4.46429"/>
<rect x="2.23214" y="2.23214" width="4.46429" height="49.1071" transform="matrix(0 1 1 0 49.2861 30.8926)" stroke="#FDE9D4" stroke-width="4.46429"/>
</g>
<rect x="150" width="150" height="150" fill="#FDD503"/>
<rect x="156.333" y="17.6953" width="16.0714" height="64.2857" transform="rotate(-45 156.333 17.6953)" fill="white"/>
<rect x="167.696" y="63.1523" width="16.0714" height="64.2857" transform="rotate(-135 167.696 63.1523)" fill="white"/>
<rect x="156.333" y="97.8945" width="16.0714" height="64.2857" transform="rotate(-45 156.333 97.8945)" fill="white"/>
<rect x="167.696" y="143.352" width="16.0714" height="64.2857" transform="rotate(-135 167.696 143.352)" fill="white"/>
<rect x="236.532" y="17.6953" width="16.0714" height="64.2857" transform="rotate(-45 236.532 17.6953)" fill="white"/>
<rect x="247.896" y="63.1523" width="16.0714" height="64.2857" transform="rotate(-135 247.896 63.1523)" fill="white"/>
<rect x="236.532" y="97.8945" width="16.0714" height="64.2857" transform="rotate(-45 236.532 97.8945)" fill="white"/>
<rect x="247.896" y="143.352" width="16.0714" height="64.2857" transform="rotate(-135 247.896 143.352)" fill="white"/>
<defs>
<clipPath id="clip0_466_2118">
<rect width="150" height="150" fill="white" transform="matrix(1 0 0 -1 0 150)"/>
</clipPath>
</defs>
</svg>
