<svg width="326" height="195" viewBox="0 0 326 195" fill="none" xmlns="http://www.w3.org/2000/svg">
<path d="M255.53 186.266C255.232 186.266 254.925 186.257 254.628 186.239L207.755 183.135C200.764 182.675 195.297 176.928 195.171 169.926L194.296 119.932C194.17 112.489 200.088 106.353 207.53 106.218C207.611 106.218 207.692 106.218 207.773 106.218C215.107 106.218 221.106 112.092 221.242 119.454L221.9 157.06L256.414 159.343C263.838 159.839 269.458 166.254 268.971 173.68C268.484 180.807 262.557 186.266 255.53 186.266Z" fill="#FF90A5"/>
<path d="M191.572 131.644L222.983 131.12L222.721 115.214C222.577 106.543 217.065 100.218 207.9 99.6497H206.05C197.381 99.794 191.166 107.057 191.31 115.728L191.572 131.644Z" fill="#FECA38"/>
<path d="M88.292 56.9097L94.8592 50.2962C98.6119 46.5157 100.569 41.3007 100.236 35.9774L98.7923 13.3307C98.5577 9.69465 99.8928 6.13074 102.464 3.55029L135.525 54.6541L110.943 79.412L88.292 56.9097Z" fill="white"/>
<path d="M104.584 1.4209L137.645 52.5247L135.525 54.654L102.482 3.56827C103.104 2.87353 103.826 2.17879 104.584 1.4209Z" fill="#231F20"/>
<path d="M116.094 65.1381C114.931 65.1381 113.83 64.687 113 63.8659C112.17 63.0358 111.71 61.9441 111.701 60.7712C111.701 59.5982 112.152 58.4975 112.973 57.6674C113.803 56.8373 114.904 56.3772 116.067 56.3682C116.076 56.3682 116.076 56.3682 116.085 56.3682C117.249 56.3682 118.349 56.8193 119.179 57.6403C120.893 59.3456 120.902 62.1336 119.197 63.8479C118.368 64.6779 117.267 65.1381 116.103 65.1471C116.112 65.1381 116.103 65.1381 116.094 65.1381ZM116.103 57.1261H116.094C115.129 57.1261 114.218 57.505 113.541 58.1997C112.134 59.6163 112.143 61.917 113.559 63.3155C114.245 63.9922 115.165 64.3531 116.121 64.3622C117.087 64.3622 117.998 63.9832 118.674 63.2975C120.081 61.8809 120.072 59.5802 118.656 58.1727C117.971 57.505 117.06 57.1261 116.103 57.1261Z" fill="#231F20"/>
<path d="M104.963 29.2104C104.963 29.2104 104.954 29.2104 104.963 29.2104L98.657 29.1021C98.4495 29.1021 98.2781 28.9217 98.2781 28.7141C98.2781 28.5066 98.4405 28.3623 98.666 28.3352L104.963 28.4435C105.17 28.4435 105.341 28.6239 105.341 28.8314C105.341 29.039 105.17 29.2104 104.963 29.2104Z" fill="#231F20"/>
<path d="M105.143 33.1533C105.143 33.1533 105.134 33.1533 105.143 33.1533L98.8374 33.045C98.6209 33.045 98.4585 32.8646 98.4585 32.657C98.4585 32.4405 98.6479 32.2871 98.8464 32.2781L105.143 32.3864C105.359 32.3864 105.522 32.5668 105.522 32.7743C105.522 32.9818 105.35 33.1533 105.143 33.1533Z" fill="#231F20"/>
<path d="M105.287 37.5562C105.278 37.5562 105.269 37.5562 105.26 37.5562L98.9817 37.1141C98.7742 37.096 98.6118 36.9156 98.6208 36.6991C98.6389 36.4825 98.8373 36.3201 99.0268 36.3472L105.305 36.7893C105.513 36.8073 105.675 36.9878 105.657 37.2043C105.657 37.4028 105.486 37.5562 105.287 37.5562Z" fill="#231F20"/>
<path d="M104.863 42.1757C104.836 42.1757 104.809 42.1757 104.782 42.1667L98.6389 40.7862C98.4314 40.7411 98.3051 40.5336 98.3502 40.3261C98.3953 40.1186 98.6028 39.9832 98.8103 40.0374L104.954 41.4178C105.161 41.4629 105.287 41.6704 105.242 41.8779C105.197 42.0494 105.044 42.1757 104.863 42.1757Z" fill="#231F20"/>
<path d="M99.2884 21.5051C99.1801 21.5051 99.0719 21.46 98.9997 21.3698C98.8644 21.2074 98.8825 20.9638 99.0358 20.8285L109.59 11.6976C109.753 11.5623 109.996 11.5803 110.131 11.7337C110.267 11.8961 110.249 12.1397 110.095 12.2751L99.541 21.4059C99.4688 21.4781 99.3786 21.5051 99.2884 21.5051Z" fill="#231F20"/>
<path d="M134.289 56.278C134.163 56.278 134.037 56.2149 133.965 56.0976L107.146 14.251C107.028 14.0705 107.082 13.8359 107.263 13.7186C107.443 13.6013 107.678 13.6555 107.795 13.8359L134.614 55.6825C134.731 55.863 134.677 56.0976 134.497 56.2149C134.434 56.2509 134.362 56.278 134.289 56.278Z" fill="#231F20"/>
<path d="M176.48 187.935H61.4458C53.1286 187.935 45.3255 183.866 40.5715 177.036C35.8085 170.206 34.6899 161.481 37.5676 153.677L76.4926 46.4976L134.569 67.9171L92.207 137.03L170.734 128.919L176.489 187.953" fill="#231F20"/>
<path d="M56.8723 142.182C56.8723 142.182 95.9507 125.256 135.029 127.818L127.533 137.599L56.8723 142.182Z" fill="#6B356E"/>
<path d="M140.775 187.935H25.7412C17.424 187.935 9.62095 183.866 4.86695 177.036C0.103936 170.206 -1.01465 161.481 1.86301 153.677L40.788 46.4976L98.8644 67.9171L56.8723 142.182L135.029 127.818L140.784 187.953" fill="#6B356E"/>
<path d="M137.636 162.871H37.3871C34.2208 162.871 31.298 161.274 29.5841 158.585C27.9242 155.995 27.6807 152.856 28.9165 150.167L68.4009 65.1654C68.4911 64.9759 68.7166 64.8947 68.9151 64.9759C69.1045 65.0662 69.1947 65.2917 69.1045 65.4902L29.6202 150.492C28.4925 152.937 28.7271 155.806 30.2426 158.17C31.8213 160.633 34.4914 162.104 37.3961 162.104H137.645C137.862 162.104 138.033 162.275 138.033 162.492C138.024 162.699 137.853 162.871 137.636 162.871Z" fill="#231F20"/>
<path d="M116.996 142.29C110.916 142.29 105.459 138.51 103.33 132.78L102.31 130.038C102.238 129.839 102.337 129.614 102.536 129.541C102.734 129.469 102.96 129.568 103.032 129.767L104.051 132.51C106.108 138.059 111.476 141.677 117.384 141.514L129.138 141.189V127.556C129.138 127.34 129.31 127.168 129.526 127.168C129.743 127.168 129.914 127.34 129.914 127.556V141.568C129.914 141.776 129.752 141.947 129.544 141.956L117.411 142.29C117.267 142.29 117.132 142.29 116.996 142.29Z" fill="#231F20"/>
<path d="M135.029 127.818L158.997 129.677C163.652 130.155 167.576 128.089 169.877 121.818C176.48 103.547 184.193 96.9969 193.205 96.239C221.115 93.8841 217.408 136.263 213.664 155.671C206.817 191.22 187.323 188.567 164.482 188.269C156.58 188.161 148.678 188.062 140.775 187.953L135.029 127.818Z" fill="#FECA38"/>
<path d="M304.206 186.831L305.993 192.661H194.282V186.831H304.206Z" fill="white" stroke="black"/>
<path d="M219.96 74.4586C213.105 72.9519 205.969 75.9835 200.439 80.3143C191.617 87.2256 183.877 95.4902 174.721 101.968C168 106.723 160.369 109.881 152.836 113.084C141.56 117.893 126.558 123.253 123.14 136.516C121.516 142.814 122.58 149.617 125.305 155.508C131.195 168.23 144.456 178.777 158.402 180.871C164.735 181.827 166.548 179.337 171.437 175.204C178.483 169.25 180.675 159.388 181.514 150.203C182.352 141.018 187.323 132.275 191.482 124.038C195.812 115.466 204.408 109.177 206.925 99.9113C208.45 94.3083 206.655 92.0436 208.008 88.4165C209.352 84.7805 214.061 81.5414 217.904 82.0557L219.96 74.4586Z" fill="#EF463F"/>
<path d="M235.746 186.742L256.103 141.695L256.103 141.694C257.104 139.474 259.316 138.046 261.754 138.046H322.609C324.319 138.046 325.459 139.817 324.76 141.373C324.76 141.374 324.76 141.374 324.76 141.374L304.254 186.742H235.746Z" fill="white" stroke="black"/>
<path d="M213.664 80.1338C214.169 80.1338 214.169 79.3398 213.664 79.3398C213.15 79.3398 213.15 80.1338 213.664 80.1338Z" fill="#231F20"/>
<path d="M98.8644 67.9173C97.9533 70.597 84.0341 69.3519 68.8971 64.2271C53.76 59.1023 39.8859 49.1774 40.788 46.4977C41.6901 43.818 57.8194 48.1489 72.9564 53.2737C88.0935 58.3985 99.7665 65.2376 98.8644 67.9173Z" fill="#231F20"/>
<path d="M48.4107 55.5384L54.9779 48.9248C58.7306 45.1444 60.6881 39.9293 60.3543 34.606L58.911 11.9594C58.6765 8.32333 60.0115 4.75941 62.5825 2.17896L95.644 53.2827L71.0621 78.0406L48.4107 55.5384Z" fill="white"/>
<path d="M64.6934 0.0405273L97.7548 51.1443L95.6349 53.2736L62.5915 2.1879C63.223 1.50219 63.9356 0.807445 64.6934 0.0405273Z" fill="#231F20"/>
<path d="M76.213 63.7667C75.0494 63.7667 73.9488 63.3156 73.1189 62.4946C71.4049 60.7893 71.3959 58.0013 73.1009 56.287C73.9308 55.457 75.0313 54.9968 76.195 54.9878C76.204 54.9878 76.204 54.9878 76.213 54.9878C77.3767 54.9878 78.4773 55.4389 79.3072 56.26C81.0212 57.9652 81.0302 60.7532 79.3253 62.4675C78.4953 63.2976 77.3948 63.7577 76.2221 63.7667C76.2221 63.7667 76.2221 63.7667 76.213 63.7667ZM76.213 55.7547H76.204C75.2388 55.7547 74.3277 56.1337 73.6511 56.8194C72.2439 58.2359 72.2529 60.5367 73.6692 61.9442C74.3547 62.6299 75.2478 62.9998 76.2311 62.9998C77.1963 62.9998 78.1074 62.6209 78.784 61.9261C80.1913 60.5096 80.1822 58.2088 78.766 56.8103C78.0804 56.1246 77.1783 55.7547 76.213 55.7547Z" fill="#231F20"/>
<path d="M65.0813 27.83C65.0722 27.83 65.0722 27.83 65.0813 27.83L58.7757 27.7218C58.5682 27.7218 58.3968 27.5413 58.3968 27.3338C58.3968 27.1263 58.5592 26.9548 58.7847 26.9548L65.0813 27.0631C65.2887 27.0631 65.4601 27.2436 65.4601 27.4511C65.4601 27.6676 65.2887 27.83 65.0813 27.83Z" fill="#231F20"/>
<path d="M65.2617 31.7819C65.2526 31.7819 65.2526 31.7819 65.2617 31.7819L58.9561 31.6736C58.7396 31.6736 58.5772 31.4932 58.5772 31.2857C58.5772 31.0782 58.7757 30.9428 58.9651 30.9067L65.2617 31.015C65.4782 31.015 65.6405 31.1954 65.6405 31.403C65.6405 31.6105 65.4691 31.7819 65.2617 31.7819Z" fill="#231F20"/>
<path d="M65.406 36.185C65.397 36.185 65.388 36.185 65.379 36.185L59.1004 35.7429C58.893 35.7248 58.7306 35.5444 58.7486 35.3278C58.7667 35.1203 58.9561 34.9489 59.1546 34.976L65.4331 35.4181C65.6406 35.4361 65.803 35.6166 65.7939 35.8331C65.7759 36.0316 65.6045 36.185 65.406 36.185Z" fill="#231F20"/>
<path d="M64.982 40.7953C64.955 40.7953 64.9279 40.7953 64.9008 40.7863L58.7576 39.4059C58.5501 39.3608 58.4239 39.1532 58.469 38.9457C58.5141 38.7382 58.7215 38.6029 58.929 38.657L65.0722 40.0374C65.2797 40.0826 65.406 40.2901 65.3609 40.4976C65.3158 40.678 65.1624 40.7953 64.982 40.7953Z" fill="#231F20"/>
<path d="M59.4072 20.1338C59.2989 20.1338 59.1907 20.0887 59.1185 19.9985C58.9832 19.8361 59.0012 19.5925 59.1546 19.4571L69.709 10.3263C69.8714 10.1909 70.1149 10.209 70.2502 10.3624C70.3855 10.5248 70.3675 10.7684 70.2142 10.9037L59.6598 20.0346C59.5876 20.1067 59.4974 20.1338 59.4072 20.1338Z" fill="#231F20"/>
<path d="M94.4081 54.8977C94.2818 54.8977 94.1555 54.8345 94.0834 54.7172L67.2643 12.8706C67.1471 12.6901 67.2012 12.4555 67.3816 12.3383C67.562 12.221 67.7966 12.2751 67.9138 12.4555L94.7329 54.3022C94.8501 54.4826 94.796 54.7172 94.6156 54.8345C94.5525 54.8796 94.4803 54.8977 94.4081 54.8977Z" fill="#231F20"/>
<path d="M224.453 194.161H158.168C154.289 194.161 150.5 192.636 147.893 189.758C144.014 185.472 143.328 179.337 145.944 174.392L178.131 113.4C181.604 106.813 189.75 104.296 196.335 107.77C202.911 111.243 205.437 119.391 201.964 125.977L180.206 167.21L217.444 169.448C222.044 169.728 226.501 171.153 230.416 173.598L250.965 186.446C252.959 187.692 254.168 189.884 254.168 192.23C254.168 193.295 253.302 194.161 252.237 194.161H224.453Z" fill="#FF90A5"/>
<path d="M286.029 162.708C286.029 161.048 284.685 159.695 283.016 159.695C281.357 159.695 280.003 161.039 280.003 162.708C280.003 164.377 281.348 165.722 283.016 165.722C284.685 165.713 286.029 164.368 286.029 162.708Z" fill="#6B356E"/>
<path d="M207.467 112.074C207.142 112.02 204.481 111.532 204.156 111.415C201.305 110.368 199.844 107.211 200.89 104.368L207.62 90.3655C208.666 87.5144 211.391 87.4422 214.232 88.4888C217.083 89.5354 218.544 92.6933 217.498 95.5354L213.547 108.555C212.618 111.081 210.029 112.516 207.467 112.074Z" fill="#FF90A5"/>
<path d="M207.62 90.3655C208.666 87.5144 211.382 87.4422 214.232 88.4888C217.083 89.5354 218.535 92.6933 217.498 95.5354L215.324 102.69C215.324 102.681 207.205 98.4948 207.62 90.3655Z" fill="#231F20"/>
<path d="M214.683 100.678C214.151 100.588 213.628 100.453 213.105 100.254C208.504 98.5669 206.14 93.4601 207.827 88.8586L210.29 82.1549C211.977 77.5534 217.083 75.1895 221.683 76.8767C226.284 78.5639 228.648 83.6707 226.961 88.2722L224.498 94.976C223.01 99.0632 218.824 101.382 214.683 100.678Z" fill="#FF90A5"/>
<path d="M218.446 93.3881C218.428 93.3881 218.41 93.379 218.392 93.37L216.741 92.7655C216.569 92.7023 216.488 92.5219 216.551 92.3505C216.615 92.179 216.795 92.0978 216.966 92.161L218.266 92.6392L218.861 89.8602C218.897 89.6888 219.069 89.5715 219.24 89.6166C219.411 89.6527 219.529 89.8241 219.484 89.9956L218.807 93.1354C218.789 93.2257 218.726 93.3069 218.645 93.352C218.59 93.3881 218.518 93.4061 218.446 93.3881Z" fill="#231F20"/>
<path d="M216.398 95.0932C216.38 95.0932 216.362 95.0842 216.344 95.0751C215.532 94.7774 215.117 93.8842 215.414 93.0721C215.478 92.9007 215.667 92.8195 215.83 92.8827C216.001 92.9458 216.082 93.1263 216.019 93.2977C215.848 93.7759 216.091 94.2992 216.56 94.4706C216.732 94.5338 216.813 94.7142 216.75 94.8857C216.705 95.0391 216.551 95.1202 216.398 95.0932Z" fill="#231F20"/>
<path d="M218.302 86.982C218.293 86.982 218.293 86.982 218.284 86.982L215.018 86.2331C214.846 86.197 214.738 86.0165 214.774 85.8451C214.81 85.6737 214.99 85.5564 215.162 85.6015L218.428 86.3504C218.599 86.3865 218.708 86.5669 218.672 86.7384C218.636 86.9008 218.473 87.009 218.302 86.982Z" fill="#231F20"/>
<path d="M225.013 89.8871C224.995 89.8871 224.977 89.8781 224.959 89.8691L221.837 88.7232C221.665 88.6601 221.584 88.4796 221.647 88.3082C221.711 88.1368 221.9 88.0556 222.062 88.1187L225.184 89.2646C225.356 89.3277 225.437 89.5082 225.374 89.6796C225.32 89.833 225.166 89.9142 225.013 89.8871Z" fill="#231F20"/>
<path d="M220.033 90.7444C219.816 91.3309 220.114 91.9715 220.7 92.188L222.929 93.0091C223.579 93.2436 224.3 92.9098 224.535 92.2602C224.806 91.5384 224.354 90.7444 223.597 90.6L221.296 90.0316C220.754 89.9234 220.222 90.2211 220.033 90.7444Z" fill="white"/>
<path d="M224.634 92.7655C224.355 93.5324 223.506 93.9204 222.749 93.6407C221.982 93.361 221.594 92.5129 221.873 91.755C222.153 90.9881 223.001 90.6001 223.759 90.8798C224.526 91.1505 224.914 91.9986 224.634 92.7655Z" fill="#231F20"/>
<path d="M217.363 89.7609C217.147 90.3473 216.506 90.6451 215.92 90.4286L213.691 89.6075C213.042 89.3729 212.708 88.6511 212.942 88.0015C213.213 87.2797 214.061 86.9639 214.738 87.3428L216.858 88.3985C217.336 88.6601 217.553 89.2376 217.363 89.7609Z" fill="white"/>
<path d="M214.72 89.418C214.44 90.1849 214.828 91.024 215.595 91.3037C216.362 91.5834 217.201 91.1954 217.481 90.4285C217.76 89.6616 217.372 88.8225 216.605 88.5428C215.848 88.2631 214.999 88.6601 214.72 89.418Z" fill="#231F20"/>
<path d="M209.009 85.6015C209.009 85.6015 212.636 88.191 214.837 83.0211L209.92 81.2437L209.009 85.6015Z" fill="#EF463F"/>
<path d="M222.225 75.2165C215.468 72.2301 212.221 76.7143 210.353 81.812L222.144 86.1429L223.596 83.8782L223.334 86.5759L224.534 87.0181L225.193 85.8902L225.111 87.2256L228.81 88.5789C230.668 83.4902 227.186 77.409 222.225 75.2165Z" fill="#EF463F"/>
<path d="M206.61 90.8164L209.298 91.7999L211.273 86.4315L208.585 85.448C207.106 84.9066 205.455 85.6645 204.914 87.1442C204.363 88.6239 205.121 90.266 206.61 90.8164Z" fill="#FF90A5"/>
<path d="M206.547 87.3969C207.097 87.451 207.404 87.8571 207.296 88.3984C207.196 88.8586 207.918 88.9849 208.017 88.5247C208.216 87.6135 207.611 86.7653 206.673 86.6751C206.204 86.63 206.078 87.3518 206.547 87.3969Z" fill="#231F20"/>
<path d="M172.98 119.255L200.827 133.782L208.179 119.68C212.194 111.983 213.375 102.681 205.59 97.8179C197.895 93.8029 184.337 97.457 180.323 105.153L172.98 119.255Z" fill="#FECA38"/>
<path d="M204.4 97.0872L203.678 98.5939C201.982 102.122 202.478 106.317 204.941 109.358L205.644 110.233C208.071 113.228 212.879 112.173 213.826 108.437L215.062 103.574L204.4 97.0872Z" fill="#FF90A5"/>
<path d="M44.8835 51.6135C44.8835 51.6135 60.9587 64.7052 85.5225 68.4767L81.8871 80.4045L60.6249 84.3744L50.1607 71.6977L44.8925 59.3729V51.6135H44.8835Z" fill="#6B356E"/>
<path d="M126.198 162.871H37.3871C34.2208 162.871 31.298 161.274 29.5841 158.585C27.9242 155.995 27.6807 152.856 28.9165 150.167L68.4009 65.1654C68.4911 64.9759 68.7166 64.8947 68.9151 64.9759C69.1045 65.0662 69.1947 65.2917 69.1045 65.4902L29.6202 150.492C28.4925 152.937 28.7271 155.806 30.2426 158.17C31.8213 160.633 34.4914 162.104 37.3961 162.104H126.207C126.423 162.104 126.594 162.275 126.594 162.492C126.585 162.699 126.414 162.871 126.198 162.871Z" fill="#231F20"/>
<path d="M247.661 106.803H298.809V70.929H247.661V106.803Z" fill="#FFB430"/>
<path d="M247.655 98.6211V120.474L266.012 98.6211H247.655Z" fill="#FFB430"/>
<path d="M287.076 82.1277H258.218C257.487 82.1277 256.892 81.5322 256.892 80.8014C256.892 80.0706 257.487 79.4751 258.218 79.4751H287.076C287.806 79.4751 288.402 80.0706 288.402 80.8014C288.402 81.5322 287.806 82.1277 287.076 82.1277Z" fill="white"/>
<path d="M287.076 89.2737H258.218C257.487 89.2737 256.892 88.6782 256.892 87.9474C256.892 87.2166 257.487 86.6211 258.218 86.6211H287.076C287.806 86.6211 288.402 87.2166 288.402 87.9474C288.402 88.6782 287.806 89.2737 287.076 89.2737Z" fill="white"/>
<path d="M287.076 96.4105H258.218C257.487 96.4105 256.892 95.815 256.892 95.0841C256.892 94.3533 257.487 93.7578 258.218 93.7578H287.076C287.806 93.7578 288.402 94.3533 288.402 95.0841C288.402 95.815 287.806 96.4105 287.076 96.4105Z" fill="white"/>
<path d="M198.87 132.672C200.647 129.595 201.965 126.356 202.831 122.91C202.939 122.495 202.298 122.323 202.19 122.729C201.333 126.113 200.043 129.307 198.292 132.329C198.076 132.708 198.653 133.042 198.87 132.672Z" fill="#231F20"/>
<path d="M222.731 157.15C221.458 157.105 220.186 157.06 218.905 157.006C218.481 156.988 218.481 157.656 218.905 157.665C220.177 157.71 221.449 157.755 222.731 157.809C223.155 157.827 223.155 157.159 222.731 157.15Z" fill="#231F20"/>
<path d="M207.683 169.538C213.438 169.367 219.149 169.547 224.597 171.596C230.84 173.941 236.424 177.776 241.926 181.475C242.278 181.71 242.612 181.141 242.26 180.907C236.712 177.171 231.074 173.328 224.778 170.964C219.266 168.889 213.511 168.708 207.683 168.88C207.259 168.889 207.259 169.547 207.683 169.538Z" fill="#231F20"/>
<path d="M231.228 182.513C234.159 184.019 237.091 185.526 240.032 187.033C242.413 188.26 248.863 190.308 248.187 193.8C248.106 194.215 248.746 194.395 248.827 193.98C249.423 190.922 246.473 189.604 244.191 188.431C239.978 186.266 235.774 184.11 231.561 181.944C231.182 181.746 230.84 182.314 231.228 182.513Z" fill="#231F20"/>
<path d="M218.743 182.513C221.674 184.019 224.606 185.526 227.547 187.033C229.929 188.26 236.379 190.308 235.702 193.8C235.621 194.215 236.261 194.395 236.342 193.98C236.938 190.922 233.988 189.604 231.706 188.431C227.493 186.266 223.289 184.11 219.076 181.944C218.698 181.746 218.364 182.314 218.743 182.513Z" fill="#231F20"/>
<path d="M202.298 96.5187C200.331 102.329 199.357 111.307 206.691 113.869C209.298 114.78 212.148 114.239 214.07 112.227C216.551 109.638 216.758 105.911 216.857 102.519C216.866 102.095 216.208 102.095 216.199 102.519C216.118 105.352 216.009 108.401 214.35 110.828C212.401 113.671 208.757 114.41 205.771 112.732C199.943 109.457 201.17 101.932 202.938 96.6902C203.073 96.2932 202.433 96.1127 202.298 96.5187Z" fill="#231F20"/>
<path d="M216.217 131.229C216.217 131.229 216.524 126.591 216.217 121.953L220.448 131.111L216.217 131.229Z" fill="#231F20"/>
<path d="M174.369 116.558C182.966 120.41 191.003 125.328 199.167 130.001C199.537 130.218 199.871 129.641 199.501 129.433C191.337 124.759 183.3 119.842 174.703 115.989C174.315 115.809 173.981 116.386 174.369 116.558Z" fill="#231F20"/>
</svg>
