<svg width="40" height="40" viewBox="0 0 40 40" fill="none" xmlns="http://www.w3.org/2000/svg">
<g clip-path="url(#clip0_442_2043)">
<path d="M33.5456 34.3825C37.003 30.9195 39.1409 26.139 39.1409 20.859C39.1409 10.2879 30.5713 1.71826 20.0002 1.71826C9.42891 1.71826 0.859375 10.2879 0.859375 20.859C0.859375 24.5391 1.89891 27.9761 3.69891 30.8939L33.5456 34.3825Z" fill="#FFDD40"/>
<path d="M6.38574 6.50293V9.39145H30.9737C32.3459 9.39145 33.4622 10.5078 33.4622 11.88V32.0919H33.7136C35.1656 32.0919 36.3535 30.9039 36.3535 29.452V6.50293H6.38574Z" fill="#73C3F9"/>
<path d="M12.6311 6.64223L12.7301 6.50293H6.38574V9.39145H12.6182C12.6081 9.28582 12.5662 9.18582 12.4975 9.10363C11.5921 8.02043 12.5334 6.76816 12.6167 6.66168C12.6218 6.65527 12.6265 6.64879 12.6311 6.64223Z" fill="#4FABF7"/>
<path d="M33.7136 0H9.02559C7.57363 0 6.38574 1.18797 6.38574 2.63992V4.37789H36.3535V2.63992C36.3535 1.18797 35.1656 0 33.7136 0Z" fill="#2A428C"/>
<path d="M14.1539 3.99258C13.9613 3.63398 14.124 3.31594 14.2429 3.15375C14.3065 3.0668 14.3402 2.96211 14.3402 2.8543V1.52867C14.3402 1.41969 14.3077 1.31164 14.2405 1.22586C13.9016 0.792812 14.0836 0.367812 14.225 0.150078C14.2551 0.10375 14.276 0.0528906 14.2886 0H9.02566C7.57379 0 6.38574 1.18797 6.38574 2.63992V4.37797H14.2C14.234 4.25086 14.2187 4.11305 14.1539 3.99258Z" fill="#1C2E7A"/>
<path d="M9.63519 3.03992C10.1052 3.03992 10.4862 2.65891 10.4862 2.18891C10.4862 1.7189 10.1052 1.33789 9.63519 1.33789C9.16519 1.33789 8.78418 1.7189 8.78418 2.18891C8.78418 2.65891 9.16519 3.03992 9.63519 3.03992Z" fill="#FF4155"/>
<path d="M11.9877 3.03992C12.4577 3.03992 12.8387 2.65891 12.8387 2.18891C12.8387 1.7189 12.4577 1.33789 11.9877 1.33789C11.5177 1.33789 11.1367 1.7189 11.1367 2.18891C11.1367 2.65891 11.5177 3.03992 11.9877 3.03992Z" fill="#FFDD40"/>
<path d="M14.3403 3.03992C14.8103 3.03992 15.1913 2.65891 15.1913 2.18891C15.1913 1.7189 14.8103 1.33789 14.3403 1.33789C13.8703 1.33789 13.4893 1.7189 13.4893 2.18891C13.4893 2.65891 13.8703 3.03992 14.3403 3.03992Z" fill="#38C674"/>
<path d="M15.0403 4.23706C15.0403 5.57206 13.958 6.65433 12.623 6.65433H36.3541V4.23706H15.0403Z" fill="#E9EFFF"/>
<path d="M6.38574 4.23706V6.65433H12.7739C14.1089 6.65433 15.1911 5.57206 15.1911 4.23706H6.38574Z" fill="#1E9EF4"/>
<path d="M26.5245 2.75665H17.9856C17.6721 2.75665 17.418 2.50251 17.418 2.189C17.418 1.87548 17.6721 1.62134 17.9856 1.62134H26.5245C26.838 1.62134 27.0921 1.87548 27.0921 2.189C27.0921 2.50251 26.838 2.75665 26.5245 2.75665Z" fill="#3C58A0"/>
<path d="M33.4609 2.75665H32.721C32.4075 2.75665 32.1533 2.50251 32.1533 2.189C32.1533 1.87548 32.4075 1.62134 32.721 1.62134H33.4609C33.7744 1.62134 34.0286 1.87548 34.0286 2.189C34.0286 2.50251 33.7744 2.75665 33.4609 2.75665Z" fill="#3C58A0"/>
<path d="M30.8896 2.75665H30.1497C29.8362 2.75665 29.582 2.50251 29.582 2.189C29.582 1.87548 29.8362 1.62134 30.1497 1.62134H30.8896C31.2031 1.62134 31.4573 1.87548 31.4573 2.189C31.4573 2.50251 31.2031 2.75665 30.8896 2.75665Z" fill="#3C58A0"/>
<path d="M3.64648 15.7434V30.8099C4.33305 31.9359 5.13281 32.9854 6.02961 33.9426L14.0352 39.0518C15.9125 39.667 17.9175 40.0001 20.0004 40.0001C25.3268 40.0001 30.1444 37.8237 33.6143 34.3126V15.7434H3.64648Z" fill="#9BD8F9"/>
<path d="M9.89398 15.8797L9.99086 15.7434H3.64648V30.8099C4.33305 31.9359 5.13273 32.9853 6.02961 33.9426L10.0361 36.4995C10.1121 36.1153 10.2895 35.8141 10.4297 35.6247C10.5134 35.5117 10.4775 35.3531 10.3566 35.2815C9.59773 34.8321 9.64195 33.7104 9.64641 33.6272C9.64664 33.6232 9.64672 33.6198 9.64672 33.6158V22.7433C9.64672 21.732 10.1218 21.2858 10.4485 21.0986C10.5769 21.025 10.6048 20.856 10.5081 20.744C9.88727 20.025 10.4745 19.3037 10.683 19.0872C10.7256 19.0429 10.75 18.9843 10.75 18.9229V18.0433C10.75 17.9499 10.6943 17.8661 10.6094 17.8276C9.2957 17.2317 9.79773 16.0721 9.8743 15.9129C9.87984 15.9012 9.88641 15.8904 9.89398 15.8797Z" fill="#73C3F9"/>
<path d="M30.9744 9.24048H6.28641C4.83445 9.24048 3.64648 10.4284 3.64648 11.8804V13.6185H33.6143V11.8804C33.6143 10.4284 32.4263 9.24048 30.9744 9.24048Z" fill="#2A428C"/>
<path d="M11.4898 13.3503C11.1502 12.8966 11.4227 12.4863 11.5471 12.3386C11.5823 12.2967 11.6009 12.2434 11.6009 12.1887V10.6713C11.6009 10.6149 11.581 10.5599 11.5437 10.5177C11.1513 10.0745 11.3149 9.64751 11.4626 9.41688C11.4974 9.36251 11.5076 9.29923 11.4958 9.24048H6.28641C4.83445 9.24048 3.64648 10.4284 3.64648 11.8804V13.6185H11.4997C11.5523 13.536 11.5488 13.4292 11.4898 13.3503Z" fill="#1C2E7A"/>
<path d="M7.74598 11.4291C7.74598 11.8991 7.36496 12.2802 6.89496 12.2802C6.42496 12.2802 6.04395 11.8991 6.04395 11.4291C6.04395 10.9591 6.42496 10.5781 6.89496 10.5781C7.36496 10.5781 7.74598 10.9591 7.74598 11.4291Z" fill="#FF4155"/>
<path d="M10.0995 11.4291C10.0995 11.8991 9.71847 12.2802 9.24847 12.2802C8.77847 12.2802 8.39746 11.8991 8.39746 11.4291C8.39746 10.9591 8.77847 10.5781 9.24847 10.5781C9.71847 10.5782 10.0995 10.9591 10.0995 11.4291Z" fill="#FFDD40"/>
<path d="M12.452 11.4291C12.452 11.8991 12.071 12.2802 11.601 12.2802C11.131 12.2802 10.75 11.8991 10.75 11.4291C10.75 10.9591 11.131 10.5781 11.601 10.5781C12.071 10.5782 12.452 10.9591 12.452 11.4291Z" fill="#38C674"/>
<path d="M12.3001 13.4773C12.3001 14.8123 11.2178 15.8946 9.88281 15.8946H33.6138V13.4773H12.3001Z" fill="#E9EFFF"/>
<path d="M3.64648 13.4773V15.8946H10.0347C11.3697 15.8946 12.452 14.8123 12.452 13.4773H3.64648Z" fill="#4FABF7"/>
<path d="M30.5712 20.9734H6.69023C6.23 20.9734 5.85352 21.3499 5.85352 21.8101V33.7518C6.43805 34.3928 7.06609 34.9935 7.73211 35.5503H31.408V21.81C31.4079 21.3499 31.0314 20.9734 30.5712 20.9734Z" fill="#E9EFFF"/>
<path d="M10.3569 35.2814C9.59805 34.8321 9.64227 33.7104 9.64672 33.6271C9.64695 33.6232 9.64703 33.6198 9.64703 33.6158V22.7432C9.64703 21.7319 10.1221 21.2857 10.4488 21.0985C10.5004 21.0689 10.5348 21.0238 10.5524 20.9734H6.69023C6.23008 20.9734 5.85352 21.3499 5.85352 21.8101V33.7517C6.43813 34.3928 7.06609 34.9935 7.73211 35.5503H10.4655C10.4942 35.45 10.453 35.3384 10.3569 35.2814Z" fill="#D3DCFB"/>
<path d="M15.9351 33.0543H13.8643V30.5028C13.8643 29.9309 14.3279 29.4673 14.8997 29.4673C15.4716 29.4673 15.9352 29.9309 15.9352 30.5028V33.0543H15.9351Z" fill="#FF4155"/>
<path d="M20.0767 33.0542H18.0059V31.4737C18.0059 30.9018 18.4695 30.4382 19.0412 30.4382C19.6131 30.4382 20.0767 30.9018 20.0767 31.4737V33.0542Z" fill="#FFDD40"/>
<path d="M24.2183 33.0545H22.1475V27.9527C22.1475 27.3808 22.6111 26.9172 23.1829 26.9172C23.7548 26.9172 24.2183 27.3808 24.2183 27.9527V33.0545Z" fill="#73C3F9"/>
<path d="M28.3599 33.0543H26.2891V26.0106C26.2891 25.4387 26.7527 24.9751 27.3245 24.9751C27.8964 24.9751 28.36 25.4387 28.36 26.0106V33.0543H28.3599Z" fill="#38C674"/>
<path d="M14.8996 31.754C14.3278 31.754 13.8643 31.2904 13.8643 30.7185V33.0545H15.9351V30.7185C15.935 31.2904 15.4714 31.754 14.8996 31.754Z" fill="#E80054"/>
<path d="M19.0413 31.7539C18.6029 31.7539 18.2291 31.481 18.078 31.0962C18.032 31.2133 18.0059 31.3404 18.0059 31.4739V33.0545H20.0767V31.4739C20.0767 31.3405 20.0505 31.2134 20.0046 31.0962C19.8536 31.481 19.4797 31.7539 19.0413 31.7539Z" fill="#FFB332"/>
<path d="M23.1829 31.7539C22.611 31.7539 22.1475 31.2903 22.1475 30.7185V33.0544H24.2183V30.7185C24.2182 31.2903 23.7547 31.7539 23.1829 31.7539Z" fill="#4FABF7"/>
<path d="M27.3245 31.7539C26.7527 31.7539 26.2891 31.2903 26.2891 30.7185V33.0544H28.3599V30.7185C28.36 31.2903 27.8964 31.7539 27.3245 31.7539Z" fill="#24B55E"/>
<path d="M11.2452 29.2701H8.04715C7.73363 29.2701 7.47949 29.0159 7.47949 28.7024C7.47949 28.3889 7.73363 28.1348 8.04715 28.1348H11.2452C11.5587 28.1348 11.8129 28.3889 11.8129 28.7024C11.8129 29.0159 11.5587 29.2701 11.2452 29.2701Z" fill="#BEC8F7"/>
<path d="M11.2452 27.0938H8.04715C7.73363 27.0938 7.47949 26.8397 7.47949 26.5262C7.47949 26.2126 7.73363 25.9585 8.04715 25.9585H11.2452C11.5587 25.9585 11.8129 26.2126 11.8129 26.5262C11.8129 26.8397 11.5587 27.0938 11.2452 27.0938Z" fill="#BEC8F7"/>
<path d="M9.56871 24.9178H8.04715C7.73363 24.9178 7.47949 24.6636 7.47949 24.3501C7.47949 24.0366 7.73363 23.7825 8.04715 23.7825H9.56871C9.88223 23.7825 10.1364 24.0366 10.1364 24.3501C10.1364 24.6636 9.88223 24.9178 9.56871 24.9178Z" fill="#167CC1"/>
<path d="M11.2452 31.4461H8.04715C7.73363 31.4461 7.47949 31.192 7.47949 30.8784C7.47949 30.5649 7.73363 30.3108 8.04715 30.3108H11.2452C11.5587 30.3108 11.8129 30.5649 11.8129 30.8784C11.8129 31.192 11.5587 31.4461 11.2452 31.4461Z" fill="#BEC8F7"/>
<path d="M11.2452 33.6221H8.04715C7.73363 33.6221 7.47949 33.368 7.47949 33.0545C7.47949 32.7409 7.73363 32.4868 8.04715 32.4868H11.2452C11.5587 32.4868 11.8129 32.741 11.8129 33.0545C11.8129 33.368 11.5587 33.6221 11.2452 33.6221Z" fill="#BEC8F7"/>
<path d="M19.0421 29.3421C18.9992 29.3421 18.9556 29.3372 18.912 29.327L14.7703 28.356C14.465 28.2845 14.2756 27.9791 14.3471 27.6738C14.4187 27.3685 14.7242 27.1793 15.0294 27.2507L19.1711 28.2216C19.4764 28.2932 19.6658 28.5985 19.5942 28.9039C19.5329 29.1656 19.2996 29.3421 19.0421 29.3421Z" fill="#FFB332"/>
<path d="M19.0406 29.3419C18.8798 29.3419 18.7201 29.2741 18.6078 29.142C18.4048 28.9031 18.4338 28.5448 18.6726 28.3417L22.8143 24.8205C23.0531 24.6174 23.4114 24.6464 23.6145 24.8853C23.8175 25.1242 23.7885 25.4825 23.5497 25.6855L19.408 29.2067C19.3013 29.2975 19.1706 29.3419 19.0406 29.3419Z" fill="#73C3F9"/>
<path d="M23.1824 25.8208C22.9691 25.8208 22.7646 25.6999 22.6681 25.4939C22.535 25.2101 22.6571 24.872 22.941 24.7389L27.0828 22.7969C27.3667 22.664 27.7046 22.7861 27.8377 23.07C27.9708 23.3538 27.8487 23.6919 27.5648 23.825L23.4231 25.7669C23.3452 25.8034 23.2632 25.8208 23.1824 25.8208Z" fill="#38C674"/>
<path d="M14.2816 39.1307H25.7192C27.7884 38.4838 29.7065 37.4948 31.4076 36.2303V35.3989H7.55273C9.49688 37.0649 11.7784 38.3481 14.2816 39.1307Z" fill="#FF4155"/>
<path d="M10.0248 37.1957C9.90828 36.476 10.2132 35.9171 10.4297 35.6246C10.4803 35.5563 10.4866 35.4713 10.4573 35.3989H7.55273C8.32562 36.0612 9.15258 36.6618 10.0248 37.1957Z" fill="#E80054"/>
<path d="M22.6051 17.4595H15.6953V19.449H22.6051C23.1546 19.449 23.5999 19.0036 23.5999 18.4542C23.5999 17.9049 23.1546 17.4595 22.6051 17.4595Z" fill="#E9EFFF"/>
<path d="M18.1947 18.4542C18.1947 17.9048 18.6401 17.4595 19.1895 17.4595H15.6953V19.449H19.1895C18.64 19.449 18.1947 19.0037 18.1947 18.4542Z" fill="#D3DCFB"/>
<path d="M15.7715 17.4595H14.6549C14.1055 17.4595 13.6602 17.9049 13.6602 18.4542C13.6602 19.0037 14.1055 19.449 14.6549 19.449H15.7715V17.4595Z" fill="#3C58A0"/>
<path d="M10.7495 19.0218H6.8948C6.58129 19.0218 6.32715 18.7676 6.32715 18.4541C6.32715 18.1405 6.58129 17.8865 6.8948 17.8865H10.7495C11.063 17.8865 11.3171 18.1406 11.3171 18.4541C11.3171 18.7677 11.063 19.0218 10.7495 19.0218Z" fill="#4FABF7"/>
<path d="M23.7852 11.9969H15.2464C14.9329 11.9969 14.6787 11.7427 14.6787 11.4292C14.6787 11.1157 14.9329 10.8616 15.2464 10.8616H23.7852C24.0987 10.8616 24.3529 11.1157 24.3529 11.4292C24.3529 11.7427 24.0987 11.9969 23.7852 11.9969Z" fill="#3C58A0"/>
<path d="M30.7216 11.9969H29.9817C29.6682 11.9969 29.4141 11.7427 29.4141 11.4292C29.4141 11.1157 29.6682 10.8616 29.9817 10.8616H30.7216C31.0352 10.8616 31.2893 11.1157 31.2893 11.4292C31.2893 11.7427 31.0352 11.9969 30.7216 11.9969Z" fill="#3C58A0"/>
<path d="M28.1484 11.9969H27.4085C27.095 11.9969 26.8408 11.7427 26.8408 11.4292C26.8408 11.1157 27.095 10.8616 27.4085 10.8616H28.1484C28.4619 10.8616 28.7161 11.1157 28.7161 11.4292C28.7161 11.7427 28.4619 11.9969 28.1484 11.9969Z" fill="#3C58A0"/>
<path d="M28.9565 33.6221H13.2659C12.9524 33.6221 12.6982 33.368 12.6982 33.0545C12.6982 32.7409 12.9524 32.4868 13.2659 32.4868H28.9565C29.27 32.4868 29.5241 32.741 29.5241 33.0545C29.5241 33.368 29.27 33.6221 28.9565 33.6221Z" fill="#D3DCFB"/>
<path d="M27.2815 37.8292H17.8089C17.4954 37.8292 17.2412 37.575 17.2412 37.2615C17.2412 36.948 17.4954 36.6938 17.8089 36.6938H27.2815C27.5951 36.6938 27.8492 36.948 27.8492 37.2615C27.8492 37.5751 27.5951 37.8292 27.2815 37.8292Z" fill="#FF7186"/>
<path d="M17.8078 37.8292H11.5891C11.2756 37.8292 11.0215 37.575 11.0215 37.2615C11.0215 36.948 11.2756 36.6938 11.5891 36.6938H17.8078C18.1213 36.6938 18.3755 36.948 18.3755 37.2615C18.3755 37.5751 18.1213 37.8292 17.8078 37.8292Z" fill="#E9EFFF"/>
<path d="M17.8089 38.4023C17.4954 38.4023 17.2412 38.1481 17.2412 37.8346V36.7066C17.2412 36.393 17.4954 36.1389 17.8089 36.1389C18.1224 36.1389 18.3765 36.3931 18.3765 36.7066V37.8346C18.3765 38.1482 18.1224 38.4023 17.8089 38.4023Z" fill="#E80054"/>
<path d="M14.8987 34.596C14.5852 34.596 14.3311 34.3418 14.3311 34.0283V33.3572C14.3311 33.0437 14.5852 32.7896 14.8987 32.7896C15.2122 32.7896 15.4664 33.0437 15.4664 33.3572V34.0283C15.4664 34.3418 15.2122 34.596 14.8987 34.596Z" fill="#BEC8F7"/>
<path d="M19.0413 34.596C18.7278 34.596 18.4736 34.3418 18.4736 34.0283V33.3572C18.4736 33.0437 18.7278 32.7896 19.0413 32.7896C19.3548 32.7896 19.6089 33.0437 19.6089 33.3572V34.0283C19.6089 34.3418 19.3548 34.596 19.0413 34.596Z" fill="#BEC8F7"/>
<path d="M23.1829 34.596C22.8694 34.596 22.6152 34.3418 22.6152 34.0283V33.3572C22.6152 33.0437 22.8694 32.7896 23.1829 32.7896C23.4964 32.7896 23.7505 33.0437 23.7505 33.3572V34.0283C23.7505 34.3418 23.4964 34.596 23.1829 34.596Z" fill="#BEC8F7"/>
<path d="M27.3245 34.596C27.011 34.596 26.7568 34.3418 26.7568 34.0283V33.3572C26.7568 33.0437 27.011 32.7896 27.3245 32.7896C27.638 32.7896 27.8921 33.0437 27.8921 33.3572V34.0283C27.8921 34.3418 27.638 34.596 27.3245 34.596Z" fill="#BEC8F7"/>
</g>
<defs>
<clipPath id="clip0_442_2043">
<rect width="40" height="40" fill="white"/>
</clipPath>
</defs>
</svg>
