<svg width="341" height="347" viewBox="0 0 341 347" fill="none" xmlns="http://www.w3.org/2000/svg">
<path d="M270.182 38.042C266.332 33.0934 262.905 28.0863 267.454 21.9219C270.25 17.9232 275.148 17.0719 275.644 11.6596C276.115 8.03777 274.129 5.13973 271.494 3.01613C283.653 5.32516 287.733 14.7392 284.646 25.8231C283.264 30.9131 276.765 43.1691 269.717 37.6789" fill="#FFC050"/>
<path d="M266.349 33.2827L231.916 138.747C230.915 141.78 232.585 145.057 235.622 146.05C238.658 147.044 241.926 145.401 242.91 142.366L277.26 37.1458L266.349 33.2827Z" fill="#FF8A8A"/>
<path d="M274.585 45.389L277.271 37.1549L266.359 33.2907L263.672 41.5248L274.585 45.389Z" fill="#4A264D"/>
<path d="M248.182 182.736C246.702 185.814 243.003 187.086 239.92 185.595C236.847 184.092 235.542 180.388 237.033 177.32L297.608 51.9506C299.088 48.8722 302.797 47.5892 305.87 49.0915C308.952 50.5831 310.237 54.2882 308.757 57.3667L248.182 182.736Z" fill="#C65858"/>
<path d="M214.452 165.303C213.633 168.622 210.285 170.634 206.964 169.802C203.643 168.97 201.62 165.613 202.429 162.285L235.727 26.9957C236.547 23.6768 239.895 21.6648 243.216 22.4968C246.537 23.3289 248.56 26.6853 247.74 30.0042L214.452 165.303Z" fill="#6B356E"/>
<path d="M232.898 38.502L202.419 162.295C201.599 165.614 203.633 168.981 206.954 169.813C210.275 170.645 213.632 168.622 214.442 165.314L244.921 41.5202L232.898 38.502Z" fill="#FFC050"/>
<path d="M246.463 35.2578L247.754 30.0144C248.574 26.6955 246.54 23.3294 243.23 22.507C239.909 21.675 236.552 23.6978 235.742 27.0059L234.451 32.2493L246.463 35.2578Z" fill="#FF8A8A"/>
<path d="M163.403 112.056C87.487 115.938 45.0225 199.31 72.0454 269.892C88.7793 313.527 131.244 344.325 177.552 346.886C208.436 348.174 254.76 339.187 274.063 313.527C329.384 242.945 308.757 107.146 163.403 112.056Z" fill="#C291F3"/>
<path d="M94.3409 259.763C104.793 258.148 115.295 256.989 125.797 255.75C132.945 254.918 140.568 254.396 147.438 252.063C157.956 248.507 171.271 246.827 178.861 237.79C182.427 233.533 183.425 226.535 178.861 222.538C174.559 218.77 168.997 216.633 164.401 213.24C155.011 206.324 147.634 193.29 154.177 182.1C160.115 171.97 171.206 165.886 176.293 155.136C181.822 143.473 179.548 131.81 169.897 123.442C165.333 119.478 160.328 116.101 155.257 112.79C86.1457 121.761 47.8197 198.184 70.3278 265.097C78.752 262.438 87.4706 260.823 94.3409 259.763Z" fill="#FF90A5"/>
<path d="M218.103 157.012C213.784 168.333 212.819 176.913 220.033 186.961C225.807 195.019 231.304 203.29 230.976 213.664C230.567 226.844 223.223 237.578 219.199 249.747C215.142 261.981 217.138 275.699 228.506 283.611C236.832 289.402 246.5 289.809 256.036 286.89C272.476 281.865 288.065 270.577 299.564 257.185C309.33 208.379 293.283 154.255 243.539 127.976C231.827 134.224 222.863 144.517 218.103 157.012Z" fill="#FF90A5"/>
<path d="M212.263 323.2C207.552 315.093 200.518 308.732 194.057 302.027C188.806 296.579 183.032 290.266 175.557 287.934C160.638 283.285 142.841 289.043 129.624 296.334C120.186 301.538 111.173 308.683 106.576 318.16C126.353 334.913 151.331 345.434 177.552 346.886C189.624 347.391 204.052 346.315 218.316 343.297C217.432 336.152 215.797 329.252 212.263 323.2Z" fill="#FF90A5"/>
<path d="M120.006 142.168C121.707 144.859 123.768 147.306 125.47 149.998C126.107 151.009 127.809 151.466 128.676 150.406C130.524 148.171 131.996 145.691 133.436 143.196C133.959 142.266 133.681 140.928 132.7 140.406C131.735 139.9 130.475 140.145 129.902 141.14C129.232 142.298 128.577 143.457 127.858 144.598C127.514 145.153 127.138 145.708 126.762 146.246C126.598 146.491 126.418 146.735 126.238 146.964C125.895 147.437 126.484 146.654 126.124 147.11C126.009 147.241 125.895 147.388 125.78 147.518C126.844 147.649 127.923 147.796 128.986 147.926C127.285 145.235 125.224 142.788 123.523 140.096C122.95 139.199 121.675 138.759 120.726 139.362C119.842 139.966 119.401 141.205 120.006 142.168Z" fill="#EF463F"/>
<path d="M93.4086 169.393C94.4718 170.796 95.6332 172.117 96.8437 173.406C97.3835 173.977 97.9069 174.548 98.4304 175.135C98.6921 175.428 98.9538 175.722 99.2155 176.032C99.3628 176.211 99.51 176.391 99.6572 176.57C99.7226 176.652 99.788 176.733 99.8535 176.799C99.739 176.652 99.7553 176.668 99.9026 176.864C100.344 177.451 100.884 177.875 101.669 177.875C102.389 177.875 103.076 177.484 103.436 176.864C104.875 174.352 106.184 171.758 107.869 169.377C108.49 168.512 108.049 167.077 107.133 166.587C106.086 166.033 104.99 166.392 104.335 167.321C102.651 169.687 101.342 172.28 99.9026 174.809C101.08 174.809 102.258 174.809 103.436 174.809C102.373 173.406 101.211 172.084 100.017 170.796C99.4773 170.225 98.9538 169.654 98.4304 169.067C98.1686 168.773 97.9069 168.479 97.6452 168.17C97.498 167.99 97.3508 167.811 97.2035 167.631C97.1381 167.55 97.0727 167.468 97.0072 167.403C97.1218 167.55 97.1054 167.533 96.9582 167.338C96.3202 166.489 95.1588 165.967 94.161 166.604C93.2941 167.142 92.7215 168.479 93.4086 169.393Z" fill="#EF463F"/>
<path d="M130.917 177.549C132.389 180.094 134.483 182.182 136.347 184.417C137.051 185.265 138.507 185.151 139.243 184.417C141.435 182.214 143.267 179.637 144.673 176.864C145.148 175.918 144.952 174.613 143.937 174.075C143.005 173.585 141.647 173.797 141.14 174.809C140.486 176.114 139.733 177.37 138.883 178.56C138.785 178.707 138.67 178.838 138.572 178.985C138.539 179.033 138.212 179.458 138.359 179.262C138.507 179.066 138.179 179.49 138.147 179.539C138.032 179.67 137.918 179.8 137.82 179.947C137.345 180.502 136.854 181.024 136.347 181.546C137.312 181.546 138.278 181.546 139.243 181.546C138.376 180.518 137.476 179.539 136.609 178.511C136.396 178.267 136.184 178.006 135.988 177.761C135.889 177.647 135.808 177.533 135.709 177.419C135.971 177.761 135.66 177.337 135.595 177.272C135.17 176.701 134.793 176.114 134.434 175.51C133.894 174.58 132.569 174.189 131.636 174.776C130.72 175.363 130.344 176.554 130.917 177.549Z" fill="#EF463F"/>
<path d="M155.486 146.931C156.909 149.394 158.577 151.792 160.573 153.798C161.293 154.532 162.765 154.647 163.468 153.798C165.35 151.531 167.083 149.133 168.556 146.588C169.095 145.659 168.801 144.321 167.82 143.799C166.838 143.293 165.595 143.538 165.022 144.533C164.335 145.724 163.599 146.866 162.814 147.991C162.438 148.53 162.045 149.052 161.653 149.574C161.293 150.047 161.898 149.264 161.538 149.72C161.424 149.851 161.326 149.998 161.211 150.128C160.998 150.389 160.786 150.666 160.557 150.927C161.522 150.927 162.487 150.927 163.452 150.927C163.01 150.487 162.601 150.03 162.209 149.574C162.013 149.345 161.816 149.1 161.62 148.856C161.26 148.415 161.865 149.182 161.522 148.725C161.424 148.579 161.309 148.448 161.211 148.301C160.409 147.208 159.673 146.066 159.003 144.892C158.463 143.962 157.122 143.571 156.206 144.158C155.273 144.745 154.913 145.952 155.486 146.931Z" fill="#EF463F"/>
<path d="M106.495 210.728C107.558 213.517 108.965 216.111 110.453 218.705C110.96 219.585 112.367 220.075 113.25 219.439C115.933 217.498 117.863 214.904 119.777 212.245C120.399 211.38 119.957 209.945 119.041 209.456C117.994 208.901 116.914 209.26 116.244 210.19C115.835 210.761 115.426 211.331 115.001 211.902C114.903 212.033 114.804 212.163 114.706 212.294C114.575 212.473 114.575 212.473 114.723 212.261C114.673 212.327 114.624 212.392 114.575 212.457C114.363 212.734 114.134 212.995 113.905 213.273C113.447 213.811 112.989 214.317 112.482 214.806C112.253 215.034 112.007 215.246 111.762 215.459C111.647 215.556 111.516 215.671 111.386 215.768C111.206 215.915 111.222 215.899 111.418 215.752C111.337 215.817 111.238 215.883 111.157 215.948C112.089 216.193 113.021 216.437 113.954 216.682C113.283 215.507 112.612 214.349 111.991 213.142C111.68 212.555 111.386 211.951 111.108 211.332C111.026 211.168 110.96 211.005 110.895 210.842C110.862 210.761 110.65 210.271 110.813 210.679C110.682 210.353 110.535 210.01 110.421 209.668C110.044 208.673 109.03 207.89 107.901 208.249C106.953 208.542 106.102 209.668 106.495 210.728Z" fill="#EF463F"/>
<path d="M75.6768 223.125C77.8851 226.42 80.0116 229.895 82.8251 232.717C83.7575 233.647 85.3769 233.435 86.0312 232.309C86.3583 231.738 86.7346 231.2 87.1272 230.662C86.8982 230.955 87.2744 230.466 87.2907 230.466C87.3725 230.368 87.4543 230.27 87.5361 230.156C87.7651 229.879 87.9941 229.601 88.2231 229.34C89.1555 228.231 90.0715 227.106 90.8076 225.85C91.3474 224.92 91.053 223.582 90.0715 223.06C89.0901 222.538 87.8469 222.799 87.2744 223.794C86.9472 224.365 86.571 224.903 86.1784 225.442C86.4074 225.148 86.0312 225.637 86.0148 225.637C85.933 225.735 85.8513 225.833 85.7695 225.947C85.5405 226.225 85.3115 226.502 85.0824 226.763C84.1501 227.872 83.234 228.998 82.4979 230.254C83.5612 230.123 84.6408 229.976 85.704 229.846C84.2973 228.427 83.5121 227.367 82.4325 225.833C81.3202 224.267 80.2733 222.669 79.21 221.07C78.6212 220.189 77.378 219.716 76.4129 220.336C75.5132 220.907 75.0388 222.179 75.6768 223.125Z" fill="#EF463F"/>
<path d="M139.782 230.27C140.502 231.885 141.189 233.516 142.073 235.033C143.087 236.779 144.363 238.279 145.966 239.503C146.8 240.139 148.321 239.666 148.763 238.769C150.071 236.175 151.511 233.647 153.196 231.281C153.817 230.417 153.376 228.981 152.46 228.492C151.413 227.937 150.333 228.296 149.662 229.226C147.978 231.591 146.538 234.12 145.23 236.713C146.162 236.469 147.094 236.224 148.027 235.979C148.141 236.077 148.272 236.175 148.076 236.012C147.994 235.947 147.929 235.881 147.847 235.816C147.7 235.686 147.552 235.539 147.405 235.408C147.127 235.131 146.849 234.821 146.604 234.511C146.407 234.267 146.587 234.56 146.636 234.56C146.604 234.56 146.489 234.348 146.456 234.315C146.342 234.152 146.227 233.989 146.113 233.81C145.868 233.451 145.655 233.076 145.442 232.701C144.624 231.249 143.97 229.715 143.299 228.198C142.858 227.22 141.353 226.91 140.502 227.464C139.504 228.133 139.324 229.226 139.782 230.27Z" fill="#EF463F"/>
<path d="M224.695 169.458C226.985 171.742 229.357 174.091 232.269 175.559C233.25 176.048 234.493 175.836 235.066 174.825C235.753 173.618 236.342 172.362 236.898 171.089C237.225 170.355 237.536 169.605 237.83 168.871C237.945 168.594 238.059 168.3 238.19 168.023C238.256 167.86 238.337 167.68 238.403 167.517C238.272 167.843 238.419 167.468 238.468 167.354C238.894 166.375 238.795 165.119 237.732 164.565C236.849 164.108 235.377 164.255 234.935 165.299C234.624 166.016 234.33 166.734 234.035 167.452C233.904 167.762 233.774 168.088 233.643 168.398C233.561 168.61 233.741 168.17 233.594 168.512C233.512 168.692 233.446 168.855 233.365 169.034C232.808 170.306 232.22 171.562 231.533 172.77C232.465 172.525 233.397 172.28 234.33 172.036C233.643 171.693 232.988 171.285 232.35 170.845C232.203 170.747 232.056 170.633 231.909 170.535C231.876 170.518 231.418 170.143 231.745 170.421C231.434 170.176 231.14 169.931 230.829 169.67C229.701 168.692 228.637 167.631 227.574 166.587C226.822 165.837 225.431 165.772 224.679 166.587C223.943 167.387 223.894 168.659 224.695 169.458Z" fill="#EF463F"/>
<path d="M246.892 152.722C248.348 154.892 249.869 157.289 252.078 158.757C253.076 159.426 254.302 159.736 255.48 159.492C256.723 159.231 257.639 158.35 258.375 157.371C259.406 155.968 259.995 154.223 260.502 152.591C260.813 151.58 260.126 150.324 259.079 150.079C257.967 149.835 256.903 150.406 256.56 151.499C256.445 151.857 256.331 152.233 256.2 152.591C256.134 152.771 256.069 152.95 256.004 153.13C255.971 153.211 255.791 153.717 255.889 153.44C255.987 153.162 255.807 153.635 255.758 153.717C255.709 153.831 255.644 153.962 255.595 154.076C255.464 154.337 255.317 154.598 255.169 154.859C255.12 154.957 255.055 155.038 254.989 155.12C254.957 155.169 254.924 155.201 254.908 155.25C254.728 155.511 255.039 155.071 255.055 155.071C254.908 155.185 254.777 155.381 254.646 155.511C254.417 155.74 254.695 155.446 254.826 155.397C254.744 155.43 254.679 155.495 254.613 155.544C254.548 155.577 254.482 155.609 254.433 155.642C254.253 155.756 254.957 155.479 254.744 155.511C254.695 155.511 254.662 155.544 254.613 155.544C254.368 155.609 254.351 155.479 254.875 155.528C254.809 155.528 254.744 155.544 254.679 155.544C254.58 155.544 254.27 155.511 254.695 155.56C255.12 155.626 254.809 155.577 254.711 155.544C254.63 155.528 254.564 155.495 254.482 155.479C254.172 155.397 254.793 155.642 254.711 155.577C254.564 155.462 254.368 155.397 254.204 155.299C254.139 155.25 254.073 155.201 253.992 155.152C253.746 154.989 254.417 155.511 254.09 155.234C253.926 155.087 253.763 154.94 253.599 154.794C253.256 154.451 252.928 154.092 252.618 153.733C252.519 153.619 252.421 153.489 252.323 153.374C252.29 153.326 252.241 153.277 252.209 153.228C252.045 153.032 252.454 153.554 252.307 153.342C252.11 153.081 251.914 152.82 251.734 152.559C251.293 151.955 250.867 151.335 250.458 150.699C249.869 149.818 248.626 149.345 247.661 149.965C246.745 150.504 246.254 151.776 246.892 152.722Z" fill="#EF463F"/>
<path d="M253.01 179.67C255.725 183.144 258.604 186.684 262.285 189.18C263.021 189.685 264.15 189.473 264.755 188.853C267.585 185.999 269.679 182.573 271.903 179.262C272.508 178.348 272.083 177.011 271.167 176.472C270.169 175.885 268.975 176.277 268.37 177.206C266.342 180.241 264.444 183.372 261.876 185.982C262.694 185.868 263.528 185.77 264.346 185.656C262.825 184.629 261.32 183.128 259.978 181.66C258.539 180.094 257.198 178.463 255.889 176.782C255.202 175.918 253.713 176.065 252.994 176.782C252.143 177.631 252.323 178.789 253.01 179.67Z" fill="#EF463F"/>
<path d="M240.546 207.678C241.789 211.25 244.799 213.371 247.547 215.72C248.332 216.388 249.689 216.617 250.442 215.72C251.554 214.415 252.421 212.979 253.239 211.478C253.959 210.124 254.646 208.738 255.546 207.482C256.167 206.601 255.725 205.182 254.809 204.693C253.763 204.138 252.667 204.497 252.012 205.427C251.162 206.634 250.491 207.955 249.804 209.26C249.46 209.912 249.101 210.565 248.708 211.201C248.512 211.527 248.315 211.837 248.103 212.131C247.988 212.278 247.89 212.441 247.776 212.588C247.694 212.702 247.694 212.685 247.808 212.539C247.727 212.637 247.645 212.734 247.563 212.832C248.528 212.832 249.493 212.832 250.458 212.832C249.248 211.805 247.988 210.858 246.827 209.766C246.532 209.488 246.254 209.211 245.993 208.917C245.878 208.787 245.764 208.673 245.649 208.542C245.584 208.461 245.502 208.363 245.437 208.281C245.584 208.477 245.584 208.477 245.453 208.297C245.224 207.988 245.011 207.661 244.831 207.319C244.749 207.172 244.684 207.025 244.602 206.878C244.504 206.666 244.504 206.683 244.619 206.911C244.586 206.813 244.537 206.699 244.504 206.601C244.161 205.59 243.081 204.823 241.985 205.182C240.971 205.492 240.169 206.601 240.546 207.678Z" fill="#EF463F"/>
<path d="M275.518 217.073C277.498 219.39 279.313 221.902 281.652 223.876C282.503 224.593 283.713 224.707 284.548 223.876C286.772 221.657 289.079 219.39 290.666 216.666C291.205 215.736 290.911 214.398 289.929 213.876C288.948 213.354 287.705 213.615 287.132 214.61C285.758 216.975 283.746 218.917 281.652 221.005C282.618 221.005 283.583 221.005 284.548 221.005C282.209 219.031 280.393 216.519 278.414 214.202C277.71 213.387 276.222 213.436 275.518 214.202C274.717 215.051 274.782 216.209 275.518 217.073Z" fill="#EF463F"/>
<path d="M255.398 237.48C257.443 239.845 259.831 241.917 261.876 244.282C262.563 245.065 264.084 245.081 264.771 244.282C266.98 241.672 268.419 238.589 270.202 235.702C270.775 234.788 270.431 233.418 269.466 232.912C268.468 232.391 267.274 232.668 266.669 233.647C265.835 235 265.082 236.387 264.281 237.774C263.888 238.442 263.495 239.111 263.07 239.747C262.857 240.074 262.628 240.416 262.399 240.726C262.367 240.759 262.072 241.167 262.203 240.987C262.285 240.889 262.252 240.922 262.121 241.085C262.04 241.183 261.958 241.281 261.876 241.379C262.841 241.379 263.806 241.379 264.771 241.379C262.727 239.013 260.338 236.942 258.294 234.576C257.59 233.761 256.118 233.81 255.398 234.576C254.597 235.457 254.646 236.615 255.398 237.48Z" fill="#EF463F"/>
<path d="M228.817 259.518C230.568 263.319 233.365 266.516 236.293 269.452C237.389 270.545 239.286 270.023 239.711 268.555C239.793 268.261 239.891 267.984 239.99 267.707C240.039 267.56 240.104 267.429 240.153 267.283C240.268 266.973 239.957 267.707 240.202 267.201C240.448 266.679 240.709 266.19 241.004 265.684C241.298 265.178 241.625 264.705 241.969 264.232C242.067 264.102 242.165 263.987 242.247 263.857C242.443 263.58 241.952 264.216 242.329 263.743C242.525 263.498 242.738 263.237 242.934 262.992C243.621 262.177 243.801 260.904 242.934 260.105C242.181 259.42 240.775 259.224 240.039 260.105C238.19 262.324 236.587 264.673 235.753 267.462C236.898 267.168 238.027 266.858 239.172 266.565C237.798 265.195 236.505 263.759 235.262 262.258C235.18 262.144 235.18 262.161 235.295 262.307C235.213 262.209 235.148 262.112 235.066 262.014C234.919 261.818 234.771 261.606 234.624 261.41C234.33 261.002 234.052 260.578 233.79 260.154C233.25 259.29 232.759 258.392 232.334 257.479C231.892 256.5 230.404 256.19 229.537 256.745C228.539 257.381 228.327 258.474 228.817 259.518Z" fill="#EF463F"/>
<path d="M265.655 260.888C267.536 263.547 268.926 266.614 271.429 268.783C272.656 269.843 274.292 269.354 274.848 267.886C274.979 267.543 275.109 267.201 275.24 266.875C275.273 266.793 275.306 266.711 275.338 266.646C275.257 266.842 275.24 266.875 275.306 266.744C275.371 266.597 275.437 266.434 275.518 266.287C275.813 265.651 276.124 265.015 276.483 264.395C276.811 263.808 277.17 263.237 277.579 262.699C277.678 262.568 277.89 262.291 277.661 262.584C277.759 262.454 277.874 262.323 277.972 262.193C278.217 261.899 278.495 261.606 278.757 261.328C279.51 260.562 279.575 259.191 278.757 258.441C277.939 257.691 276.663 257.625 275.862 258.441C273.539 260.79 272.067 263.759 270.906 266.826C272.051 266.532 273.179 266.222 274.324 265.928C273.719 265.406 273.179 264.819 272.672 264.199C272.329 263.791 272.917 264.542 272.607 264.101C272.476 263.922 272.361 263.759 272.23 263.579C272.018 263.27 271.805 262.96 271.609 262.65C270.791 261.377 270.055 260.072 269.188 258.849C268.566 257.984 267.372 257.479 266.391 258.115C265.524 258.653 264.984 259.942 265.655 260.888Z" fill="#EF463F"/>
<path d="M126.827 307.476C127.907 309.955 129.673 312.108 131.587 314.017C132.471 314.898 134.204 314.8 134.793 313.609C135.333 312.516 135.824 311.391 136.38 310.314C136.658 309.776 136.953 309.237 137.296 308.732C137.394 308.585 137.492 308.454 137.591 308.307C137.64 308.242 137.689 308.177 137.738 308.095C137.689 308.161 137.623 308.242 137.574 308.307C137.689 308.242 137.803 308.03 137.901 307.916C138.016 307.786 138.13 307.671 138.245 307.557C138.997 306.79 139.063 305.42 138.245 304.67C137.427 303.936 136.151 303.854 135.35 304.67C133.436 306.611 132.471 309.156 131.276 311.554C132.34 311.423 133.419 311.276 134.483 311.146C134.057 310.722 133.648 310.298 133.256 309.857C133.043 309.612 132.83 309.368 132.618 309.107C132.536 308.993 132.438 308.895 132.356 308.781C132.094 308.454 132.601 309.107 132.291 308.683C131.538 307.671 130.884 306.578 130.377 305.42C130.18 304.98 129.592 304.605 129.15 304.49C128.659 304.36 128.005 304.409 127.58 304.703C127.138 304.98 126.762 305.404 126.647 305.926C126.5 306.481 126.598 306.954 126.827 307.476Z" fill="#EF463F"/>
<path d="M154.455 298.634C155.911 301.146 157.58 303.528 158.888 306.122C159.444 307.231 161.276 307.492 162.094 306.529C164.368 303.887 166.527 301.13 168.556 298.292C169.177 297.427 168.735 295.992 167.819 295.502C166.756 294.948 165.693 295.307 165.022 296.236C164.564 296.873 164.106 297.509 163.632 298.129C163.386 298.471 163.125 298.797 162.863 299.124C162.814 299.189 162.487 299.613 162.732 299.287C162.601 299.45 162.47 299.629 162.34 299.792C161.325 301.097 160.279 302.37 159.199 303.626C160.262 303.756 161.342 303.903 162.405 304.034C161.096 301.44 159.412 299.058 157.972 296.546C157.432 295.617 156.091 295.225 155.175 295.812C154.259 296.448 153.883 297.639 154.455 298.634Z" fill="#EF463F"/>
<path d="M155.273 329.448C156.451 332.874 158.577 335.777 160.917 338.518C161.669 339.399 163.027 339.203 163.812 338.518C165.12 337.376 166.135 335.908 167.1 334.472C167.574 333.771 168.032 333.053 168.539 332.368C168.654 332.221 168.752 332.074 168.866 331.928C169.014 331.748 169.014 331.732 168.883 331.911C168.965 331.813 169.03 331.716 169.112 331.634C169.39 331.308 169.668 330.998 169.962 330.704C170.715 329.937 170.78 328.567 169.962 327.817C169.144 327.067 167.869 327.001 167.067 327.817C165.791 329.106 164.777 330.623 163.779 332.123C163.321 332.808 162.847 333.51 162.34 334.179C162.618 333.82 162.258 334.276 162.225 334.309C162.078 334.489 161.931 334.652 161.767 334.831C161.505 335.125 161.211 335.402 160.917 335.663C161.882 335.663 162.847 335.663 163.812 335.663C163.321 335.076 162.814 334.489 162.356 333.885C162.585 334.179 162.209 333.689 162.209 333.673C162.094 333.51 161.98 333.363 161.865 333.2C161.636 332.89 161.407 332.564 161.195 332.237C160.769 331.585 160.36 330.916 160.001 330.215C159.837 329.905 159.69 329.579 159.543 329.252C159.477 329.122 159.493 329.138 159.559 329.301C159.526 329.22 159.493 329.122 159.444 329.024C159.363 328.812 159.281 328.6 159.215 328.388C158.872 327.376 157.792 326.61 156.696 326.969C155.698 327.262 154.913 328.355 155.273 329.448Z" fill="#EF463F"/>
<path d="M181.069 309.515C182.574 312.157 184.21 314.735 186.156 317.067C186.467 317.426 187.138 317.687 187.596 317.671C188.168 317.638 188.594 317.426 189.035 317.067C190.033 316.252 190.835 315.208 191.603 314.18C191.963 313.691 192.323 313.201 192.667 312.712C192.83 312.5 192.978 312.271 193.141 312.059C193.223 311.945 193.305 311.831 193.403 311.717C193.714 311.293 193.223 311.945 193.468 311.635C193.812 311.195 194.074 310.787 194.074 310.2C194.074 309.694 193.845 309.107 193.468 308.764C192.732 308.096 191.293 307.867 190.573 308.764C189.755 309.776 189.019 310.852 188.25 311.896C188.152 312.027 188.07 312.141 187.972 312.255C187.727 312.598 188.217 311.961 187.923 312.32C187.727 312.549 187.547 312.777 187.351 313.005C186.974 313.43 186.565 313.837 186.124 314.196C187.089 314.196 188.054 314.196 189.019 314.196C188.904 314.066 188.79 313.919 188.675 313.788C188.61 313.707 188.234 313.267 188.561 313.642C188.348 313.397 188.168 313.12 187.988 312.875C187.563 312.288 187.171 311.701 186.778 311.097C186.009 309.906 185.273 308.699 184.57 307.476C184.046 306.546 182.689 306.154 181.773 306.742C180.857 307.329 180.497 308.52 181.069 309.515Z" fill="#EF463F"/>
<path d="M194.712 332.303C195.906 335.043 197.558 337.572 199.472 339.855C200.175 340.704 201.647 340.589 202.367 339.855C203.43 338.779 204.248 337.49 204.968 336.169C205.279 335.598 205.573 335.027 205.9 334.456C206.064 334.179 206.227 333.901 206.407 333.64C206.505 333.494 206.604 333.33 206.718 333.184C206.767 333.102 206.833 333.037 206.882 332.972C206.702 333.2 206.685 333.233 206.816 333.069C207.176 332.645 207.421 332.205 207.421 331.634C207.421 331.128 207.192 330.541 206.816 330.198C206.064 329.513 204.657 329.318 203.921 330.198C202.972 331.34 202.269 332.596 201.582 333.885C201.271 334.456 200.96 335.043 200.6 335.598C200.437 335.859 200.257 336.201 200.028 336.413C200.42 336.022 199.962 336.479 199.897 336.56C199.766 336.707 199.635 336.854 199.488 336.984C200.453 336.984 201.418 336.984 202.383 336.984C202.252 336.838 202.138 336.674 202.007 336.528C201.942 336.43 201.631 336.087 201.958 336.462C201.729 336.201 201.516 335.875 201.32 335.598C200.927 335.043 200.551 334.472 200.191 333.885C199.472 332.727 198.817 331.503 198.277 330.247C198.081 329.807 197.492 329.432 197.051 329.318C196.56 329.187 195.906 329.236 195.48 329.53C194.417 330.182 194.253 331.259 194.712 332.303Z" fill="#EF463F"/>
<path d="M168.31 200.712C172.776 197.939 174.264 192.899 176.734 188.56C175.737 188.429 174.739 188.299 173.741 188.168C174.772 193.551 178.517 199.766 184.832 199.505C190.18 199.277 192.405 193.225 195.153 189.571C194.204 189.571 193.272 189.571 192.323 189.571C194.63 194.171 197.689 199.75 203.626 199.57C205.72 199.505 205.737 196.243 203.626 196.308C199.063 196.455 196.871 191.365 195.153 187.94C194.548 186.733 193.01 187.043 192.323 187.94C191.113 189.538 190.131 191.3 189.003 192.948C188.07 194.302 186.876 195.933 185.142 196.226C182.999 196.585 180.693 195.068 179.417 193.486C177.994 191.724 177.34 189.506 176.914 187.32C176.636 185.917 174.592 185.77 173.921 186.929C171.794 190.648 170.502 195.525 166.658 197.907C164.875 199 166.511 201.822 168.31 200.712Z" fill="white"/>
<path d="M189.117 221.119C193.583 218.346 195.071 213.305 197.541 208.966C196.544 208.836 195.546 208.705 194.548 208.575C195.578 213.958 199.324 220.173 205.638 219.912C210.987 219.683 213.212 213.632 215.96 209.978C215.011 209.978 214.079 209.978 213.13 209.978C215.437 214.578 218.496 220.156 224.433 219.977C226.527 219.912 226.543 216.649 224.433 216.715C219.87 216.861 217.678 211.772 215.96 208.346C215.355 207.139 213.817 207.449 213.13 208.346C211.92 209.945 210.938 211.707 209.81 213.354C208.877 214.708 207.683 216.339 205.949 216.633C203.806 216.992 201.484 215.475 200.224 213.893C198.801 212.131 198.147 209.912 197.721 207.727C197.443 206.324 195.398 206.177 194.728 207.335C192.601 211.054 191.309 215.932 187.465 218.313C185.682 219.406 187.318 222.244 189.117 221.119Z" fill="white"/>
<path d="M124.03 278.375C128.496 275.602 129.984 270.561 132.454 266.222C131.456 266.092 130.459 265.961 129.461 265.831C130.491 271.214 134.237 277.429 140.551 277.168C145.9 276.939 148.125 270.887 150.873 267.233C149.924 267.233 148.992 267.233 148.043 267.233C150.349 271.834 153.408 277.412 159.346 277.233C161.44 277.168 161.456 273.905 159.346 273.97C154.782 274.117 152.59 269.028 150.873 265.602C150.268 264.395 148.73 264.705 148.043 265.602C146.833 267.201 145.851 268.963 144.706 270.61C143.774 271.964 142.58 273.595 140.846 273.889C138.703 274.248 136.396 272.731 135.121 271.148C133.697 269.387 133.043 267.168 132.618 264.982C132.34 263.58 130.295 263.433 129.624 264.591C127.498 268.31 126.206 273.187 122.362 275.569C120.595 276.662 122.247 279.484 124.03 278.375Z" fill="white"/>
<path d="M220.687 311.635C225.153 308.862 226.642 303.822 229.112 299.483C228.114 299.352 227.116 299.222 226.118 299.091C227.149 304.474 230.895 310.689 237.209 310.428C242.558 310.2 244.782 304.148 247.53 300.494C246.582 300.494 245.649 300.494 244.7 300.494C247.007 305.094 250.066 310.673 256.004 310.493C258.097 310.428 258.114 307.166 256.004 307.231C251.44 307.378 249.248 302.288 247.53 298.863C246.925 297.656 245.388 297.966 244.7 298.863C243.49 300.461 242.509 302.223 241.38 303.871C240.447 305.225 239.253 306.856 237.519 307.149C235.377 307.508 233.07 305.991 231.794 304.409C230.371 302.647 229.717 300.429 229.292 298.243C229.013 296.84 226.969 296.693 226.298 297.851C224.172 301.571 222.879 306.448 219.035 308.83C217.252 309.922 218.904 312.744 220.687 311.635Z" fill="white"/>
<path d="M99.7498 144.547C98.9352 142.869 83.0759 121.576 83.0759 121.576L102.334 125.491L95.2083 106.001L112.63 117.901L112.587 97.5507L124.323 114.799L129.484 94.8624L143.317 123.364L101.427 143.732" fill="#FFC050"/>
<path d="M76.0214 116.268C73.319 117.582 75.3531 121.773 78.0554 120.459C80.7577 119.145 78.7237 114.954 76.0214 116.268Z" fill="#FFC050"/>
<path d="M89.7395 99.7465C87.0372 101.06 89.0712 105.251 91.7735 103.937C94.4759 102.624 92.4418 98.4325 89.7395 99.7465Z" fill="#FFC050"/>
<path d="M109.962 89.6671C107.259 90.9811 109.293 95.1721 111.996 93.8581C114.698 92.5442 112.664 88.3532 109.962 89.6671Z" fill="#FFC050"/>
<path d="M128.027 84.7609C125.324 86.0748 127.358 90.2658 130.061 88.9519C132.763 87.6379 130.729 83.4469 128.027 84.7609Z" fill="#FFC050"/>
<path d="M51.0417 200.606C48.7861 200.606 48.7861 204.104 51.0417 204.104C53.2974 204.104 53.2974 200.606 51.0417 200.606Z" fill="#6B356E"/>
<path d="M37.6033 203.633C34.6605 206.246 35.1946 210.189 38.5429 212.187C40.018 213.064 41.7517 213.351 43.3935 212.802C45.3948 212.138 46.401 210.108 46.8475 208.199C47.161 206.895 45.1082 206.587 44.8015 207.878C44.1865 210.468 42.2155 211.724 39.7472 210.496C37.6002 209.428 36.9529 206.963 38.8208 205.305C39.8163 204.432 38.6056 202.746 37.6033 203.633Z" fill="#C65858"/>
<path d="M38.8086 195.019C37.8595 195.019 37.0667 195.812 37.0667 196.762V197.689C37.0667 198.639 37.8595 199.433 38.8086 199.433C39.7578 199.433 40.5507 198.639 40.5507 197.689V196.762C40.5507 195.812 39.7578 195.019 38.8086 195.019Z" fill="#6B356E"/>
<path d="M6.33112 324.239C8.36974 326.593 9.94865 329.766 12.7967 331.219C15.4649 332.58 17.7733 331.065 19.4522 328.926C20.7913 327.217 22.0604 324.331 24.129 323.43C26.4375 322.427 28.2162 325.559 29.2256 327.145C30.5447 329.223 32.0736 331.659 34.7019 331.966C37.5599 332.294 39.8883 330.195 41.6072 328.118C43.0262 326.388 44.725 323.277 47.1834 323.062C49.9215 322.826 51.9102 325.968 53.4791 327.79C55.178 329.766 57.3964 331.997 60.2145 331.342C63.0726 330.676 64.9413 327.637 66.7801 325.559C67.6495 324.577 68.6388 323.451 69.9179 323.041C71.3669 322.57 72.736 323.461 73.8253 324.351C76.0238 326.142 77.7626 329.336 80.5107 330.308C83.9784 331.536 86.3268 327.616 88.1955 325.375C89.1049 324.28 90.3441 322.724 91.843 322.499C93.1721 322.304 94.4513 323.369 95.3906 324.198C97.7091 326.255 100.297 330.41 103.825 330.093C106.953 329.817 109.011 325.999 111.03 323.993C112.209 322.826 113.478 322.222 114.977 323.113C116.356 323.942 117.466 325.201 118.675 326.265C120.783 328.128 124.051 330.769 126.969 329.151C129.268 327.882 130.197 324.853 131.616 322.775C132.605 321.322 134.024 320.022 135.853 320.657C137.582 321.25 138.971 322.796 140.16 324.147C140.78 324.853 141.349 325.62 141.979 326.316C142.699 327.115 143.448 327.8 144.098 328.681C145.057 329.98 147.225 328.711 146.256 327.391C145.057 325.754 143.638 324.31 142.319 322.775C141.09 321.342 139.751 319.92 138.142 318.947C134.744 316.89 131.596 318.384 129.477 321.496C128.668 322.683 128.048 323.973 127.299 325.191C126.789 326.009 126.14 327.064 125.08 327.105C123.571 327.156 121.943 325.733 120.853 324.812C119.534 323.696 118.345 322.417 116.956 321.393C115.817 320.554 114.478 319.961 113.049 320.124C111.25 320.319 109.841 321.567 108.662 322.878C107.442 324.229 106.323 325.794 104.894 326.931C103.965 327.678 103.205 327.708 102.186 327.084C99.0681 325.16 97.2294 321.179 93.5319 320.135C90.2141 319.193 87.6059 322.049 85.7472 324.443C84.8678 325.58 83.5187 327.882 81.8998 328.005C80.8705 328.077 79.9411 326.951 79.3016 326.275C77.153 324.024 74.8246 320.943 71.5968 320.431C68.5589 319.95 66.2804 322.263 64.4516 324.423C63.0926 326.02 60.7741 329.796 58.2758 328.711C57.1066 328.2 56.1773 327.053 55.3578 326.101C54.4185 325.017 53.5291 323.86 52.4898 322.867C50.4511 320.912 47.5931 319.797 44.9449 321.148C42.4866 322.396 41.0375 325.058 39.2487 327.064C37.6698 328.824 35.2915 330.543 33.2728 328.466C31.524 326.664 30.6446 324.126 28.7859 322.407C26.8172 320.575 24.159 320.165 21.9905 321.854C19.9219 323.461 18.8226 325.968 17.0938 327.893C16.3743 328.691 15.5149 329.499 14.3857 329.162C12.9766 328.742 11.8474 327.238 10.968 326.132C9.99863 324.924 9.13921 323.625 8.1199 322.458C7.03064 321.199 5.26185 323.011 6.33112 324.239Z" fill="#FFD3D3"/>
<path d="M33.5173 250.158C27.2198 252.337 19.2777 251.271 13.6728 247.712C9.87023 245.415 2.17271 238.191 8.84766 234.237C17.6963 229.336 30.8553 242.543 34.5866 249.017" fill="#FF90A5"/>
<path d="M47.5124 255.202C44.358 252.671 22.6176 232.268 37.9752 231.775C49.1588 231.194 49.951 248.973 48.4105 255.616" fill="#FF90A5"/>
<path d="M55.5056 271.652C48.9574 279.555 23.7989 275.967 31.8087 265.606C37.7168 257.945 51.411 267.395 56.1117 270.106" fill="#FF90A5"/>
<path d="M107.414 303.806C100.022 302.66 92.8422 300.226 86.2282 296.73C82.8772 294.964 79.6515 292.917 76.6916 290.538C73.5617 288.029 71.0133 284.933 68.7199 281.663C66.3518 278.276 64.2392 274.731 61.8711 271.344C59.7595 268.321 57.3236 265.529 54.8352 262.826C49.6385 257.214 43.8521 252.427 37.0248 248.93C33.1616 246.959 29.0912 245.422 25.0365 243.884C23.029 243.118 21.0134 242.345 19.0355 241.515C16.9134 240.626 14.8856 239.474 12.7493 238.633C11.1008 237.975 9.78182 240.444 11.4461 241.102C13.2703 241.819 15.0084 242.806 16.8112 243.594C18.6298 244.382 20.478 245.105 22.3337 245.82C26.061 247.25 29.826 248.624 33.4509 250.31C40.5399 253.592 46.5244 258.152 51.9115 263.789C54.6173 266.62 57.2406 269.587 59.4927 272.804C61.7616 276.051 63.7983 279.449 66.0437 282.705C68.3472 286.047 70.8844 289.286 73.9792 291.93C76.822 294.352 79.9943 296.456 83.245 298.297C90.5024 302.396 98.5496 305.26 106.791 306.545C108.561 306.797 109.2 304.073 107.414 303.806Z" fill="#EF463F"/>
<path d="M41.7079 242.233C44.3712 247.184 46.3023 252.458 47.3485 257.975C47.491 258.721 48.412 259.111 49.0851 258.915C49.8677 258.685 50.1672 257.924 50.0247 257.177C48.9312 251.417 46.8667 245.926 44.094 240.765C43.2454 239.188 40.8594 240.656 41.7079 242.233Z" fill="#EF463F"/>
<path d="M40.4214 271.068C43.6 271.646 46.7933 272.192 50.0295 272.349C53.0284 272.498 56.3899 272.374 59.0244 270.771C60.5586 269.837 59.0997 267.456 57.5655 268.391C57.4494 268.466 57.3175 268.541 57.1933 268.609C57.1933 268.609 56.7966 268.803 56.9835 268.718C56.68 268.862 56.3592 268.96 56.0385 269.057C55.4595 269.234 54.8317 269.364 54.2732 269.438C52.7706 269.636 51.2457 269.63 49.734 269.544C46.8059 269.385 43.9058 268.869 41.0291 268.345C39.2807 268.022 38.649 270.738 40.4214 271.068Z" fill="#EF463F"/>
</svg>
