<svg width="450" height="140" viewBox="0 0 440 140" fill="none" xmlns="http://www.w3.org/2000/svg">
<rect x="300" y="0.000244141" width="140" height="140" fill="#B60D00"/>
<path d="M370 78L403 140H337L370 78Z" fill="#6B356E"/>
<path d="M370 66C373.429 75.2658 380.734 82.5713 390 86C380.734 89.4287 373.429 96.7342 370 106C366.571 96.7342 359.266 89.4287 350 86C359.266 82.5713 366.571 75.2658 370 66Z" fill="#FFEF93"/>
<path d="M370 0C376 16.2152 388.785 28.9998 405 35C388.785 41.0002 376 53.7848 370 70C364 53.7848 351.215 41.0002 335 35C351.215 28.9998 364 16.2152 370 0Z" fill="#FFEF93"/>
<rect width="140" height="140" transform="matrix(1 0 0 -1 0 140)" fill="#F8C4ED"/>
<path d="M70 45L40 95H100L70 45Z" fill="#FFEF93"/>
<rect width="26" height="45" transform="matrix(1 0 0 -1 57 140)" fill="black"/>
<circle r="10" transform="matrix(1 0 0 -1 70 20)" fill="black"/>
<circle r="10" transform="matrix(1 0 0 -1 100 20)" fill="black"/>
<circle r="10" transform="matrix(1 0 0 -1 40 20)" fill="black"/>
<path d="M150 0L290 0V140H150V0Z" fill="#FFEF93"/>
<path d="M150 70C150 31.3401 181.34 0 220 0V140C181.34 140 150 108.66 150 70Z" fill="#B60D00"/>
<rect x="185" y="70.3551" width="50" height="50" transform="rotate(-45 185 70.3551)" fill="#F8C4ED"/>
<circle cx="220" cy="69.9998" r="7" fill="black"/>
</svg>
